%TF.GenerationSoftware,KiCad,Pcbnew,9.0.5*%
%TF.CreationDate,2025-10-22T18:31:25+01:00*%
%TF.ProjectId,ZX Interface 1 ROM 39SF010,5a582049-6e74-4657-9266-616365203120,rev?*%
%TF.SameCoordinates,Original*%
%TF.FileFunction,Copper,L1,Top*%
%TF.FilePolarity,Positive*%
%FSLAX46Y46*%
G04 Gerber Fmt 4.6, Leading zero omitted, Abs format (unit mm)*
G04 Created by KiCad (PCBNEW 9.0.5) date 2025-10-22 18:31:25*
%MOMM*%
%LPD*%
G01*
G04 APERTURE LIST*
G04 Aperture macros list*
%AMRoundRect*
0 Rectangle with rounded corners*
0 $1 Rounding radius*
0 $2 $3 $4 $5 $6 $7 $8 $9 X,Y pos of 4 corners*
0 Add a 4 corners polygon primitive as box body*
4,1,4,$2,$3,$4,$5,$6,$7,$8,$9,$2,$3,0*
0 Add four circle primitives for the rounded corners*
1,1,$1+$1,$2,$3*
1,1,$1+$1,$4,$5*
1,1,$1+$1,$6,$7*
1,1,$1+$1,$8,$9*
0 Add four rect primitives between the rounded corners*
20,1,$1+$1,$2,$3,$4,$5,0*
20,1,$1+$1,$4,$5,$6,$7,0*
20,1,$1+$1,$6,$7,$8,$9,0*
20,1,$1+$1,$8,$9,$2,$3,0*%
G04 Aperture macros list end*
%TA.AperFunction,SMDPad,CuDef*%
%ADD10RoundRect,0.075000X-0.075000X0.712500X-0.075000X-0.712500X0.075000X-0.712500X0.075000X0.712500X0*%
%TD*%
%TA.AperFunction,ComponentPad*%
%ADD11R,1.700000X1.700000*%
%TD*%
%TA.AperFunction,ComponentPad*%
%ADD12O,1.700000X1.700000*%
%TD*%
%TA.AperFunction,ComponentPad*%
%ADD13R,0.960000X0.960000*%
%TD*%
%TA.AperFunction,ComponentPad*%
%ADD14C,0.960000*%
%TD*%
%TA.AperFunction,ViaPad*%
%ADD15C,0.800000*%
%TD*%
%TA.AperFunction,Conductor*%
%ADD16C,0.250000*%
%TD*%
G04 APERTURE END LIST*
D10*
%TO.P,U1,1,A11*%
%TO.N,/A11*%
X162375000Y-112287500D03*
%TO.P,U1,2,A9*%
%TO.N,/A9*%
X161875000Y-112287500D03*
%TO.P,U1,3,A8*%
%TO.N,/A8*%
X161375000Y-112287500D03*
%TO.P,U1,4,A13*%
%TO.N,Net-(J1-Pin_7)*%
X160875000Y-112287500D03*
%TO.P,U1,5,A14*%
%TO.N,Net-(J1-Pin_6)*%
X160375000Y-112287500D03*
%TO.P,U1,6,A17*%
%TO.N,Net-(J1-Pin_3)*%
X159875000Y-112287500D03*
%TO.P,U1,7,WE*%
%TO.N,Net-(J1-Pin_1)*%
X159375000Y-112287500D03*
%TO.P,U1,8,VCC*%
%TO.N,/VCC*%
X158875000Y-112287500D03*
%TO.P,U1,9,A18*%
%TO.N,Net-(J1-Pin_2)*%
X158375000Y-112287500D03*
%TO.P,U1,10,A16*%
%TO.N,Net-(J1-Pin_4)*%
X157875000Y-112287500D03*
%TO.P,U1,11,A15*%
%TO.N,Net-(J1-Pin_5)*%
X157375000Y-112287500D03*
%TO.P,U1,12,A12*%
%TO.N,/A12*%
X156875000Y-112287500D03*
%TO.P,U1,13,A7*%
%TO.N,/A7*%
X156375000Y-112287500D03*
%TO.P,U1,14,A6*%
%TO.N,/A6*%
X155875000Y-112287500D03*
%TO.P,U1,15,A5*%
%TO.N,/A5*%
X155375000Y-112287500D03*
%TO.P,U1,16,A4*%
%TO.N,/A4*%
X154875000Y-112287500D03*
%TO.P,U1,17,A3*%
%TO.N,/A3*%
X154875000Y-125662500D03*
%TO.P,U1,18,A2*%
%TO.N,/A2*%
X155375000Y-125662500D03*
%TO.P,U1,19,A1*%
%TO.N,/A1*%
X155875000Y-125662500D03*
%TO.P,U1,20,A0*%
%TO.N,/A0*%
X156375000Y-125662500D03*
%TO.P,U1,21,DQ0*%
%TO.N,/D0*%
X156875000Y-125662500D03*
%TO.P,U1,22,DQ1*%
%TO.N,/D1*%
X157375000Y-125662500D03*
%TO.P,U1,23,DQ2*%
%TO.N,/D2*%
X157875000Y-125662500D03*
%TO.P,U1,24,GND*%
%TO.N,GND*%
X158375000Y-125662500D03*
%TO.P,U1,25,DQ3*%
%TO.N,/D3*%
X158875000Y-125662500D03*
%TO.P,U1,26,DQ4*%
%TO.N,/D4*%
X159375000Y-125662500D03*
%TO.P,U1,27,DQ5*%
%TO.N,/D5*%
X159875000Y-125662500D03*
%TO.P,U1,28,DQ6*%
%TO.N,/D6*%
X160375000Y-125662500D03*
%TO.P,U1,29,DQ7*%
%TO.N,/D7*%
X160875000Y-125662500D03*
%TO.P,U1,30,CE*%
%TO.N,Net-(J1-Pin_8)*%
X161375000Y-125662500D03*
%TO.P,U1,31,A10*%
%TO.N,/A10*%
X161875000Y-125662500D03*
%TO.P,U1,32,0E*%
%TO.N,/CS1*%
X162375000Y-125662500D03*
%TD*%
D11*
%TO.P,J1,1,Pin_1*%
%TO.N,Net-(J1-Pin_1)*%
X170161000Y-107413400D03*
D12*
%TO.P,J1,2,Pin_2*%
%TO.N,Net-(J1-Pin_2)*%
X170161000Y-109953400D03*
%TO.P,J1,3,Pin_3*%
%TO.N,Net-(J1-Pin_3)*%
X170161000Y-112493400D03*
%TO.P,J1,4,Pin_4*%
%TO.N,Net-(J1-Pin_4)*%
X170161000Y-115033400D03*
%TO.P,J1,5,Pin_5*%
%TO.N,Net-(J1-Pin_5)*%
X170161000Y-117573400D03*
%TO.P,J1,6,Pin_6*%
%TO.N,Net-(J1-Pin_6)*%
X170161000Y-120113400D03*
%TO.P,J1,7,Pin_7*%
%TO.N,Net-(J1-Pin_7)*%
X170161000Y-122653400D03*
%TO.P,J1,8,Pin_8*%
%TO.N,Net-(J1-Pin_8)*%
X170161000Y-125193400D03*
%TO.P,J1,9,Pin_9*%
%TO.N,GND*%
X170161000Y-127733400D03*
%TD*%
D13*
%TO.P,J4,01,01*%
%TO.N,/VCC*%
X166020200Y-104873400D03*
D14*
%TO.P,J4,02,02*%
%TO.N,/A8*%
X166020200Y-107413400D03*
%TO.P,J4,03,03*%
%TO.N,/A9*%
X166020200Y-109953400D03*
%TO.P,J4,04,04*%
%TO.N,/A12*%
X166020200Y-112493400D03*
%TO.P,J4,05,05*%
%TO.N,/CS1*%
X166020200Y-115033400D03*
%TO.P,J4,06,06*%
%TO.N,/A10*%
X166020200Y-117573400D03*
%TO.P,J4,07,07*%
%TO.N,/A11*%
X166020200Y-120113400D03*
%TO.P,J4,08,08*%
%TO.N,/D7*%
X166020200Y-122653400D03*
%TO.P,J4,09,09*%
%TO.N,/D6*%
X166020200Y-125193400D03*
%TO.P,J4,10,10*%
%TO.N,/D5*%
X166020200Y-127733400D03*
%TO.P,J4,11,11*%
%TO.N,/D4*%
X166020200Y-130273400D03*
%TO.P,J4,12,12*%
%TO.N,/D3*%
X166020200Y-132813400D03*
%TD*%
D13*
%TO.P,J3,01,01*%
%TO.N,/A7*%
X150780200Y-104873400D03*
D14*
%TO.P,J3,02,02*%
%TO.N,/A6*%
X150780200Y-107413400D03*
%TO.P,J3,03,03*%
%TO.N,/A5*%
X150780200Y-109953400D03*
%TO.P,J3,04,04*%
%TO.N,/A4*%
X150780200Y-112493400D03*
%TO.P,J3,05,05*%
%TO.N,/A3*%
X150780200Y-115033400D03*
%TO.P,J3,06,06*%
%TO.N,/A2*%
X150780200Y-117573400D03*
%TO.P,J3,07,07*%
%TO.N,/A1*%
X150780200Y-120113400D03*
%TO.P,J3,08,08*%
%TO.N,/A0*%
X150780200Y-122653400D03*
%TO.P,J3,09,09*%
%TO.N,/D0*%
X150780200Y-125193400D03*
%TO.P,J3,10,10*%
%TO.N,/D1*%
X150780200Y-127733400D03*
%TO.P,J3,11,11*%
%TO.N,/D2*%
X150780200Y-130273400D03*
%TO.P,J3,12,12*%
%TO.N,GND*%
X150780200Y-132813400D03*
%TD*%
D15*
%TO.N,/A10*%
X162288300Y-124272500D03*
%TO.N,Net-(J1-Pin_2)*%
X158375000Y-119503600D03*
%TO.N,Net-(J1-Pin_3)*%
X158992900Y-116453000D03*
%TO.N,Net-(J1-Pin_4)*%
X158414900Y-106529000D03*
%TO.N,Net-(J1-Pin_5)*%
X157295200Y-110175700D03*
%TO.N,Net-(J1-Pin_7)*%
X161388700Y-113681600D03*
%TO.N,Net-(J1-Pin_8)*%
X162929200Y-123491100D03*
%TD*%
D16*
%TO.N,/VCC*%
X166020200Y-104873400D02*
X165213300Y-104873400D01*
X158875000Y-112287500D02*
X158875000Y-110925300D01*
X158875000Y-110925300D02*
X164926900Y-104873400D01*
X164926900Y-104873400D02*
X165213300Y-104873400D01*
%TO.N,GND*%
X158375000Y-127232900D02*
X158375000Y-125662500D01*
X152794500Y-132813400D02*
X158375000Y-127232900D01*
X150780200Y-132813400D02*
X152794500Y-132813400D01*
%TO.N,/A7*%
X150780200Y-105680300D02*
X150981900Y-105680300D01*
X150981900Y-105680300D02*
X156375000Y-111073400D01*
X150780200Y-104873400D02*
X150780200Y-105680300D01*
X156375000Y-111073400D02*
X156375000Y-112287500D01*
%TO.N,/A6*%
X150780200Y-107413400D02*
X152062200Y-107413400D01*
X155875000Y-111226200D02*
X155875000Y-112287500D01*
X152062200Y-107413400D02*
X155875000Y-111226200D01*
%TO.N,/A5*%
X153937300Y-109953400D02*
X155375000Y-111391100D01*
X150780200Y-109953400D02*
X153937300Y-109953400D01*
X155375000Y-111391100D02*
X155375000Y-112287500D01*
%TO.N,/A3*%
X154875000Y-119128200D02*
X150780200Y-115033400D01*
X154875000Y-125662500D02*
X154875000Y-119128200D01*
%TO.N,/A2*%
X155127100Y-126811200D02*
X154654100Y-126811200D01*
X154654100Y-126811200D02*
X154224000Y-126381100D01*
X155375000Y-125662500D02*
X155375000Y-126563300D01*
X154224000Y-126381100D02*
X154224000Y-121017200D01*
X154224000Y-121017200D02*
X150780200Y-117573400D01*
X155375000Y-126563300D02*
X155127100Y-126811200D01*
%TO.N,/A1*%
X150422400Y-114224400D02*
X151146400Y-114224400D01*
X150780200Y-120113400D02*
X149972200Y-119305400D01*
X155875000Y-118953000D02*
X155875000Y-125662500D01*
X151146400Y-114224400D02*
X155875000Y-118953000D01*
X149972200Y-119305400D02*
X149972200Y-114674600D01*
X149972200Y-114674600D02*
X150422400Y-114224400D01*
%TO.N,/A0*%
X150780200Y-123576500D02*
X150780200Y-122653400D01*
X154466800Y-127263100D02*
X150780200Y-123576500D01*
X156375000Y-126587200D02*
X155699100Y-127263100D01*
X156375000Y-125662500D02*
X156375000Y-126587200D01*
X155699100Y-127263100D02*
X154466800Y-127263100D01*
%TO.N,/D0*%
X153303300Y-127716500D02*
X150780200Y-125193400D01*
X155910400Y-127716500D02*
X153303300Y-127716500D01*
X156875000Y-126751900D02*
X155910400Y-127716500D01*
X156875000Y-125662500D02*
X156875000Y-126751900D01*
%TO.N,/D1*%
X157375000Y-126898200D02*
X157375000Y-125662500D01*
X150780200Y-127733400D02*
X151258500Y-128211700D01*
X151258500Y-128211700D02*
X156061500Y-128211700D01*
X156061500Y-128211700D02*
X157375000Y-126898200D01*
%TO.N,/D2*%
X157875000Y-127067300D02*
X157875000Y-125662500D01*
X150780200Y-130273400D02*
X154668900Y-130273400D01*
X154668900Y-130273400D02*
X157875000Y-127067300D01*
%TO.N,/D3*%
X166020200Y-132813400D02*
X165128500Y-132813400D01*
X165128500Y-132813400D02*
X158875000Y-126559900D01*
X158875000Y-126559900D02*
X158875000Y-125662500D01*
%TO.N,/D4*%
X167346400Y-128947200D02*
X167346400Y-122147200D01*
X166020200Y-130273400D02*
X167346400Y-128947200D01*
X162113600Y-121390000D02*
X159375000Y-124128600D01*
X166589200Y-121390000D02*
X162113600Y-121390000D01*
X159375000Y-124128600D02*
X159375000Y-125662500D01*
X167346400Y-122147200D02*
X166589200Y-121390000D01*
%TO.N,/D5*%
X159875000Y-126529100D02*
X159875000Y-125662500D01*
X161079300Y-127733400D02*
X159875000Y-126529100D01*
X166020200Y-127733400D02*
X161079300Y-127733400D01*
%TO.N,/D6*%
X166377500Y-121844500D02*
X162313100Y-121844500D01*
X162313100Y-121844500D02*
X160375000Y-123782600D01*
X160375000Y-123782600D02*
X160375000Y-125662500D01*
X166850600Y-124363000D02*
X166850600Y-122317600D01*
X166020200Y-125193400D02*
X166850600Y-124363000D01*
X166850600Y-122317600D02*
X166377500Y-121844500D01*
%TO.N,/D7*%
X162160400Y-122653400D02*
X166020200Y-122653400D01*
X160875000Y-123938800D02*
X162160400Y-122653400D01*
X160875000Y-125662500D02*
X160875000Y-123938800D01*
%TO.N,/A11*%
X166346200Y-111674000D02*
X162988500Y-111674000D01*
X165207300Y-119300500D02*
X165207300Y-114576400D01*
X165207300Y-114576400D02*
X166849100Y-112934600D01*
X166849100Y-112176900D02*
X166346200Y-111674000D01*
X162988500Y-111674000D02*
X162375000Y-112287500D01*
X166020200Y-120113400D02*
X165207300Y-119300500D01*
X166849100Y-112934600D02*
X166849100Y-112176900D01*
%TO.N,/A10*%
X161875000Y-124685800D02*
X162288300Y-124272500D01*
X161875000Y-125662500D02*
X161875000Y-124685800D01*
%TO.N,/CS1*%
X165213300Y-130611000D02*
X165699100Y-131096800D01*
X166850800Y-128242200D02*
X165213300Y-129879700D01*
X165090600Y-125662500D02*
X166850800Y-127422700D01*
X167830600Y-116843800D02*
X166020200Y-115033400D01*
X166850800Y-127422700D02*
X166850800Y-128242200D01*
X165213300Y-129879700D02*
X165213300Y-130611000D01*
X166341300Y-131096800D02*
X167830600Y-129607500D01*
X162375000Y-125662500D02*
X165090600Y-125662500D01*
X167830600Y-129607500D02*
X167830600Y-116843800D01*
X165699100Y-131096800D02*
X166341300Y-131096800D01*
%TO.N,/A12*%
X156875000Y-119038900D02*
X158080800Y-120244700D01*
X156875000Y-112287500D02*
X156875000Y-119038900D01*
X158696500Y-120244700D02*
X166020200Y-112921000D01*
X158080800Y-120244700D02*
X158696500Y-120244700D01*
X166020200Y-112921000D02*
X166020200Y-112493400D01*
%TO.N,/A9*%
X161875000Y-111396100D02*
X161875000Y-112287500D01*
X166020200Y-109953400D02*
X163317700Y-109953400D01*
X163317700Y-109953400D02*
X161875000Y-111396100D01*
%TO.N,/A8*%
X161375000Y-111242100D02*
X161375000Y-112287500D01*
X166020200Y-107413400D02*
X165203700Y-107413400D01*
X165203700Y-107413400D02*
X161375000Y-111242100D01*
%TO.N,Net-(J1-Pin_1)*%
X159375000Y-111127600D02*
X159375000Y-112287500D01*
X168984100Y-107413400D02*
X167266400Y-105695700D01*
X170161000Y-107413400D02*
X168984100Y-107413400D01*
X164806900Y-105695700D02*
X159375000Y-111127600D01*
X167266400Y-105695700D02*
X164806900Y-105695700D01*
%TO.N,Net-(J1-Pin_2)*%
X170993300Y-108776500D02*
X170161000Y-108776500D01*
X169011900Y-104066500D02*
X171337900Y-106392500D01*
X158266000Y-116152000D02*
X158375000Y-116043000D01*
X158266000Y-119394600D02*
X158266000Y-116152000D01*
X171337900Y-108431900D02*
X170993300Y-108776500D01*
X165087900Y-104066500D02*
X169011900Y-104066500D01*
X170161000Y-109953400D02*
X170161000Y-108776500D01*
X158375000Y-112287500D02*
X158375000Y-110779400D01*
X158375000Y-116043000D02*
X158375000Y-112287500D01*
X158375000Y-110779400D02*
X165087900Y-104066500D01*
X158375000Y-119503600D02*
X158266000Y-119394600D01*
X171337900Y-106392500D02*
X171337900Y-108431900D01*
%TO.N,Net-(J1-Pin_3)*%
X159875000Y-112287500D02*
X159875000Y-111269000D01*
X159875000Y-111269000D02*
X164994900Y-106149100D01*
X158992900Y-116453000D02*
X159875000Y-115570900D01*
X159875000Y-115570900D02*
X159875000Y-112287500D01*
X164994900Y-106149100D02*
X166575900Y-106149100D01*
X169795200Y-111316500D02*
X170161000Y-111316500D01*
X168926500Y-110447800D02*
X169795200Y-111316500D01*
X166575900Y-106149100D02*
X168926500Y-108499700D01*
X170161000Y-112493400D02*
X170161000Y-111316500D01*
X168926500Y-108499700D02*
X168926500Y-110447800D01*
%TO.N,Net-(J1-Pin_4)*%
X157875000Y-110640200D02*
X157875000Y-112287500D01*
X158414900Y-110100300D02*
X157875000Y-110640200D01*
X158414900Y-106529000D02*
X158414900Y-110100300D01*
%TO.N,Net-(J1-Pin_5)*%
X157375000Y-110255500D02*
X157295200Y-110175700D01*
X157375000Y-112287500D02*
X157375000Y-110255500D01*
%TO.N,Net-(J1-Pin_6)*%
X166390300Y-106602600D02*
X168417000Y-108629300D01*
X168417000Y-108629300D02*
X168417000Y-117560300D01*
X169793200Y-118936500D02*
X170161000Y-118936500D01*
X160375000Y-111410300D02*
X165182700Y-106602600D01*
X170161000Y-120113400D02*
X170161000Y-118936500D01*
X168417000Y-117560300D02*
X169793200Y-118936500D01*
X160375000Y-112287500D02*
X160375000Y-111410300D01*
X165182700Y-106602600D02*
X166390300Y-106602600D01*
%TO.N,Net-(J1-Pin_7)*%
X160875000Y-113167900D02*
X160875000Y-112287500D01*
X161388700Y-113681600D02*
X160875000Y-113167900D01*
%TO.N,Net-(J1-Pin_8)*%
X162029000Y-123491200D02*
X162929200Y-123491200D01*
X161375000Y-125662500D02*
X161375000Y-124145200D01*
X161375000Y-124145200D02*
X162029000Y-123491200D01*
X162929200Y-123491200D02*
X162929200Y-123491100D01*
%TO.N,/A4*%
X154669100Y-112493400D02*
X154875000Y-112287500D01*
X150780200Y-112493400D02*
X154669100Y-112493400D01*
%TD*%
%TA.AperFunction,NonConductor*%
G36*
X173421864Y-102520185D02*
G01*
X173467619Y-102572989D01*
X173478825Y-102624500D01*
X173478825Y-134375500D01*
X173459140Y-134442539D01*
X173406336Y-134488294D01*
X173354825Y-134499500D01*
X149183900Y-134499500D01*
X149116861Y-134479815D01*
X149071106Y-134427011D01*
X149059900Y-134375500D01*
X149059900Y-114612989D01*
X149346700Y-114612989D01*
X149346700Y-114612994D01*
X149346700Y-119367006D01*
X149355708Y-119412294D01*
X149370737Y-119487853D01*
X149417885Y-119601681D01*
X149417890Y-119601690D01*
X149445074Y-119642372D01*
X149445076Y-119642374D01*
X149449476Y-119648959D01*
X149486342Y-119704133D01*
X149573467Y-119791258D01*
X149573469Y-119791259D01*
X149583559Y-119801349D01*
X149763381Y-119981171D01*
X149796866Y-120042494D01*
X149799700Y-120068852D01*
X149799700Y-120209975D01*
X149837378Y-120399393D01*
X149837381Y-120399405D01*
X149911288Y-120577834D01*
X149911295Y-120577847D01*
X150018595Y-120738431D01*
X150018598Y-120738435D01*
X150155164Y-120875001D01*
X150155168Y-120875004D01*
X150315752Y-120982304D01*
X150315765Y-120982311D01*
X150494194Y-121056218D01*
X150494199Y-121056220D01*
X150683624Y-121093899D01*
X150683627Y-121093900D01*
X150683629Y-121093900D01*
X150876773Y-121093900D01*
X150876774Y-121093899D01*
X151066201Y-121056220D01*
X151244641Y-120982308D01*
X151405232Y-120875004D01*
X151541804Y-120738432D01*
X151649108Y-120577841D01*
X151723020Y-120399401D01*
X151760700Y-120209971D01*
X151760700Y-120016829D01*
X151760700Y-120016826D01*
X151760699Y-120016824D01*
X151742590Y-119925786D01*
X151723020Y-119827399D01*
X151659936Y-119675102D01*
X151652468Y-119605633D01*
X151683743Y-119543154D01*
X151743832Y-119507502D01*
X151813657Y-119509996D01*
X151862179Y-119539969D01*
X153562181Y-121239971D01*
X153595666Y-121301294D01*
X153598500Y-121327652D01*
X153598500Y-125210847D01*
X153578815Y-125277886D01*
X153526011Y-125323641D01*
X153456853Y-125333585D01*
X153393297Y-125304560D01*
X153386819Y-125298528D01*
X151541944Y-123453653D01*
X151508459Y-123392330D01*
X151513443Y-123322638D01*
X151538525Y-123283614D01*
X151537943Y-123283136D01*
X151541806Y-123278429D01*
X151649104Y-123117847D01*
X151649104Y-123117846D01*
X151649108Y-123117841D01*
X151723020Y-122939401D01*
X151760700Y-122749971D01*
X151760700Y-122556829D01*
X151760700Y-122556826D01*
X151760699Y-122556824D01*
X151723021Y-122367406D01*
X151723020Y-122367399D01*
X151710495Y-122337160D01*
X151649111Y-122188965D01*
X151649104Y-122188952D01*
X151541804Y-122028368D01*
X151541801Y-122028364D01*
X151405235Y-121891798D01*
X151405231Y-121891795D01*
X151244647Y-121784495D01*
X151244634Y-121784488D01*
X151066205Y-121710581D01*
X151066193Y-121710578D01*
X150876774Y-121672900D01*
X150876771Y-121672900D01*
X150683629Y-121672900D01*
X150683626Y-121672900D01*
X150494206Y-121710578D01*
X150494194Y-121710581D01*
X150315765Y-121784488D01*
X150315752Y-121784495D01*
X150155168Y-121891795D01*
X150155164Y-121891798D01*
X150018598Y-122028364D01*
X150018595Y-122028368D01*
X149911295Y-122188952D01*
X149911288Y-122188965D01*
X149837381Y-122367394D01*
X149837378Y-122367406D01*
X149799700Y-122556824D01*
X149799700Y-122749975D01*
X149837378Y-122939393D01*
X149837381Y-122939405D01*
X149911288Y-123117834D01*
X149911295Y-123117847D01*
X150018594Y-123278430D01*
X150018595Y-123278431D01*
X150018596Y-123278432D01*
X150118382Y-123378218D01*
X150132222Y-123403564D01*
X150148562Y-123427369D01*
X150149938Y-123436008D01*
X150151866Y-123439539D01*
X150154643Y-123462136D01*
X150154700Y-123464013D01*
X150154700Y-123514893D01*
X150154700Y-123638107D01*
X150158924Y-123659342D01*
X150177705Y-123753766D01*
X150177707Y-123753774D01*
X150177706Y-123753774D01*
X150178735Y-123758943D01*
X150178737Y-123758951D01*
X150225888Y-123872786D01*
X150237346Y-123889933D01*
X150237347Y-123889934D01*
X150237348Y-123889936D01*
X150294340Y-123975231D01*
X150294341Y-123975232D01*
X150294342Y-123975233D01*
X150381467Y-124062358D01*
X150381468Y-124062358D01*
X150388535Y-124069425D01*
X150388534Y-124069425D01*
X150388538Y-124069428D01*
X150416354Y-124097244D01*
X150449839Y-124158567D01*
X150444855Y-124228259D01*
X150402983Y-124284192D01*
X150376127Y-124299485D01*
X150315767Y-124324487D01*
X150315752Y-124324495D01*
X150155168Y-124431795D01*
X150155164Y-124431798D01*
X150018598Y-124568364D01*
X150018595Y-124568368D01*
X149911295Y-124728952D01*
X149911288Y-124728965D01*
X149837381Y-124907394D01*
X149837378Y-124907406D01*
X149799700Y-125096824D01*
X149799700Y-125289975D01*
X149837378Y-125479393D01*
X149837381Y-125479405D01*
X149911288Y-125657834D01*
X149911295Y-125657847D01*
X150018595Y-125818431D01*
X150018598Y-125818435D01*
X150155164Y-125955001D01*
X150155168Y-125955004D01*
X150315752Y-126062304D01*
X150315765Y-126062311D01*
X150494194Y-126136218D01*
X150494199Y-126136220D01*
X150683624Y-126173899D01*
X150683627Y-126173900D01*
X150683629Y-126173900D01*
X150824748Y-126173900D01*
X150891787Y-126193585D01*
X150912429Y-126210219D01*
X151353630Y-126651420D01*
X151387115Y-126712743D01*
X151382131Y-126782435D01*
X151340259Y-126838368D01*
X151274795Y-126862785D01*
X151218497Y-126853662D01*
X151066205Y-126790581D01*
X151066193Y-126790578D01*
X150876774Y-126752900D01*
X150876771Y-126752900D01*
X150683629Y-126752900D01*
X150683626Y-126752900D01*
X150494206Y-126790578D01*
X150494194Y-126790581D01*
X150315765Y-126864488D01*
X150315752Y-126864495D01*
X150155168Y-126971795D01*
X150155164Y-126971798D01*
X150018598Y-127108364D01*
X150018595Y-127108368D01*
X149911295Y-127268952D01*
X149911288Y-127268965D01*
X149837381Y-127447394D01*
X149837378Y-127447406D01*
X149799700Y-127636824D01*
X149799700Y-127829975D01*
X149837378Y-128019393D01*
X149837381Y-128019405D01*
X149911288Y-128197834D01*
X149911295Y-128197847D01*
X150018595Y-128358431D01*
X150018598Y-128358435D01*
X150155164Y-128495001D01*
X150155168Y-128495004D01*
X150315752Y-128602304D01*
X150315765Y-128602311D01*
X150458577Y-128661465D01*
X150494199Y-128676220D01*
X150677883Y-128712757D01*
X150683624Y-128713899D01*
X150683627Y-128713900D01*
X150846610Y-128713900D01*
X150913649Y-128733585D01*
X150915480Y-128734784D01*
X150962214Y-128766011D01*
X151076048Y-128813163D01*
X151136471Y-128825181D01*
X151196893Y-128837200D01*
X151196894Y-128837200D01*
X154921148Y-128837200D01*
X154988187Y-128856885D01*
X155033942Y-128909689D01*
X155043886Y-128978847D01*
X155014861Y-129042403D01*
X155008829Y-129048881D01*
X154446129Y-129611581D01*
X154384806Y-129645066D01*
X154358448Y-129647900D01*
X151592698Y-129647900D01*
X151525659Y-129628215D01*
X151505021Y-129611585D01*
X151405232Y-129511796D01*
X151405231Y-129511795D01*
X151405230Y-129511794D01*
X151244647Y-129404495D01*
X151244634Y-129404488D01*
X151066205Y-129330581D01*
X151066193Y-129330578D01*
X150876774Y-129292900D01*
X150876771Y-129292900D01*
X150683629Y-129292900D01*
X150683626Y-129292900D01*
X150494206Y-129330578D01*
X150494194Y-129330581D01*
X150315765Y-129404488D01*
X150315752Y-129404495D01*
X150155168Y-129511795D01*
X150155166Y-129511797D01*
X150018598Y-129648364D01*
X150018595Y-129648368D01*
X149911295Y-129808952D01*
X149911288Y-129808965D01*
X149837381Y-129987394D01*
X149837378Y-129987406D01*
X149799700Y-130176824D01*
X149799700Y-130369975D01*
X149837378Y-130559393D01*
X149837381Y-130559405D01*
X149911288Y-130737834D01*
X149911295Y-130737847D01*
X150018595Y-130898431D01*
X150018598Y-130898435D01*
X150155164Y-131035001D01*
X150155168Y-131035004D01*
X150315752Y-131142304D01*
X150315765Y-131142311D01*
X150494194Y-131216218D01*
X150494199Y-131216220D01*
X150683624Y-131253899D01*
X150683627Y-131253900D01*
X150683629Y-131253900D01*
X150876773Y-131253900D01*
X150876774Y-131253899D01*
X151066201Y-131216220D01*
X151244641Y-131142308D01*
X151405232Y-131035004D01*
X151505018Y-130935217D01*
X151566339Y-130901734D01*
X151592698Y-130898900D01*
X153525048Y-130898900D01*
X153592087Y-130918585D01*
X153637842Y-130971389D01*
X153647786Y-131040547D01*
X153618761Y-131104103D01*
X153612729Y-131110581D01*
X152571729Y-132151581D01*
X152510406Y-132185066D01*
X152484048Y-132187900D01*
X151592698Y-132187900D01*
X151525659Y-132168215D01*
X151505021Y-132151585D01*
X151405232Y-132051796D01*
X151405231Y-132051795D01*
X151405230Y-132051794D01*
X151244647Y-131944495D01*
X151244634Y-131944488D01*
X151066205Y-131870581D01*
X151066193Y-131870578D01*
X150876774Y-131832900D01*
X150876771Y-131832900D01*
X150683629Y-131832900D01*
X150683626Y-131832900D01*
X150494206Y-131870578D01*
X150494194Y-131870581D01*
X150315765Y-131944488D01*
X150315752Y-131944495D01*
X150155168Y-132051795D01*
X150155164Y-132051798D01*
X150018598Y-132188364D01*
X150018595Y-132188368D01*
X149911295Y-132348952D01*
X149911288Y-132348965D01*
X149837381Y-132527394D01*
X149837378Y-132527406D01*
X149799700Y-132716824D01*
X149799700Y-132909975D01*
X149837378Y-133099393D01*
X149837381Y-133099405D01*
X149911288Y-133277834D01*
X149911295Y-133277847D01*
X150018595Y-133438431D01*
X150018598Y-133438435D01*
X150155164Y-133575001D01*
X150155168Y-133575004D01*
X150315752Y-133682304D01*
X150315765Y-133682311D01*
X150494194Y-133756218D01*
X150494199Y-133756220D01*
X150683624Y-133793899D01*
X150683627Y-133793900D01*
X150683629Y-133793900D01*
X150876773Y-133793900D01*
X150876774Y-133793899D01*
X151066201Y-133756220D01*
X151244641Y-133682308D01*
X151405232Y-133575004D01*
X151505018Y-133475217D01*
X151566339Y-133441734D01*
X151592698Y-133438900D01*
X152856107Y-133438900D01*
X152916529Y-133426881D01*
X152976952Y-133414863D01*
X153010292Y-133401052D01*
X153090786Y-133367712D01*
X153151900Y-133326876D01*
X153193233Y-133299258D01*
X153280358Y-133212133D01*
X153280359Y-133212131D01*
X153287425Y-133205065D01*
X153287428Y-133205061D01*
X154951385Y-131541104D01*
X156530500Y-131541104D01*
X156530500Y-131679094D01*
X156557418Y-131814422D01*
X156557421Y-131814432D01*
X156610221Y-131941904D01*
X156610228Y-131941917D01*
X156686885Y-132056641D01*
X156686888Y-132056645D01*
X156784454Y-132154211D01*
X156784458Y-132154214D01*
X156899182Y-132230871D01*
X156899195Y-132230878D01*
X157026667Y-132283678D01*
X157026672Y-132283680D01*
X157026676Y-132283680D01*
X157026677Y-132283681D01*
X157162004Y-132310600D01*
X157162007Y-132310600D01*
X157299995Y-132310600D01*
X157391041Y-132292489D01*
X157435328Y-132283680D01*
X157562811Y-132230875D01*
X157677542Y-132154214D01*
X157775114Y-132056642D01*
X157851775Y-131941911D01*
X157857169Y-131928890D01*
X157883003Y-131866520D01*
X157904580Y-131814428D01*
X157931500Y-131679093D01*
X157931500Y-131541107D01*
X157931500Y-131541104D01*
X159530500Y-131541104D01*
X159530500Y-131679094D01*
X159557418Y-131814422D01*
X159557421Y-131814432D01*
X159610221Y-131941904D01*
X159610228Y-131941917D01*
X159686885Y-132056641D01*
X159686888Y-132056645D01*
X159784454Y-132154211D01*
X159784458Y-132154214D01*
X159899182Y-132230871D01*
X159899195Y-132230878D01*
X160026667Y-132283678D01*
X160026672Y-132283680D01*
X160026676Y-132283680D01*
X160026677Y-132283681D01*
X160162004Y-132310600D01*
X160162007Y-132310600D01*
X160299995Y-132310600D01*
X160391041Y-132292489D01*
X160435328Y-132283680D01*
X160562811Y-132230875D01*
X160677542Y-132154214D01*
X160775114Y-132056642D01*
X160851775Y-131941911D01*
X160857169Y-131928890D01*
X160883003Y-131866520D01*
X160904580Y-131814428D01*
X160931500Y-131679093D01*
X160931500Y-131541107D01*
X160931500Y-131541104D01*
X160904581Y-131405777D01*
X160904580Y-131405776D01*
X160904580Y-131405772D01*
X160904578Y-131405767D01*
X160851778Y-131278295D01*
X160851771Y-131278282D01*
X160775114Y-131163558D01*
X160775111Y-131163554D01*
X160677545Y-131065988D01*
X160677541Y-131065985D01*
X160562817Y-130989328D01*
X160562804Y-130989321D01*
X160435332Y-130936521D01*
X160435322Y-130936518D01*
X160299995Y-130909600D01*
X160299993Y-130909600D01*
X160162007Y-130909600D01*
X160162005Y-130909600D01*
X160026677Y-130936518D01*
X160026667Y-130936521D01*
X159899195Y-130989321D01*
X159899182Y-130989328D01*
X159784458Y-131065985D01*
X159784454Y-131065988D01*
X159686888Y-131163554D01*
X159686885Y-131163558D01*
X159610228Y-131278282D01*
X159610221Y-131278295D01*
X159557421Y-131405767D01*
X159557418Y-131405777D01*
X159530500Y-131541104D01*
X157931500Y-131541104D01*
X157904581Y-131405777D01*
X157904580Y-131405776D01*
X157904580Y-131405772D01*
X157904578Y-131405767D01*
X157851778Y-131278295D01*
X157851771Y-131278282D01*
X157775114Y-131163558D01*
X157775111Y-131163554D01*
X157677545Y-131065988D01*
X157677541Y-131065985D01*
X157562817Y-130989328D01*
X157562804Y-130989321D01*
X157435332Y-130936521D01*
X157435322Y-130936518D01*
X157299995Y-130909600D01*
X157299993Y-130909600D01*
X157162007Y-130909600D01*
X157162005Y-130909600D01*
X157026677Y-130936518D01*
X157026667Y-130936521D01*
X156899195Y-130989321D01*
X156899182Y-130989328D01*
X156784458Y-131065985D01*
X156784454Y-131065988D01*
X156686888Y-131163554D01*
X156686885Y-131163558D01*
X156610228Y-131278282D01*
X156610221Y-131278295D01*
X156557421Y-131405767D01*
X156557418Y-131405777D01*
X156530500Y-131541104D01*
X154951385Y-131541104D01*
X158773729Y-127718760D01*
X158773733Y-127718758D01*
X158860858Y-127631633D01*
X158864046Y-127626861D01*
X158872259Y-127618516D01*
X158892660Y-127607162D01*
X158910489Y-127592086D01*
X158922621Y-127590490D01*
X158933312Y-127584541D01*
X158956611Y-127586019D01*
X158979762Y-127582975D01*
X158990831Y-127588191D01*
X159003041Y-127588967D01*
X159021843Y-127602808D01*
X159042964Y-127612763D01*
X159048321Y-127617811D01*
X164729763Y-133299255D01*
X164729767Y-133299258D01*
X164832210Y-133367709D01*
X164832211Y-133367709D01*
X164832215Y-133367712D01*
X164898897Y-133395332D01*
X164946048Y-133414863D01*
X164966097Y-133418851D01*
X165031124Y-133431785D01*
X165066892Y-133438901D01*
X165066894Y-133438901D01*
X165196221Y-133438901D01*
X165196241Y-133438900D01*
X165207702Y-133438900D01*
X165274741Y-133458585D01*
X165295378Y-133475214D01*
X165395165Y-133575001D01*
X165395169Y-133575005D01*
X165555752Y-133682304D01*
X165555765Y-133682311D01*
X165734194Y-133756218D01*
X165734199Y-133756220D01*
X165923624Y-133793899D01*
X165923627Y-133793900D01*
X165923629Y-133793900D01*
X166116773Y-133793900D01*
X166116774Y-133793899D01*
X166306201Y-133756220D01*
X166484641Y-133682308D01*
X166645232Y-133575004D01*
X166781804Y-133438432D01*
X166889108Y-133277841D01*
X166963020Y-133099401D01*
X167000700Y-132909971D01*
X167000700Y-132716829D01*
X167000700Y-132716826D01*
X167000699Y-132716824D01*
X166963021Y-132527406D01*
X166963020Y-132527399D01*
X166963018Y-132527394D01*
X166889111Y-132348965D01*
X166889104Y-132348952D01*
X166781804Y-132188368D01*
X166781801Y-132188364D01*
X166645235Y-132051798D01*
X166645231Y-132051795D01*
X166484647Y-131944495D01*
X166484637Y-131944490D01*
X166473389Y-131939831D01*
X166452574Y-131923057D01*
X166429655Y-131909300D01*
X166425785Y-131901469D01*
X166418986Y-131895990D01*
X166410544Y-131870628D01*
X166398701Y-131846661D01*
X166399679Y-131837981D01*
X166396921Y-131829695D01*
X166403532Y-131803790D01*
X166406526Y-131777231D01*
X166412039Y-131770460D01*
X166414200Y-131761996D01*
X166433767Y-131743778D01*
X166450645Y-131723053D01*
X166460485Y-131718903D01*
X166465338Y-131714386D01*
X166482286Y-131707416D01*
X166489345Y-131705106D01*
X166523752Y-131698263D01*
X166570032Y-131679093D01*
X166637586Y-131651112D01*
X166688809Y-131616884D01*
X166740033Y-131582658D01*
X166827158Y-131495533D01*
X166827159Y-131495531D01*
X166834225Y-131488465D01*
X166834228Y-131488461D01*
X168229329Y-130093360D01*
X168229333Y-130093358D01*
X168316458Y-130006233D01*
X168384911Y-129903786D01*
X168432063Y-129789952D01*
X168456100Y-129669106D01*
X168456100Y-118783352D01*
X168475785Y-118716313D01*
X168528589Y-118670558D01*
X168597747Y-118660614D01*
X168661303Y-118689639D01*
X168667776Y-118695666D01*
X168878014Y-118905905D01*
X169087494Y-119115385D01*
X169120979Y-119176708D01*
X169115995Y-119246400D01*
X169100132Y-119275951D01*
X169005948Y-119405584D01*
X168909444Y-119594985D01*
X168843753Y-119797160D01*
X168810500Y-120007113D01*
X168810500Y-120219686D01*
X168838964Y-120399405D01*
X168843754Y-120429643D01*
X168891909Y-120577849D01*
X168909444Y-120631814D01*
X169005951Y-120821220D01*
X169130890Y-120993186D01*
X169281213Y-121143509D01*
X169453182Y-121268450D01*
X169461946Y-121272916D01*
X169512742Y-121320891D01*
X169529536Y-121388712D01*
X169506998Y-121454847D01*
X169461946Y-121493884D01*
X169453182Y-121498349D01*
X169281213Y-121623290D01*
X169130890Y-121773613D01*
X169005951Y-121945579D01*
X168909444Y-122134985D01*
X168843753Y-122337160D01*
X168810500Y-122547113D01*
X168810500Y-122759686D01*
X168838964Y-122939405D01*
X168843754Y-122969643D01*
X168891904Y-123117834D01*
X168909444Y-123171814D01*
X169005951Y-123361220D01*
X169130890Y-123533186D01*
X169281213Y-123683509D01*
X169453182Y-123808450D01*
X169461946Y-123812916D01*
X169512742Y-123860891D01*
X169529536Y-123928712D01*
X169506998Y-123994847D01*
X169461946Y-124033884D01*
X169453182Y-124038349D01*
X169281213Y-124163290D01*
X169130890Y-124313613D01*
X169005951Y-124485579D01*
X168909444Y-124674985D01*
X168843753Y-124877160D01*
X168810500Y-125087113D01*
X168810500Y-125299686D01*
X168838964Y-125479405D01*
X168843754Y-125509643D01*
X168891904Y-125657834D01*
X168909444Y-125711814D01*
X169005951Y-125901220D01*
X169130890Y-126073186D01*
X169281213Y-126223509D01*
X169453182Y-126348450D01*
X169461946Y-126352916D01*
X169512742Y-126400891D01*
X169529536Y-126468712D01*
X169506998Y-126534847D01*
X169461946Y-126573884D01*
X169453182Y-126578349D01*
X169281213Y-126703290D01*
X169130890Y-126853613D01*
X169005951Y-127025579D01*
X168909444Y-127214985D01*
X168843753Y-127417160D01*
X168810500Y-127627113D01*
X168810500Y-127839686D01*
X168838964Y-128019405D01*
X168843754Y-128049643D01*
X168891904Y-128197834D01*
X168909444Y-128251814D01*
X169005951Y-128441220D01*
X169130890Y-128613186D01*
X169281213Y-128763509D01*
X169453179Y-128888448D01*
X169453181Y-128888449D01*
X169453184Y-128888451D01*
X169642588Y-128984957D01*
X169844757Y-129050646D01*
X170054713Y-129083900D01*
X170054714Y-129083900D01*
X170267286Y-129083900D01*
X170267287Y-129083900D01*
X170477243Y-129050646D01*
X170679412Y-128984957D01*
X170868816Y-128888451D01*
X170912263Y-128856885D01*
X171040786Y-128763509D01*
X171040788Y-128763506D01*
X171040792Y-128763504D01*
X171191104Y-128613192D01*
X171191106Y-128613188D01*
X171191109Y-128613186D01*
X171316048Y-128441220D01*
X171316047Y-128441220D01*
X171316051Y-128441216D01*
X171412557Y-128251812D01*
X171478246Y-128049643D01*
X171511500Y-127839687D01*
X171511500Y-127627113D01*
X171478246Y-127417157D01*
X171412557Y-127214988D01*
X171316051Y-127025584D01*
X171316049Y-127025581D01*
X171316048Y-127025579D01*
X171191109Y-126853613D01*
X171040786Y-126703290D01*
X170868820Y-126578351D01*
X170868115Y-126577991D01*
X170860054Y-126573885D01*
X170809259Y-126525912D01*
X170792463Y-126458092D01*
X170814999Y-126391956D01*
X170860054Y-126352915D01*
X170868816Y-126348451D01*
X170924926Y-126307685D01*
X171040786Y-126223509D01*
X171040788Y-126223506D01*
X171040792Y-126223504D01*
X171191104Y-126073192D01*
X171191106Y-126073188D01*
X171191109Y-126073186D01*
X171316048Y-125901220D01*
X171316047Y-125901220D01*
X171316051Y-125901216D01*
X171412557Y-125711812D01*
X171478246Y-125509643D01*
X171511500Y-125299687D01*
X171511500Y-125087113D01*
X171478246Y-124877157D01*
X171412557Y-124674988D01*
X171316051Y-124485584D01*
X171316049Y-124485581D01*
X171316048Y-124485579D01*
X171191109Y-124313613D01*
X171040786Y-124163290D01*
X170868820Y-124038351D01*
X170868115Y-124037991D01*
X170860054Y-124033885D01*
X170809259Y-123985912D01*
X170792463Y-123918092D01*
X170814999Y-123851956D01*
X170860054Y-123812915D01*
X170868816Y-123808451D01*
X170936946Y-123758952D01*
X171040786Y-123683509D01*
X171040788Y-123683506D01*
X171040792Y-123683504D01*
X171191104Y-123533192D01*
X171191106Y-123533188D01*
X171191109Y-123533186D01*
X171316048Y-123361220D01*
X171316047Y-123361220D01*
X171316051Y-123361216D01*
X171412557Y-123171812D01*
X171478246Y-122969643D01*
X171511500Y-122759687D01*
X171511500Y-122547113D01*
X171478246Y-122337157D01*
X171412557Y-122134988D01*
X171316051Y-121945584D01*
X171316049Y-121945581D01*
X171316048Y-121945579D01*
X171191109Y-121773613D01*
X171040786Y-121623290D01*
X170868820Y-121498351D01*
X170868115Y-121497991D01*
X170860054Y-121493885D01*
X170809259Y-121445912D01*
X170792463Y-121378092D01*
X170814999Y-121311956D01*
X170860054Y-121272915D01*
X170868816Y-121268451D01*
X170908016Y-121239971D01*
X171040786Y-121143509D01*
X171040788Y-121143506D01*
X171040792Y-121143504D01*
X171191104Y-120993192D01*
X171191106Y-120993188D01*
X171191109Y-120993186D01*
X171316048Y-120821220D01*
X171316047Y-120821220D01*
X171316051Y-120821216D01*
X171412557Y-120631812D01*
X171478246Y-120429643D01*
X171511500Y-120219687D01*
X171511500Y-120007113D01*
X171478246Y-119797157D01*
X171412557Y-119594988D01*
X171316051Y-119405584D01*
X171316049Y-119405581D01*
X171316048Y-119405579D01*
X171191109Y-119233613D01*
X171040786Y-119083290D01*
X170868815Y-118958348D01*
X170868812Y-118958346D01*
X170860050Y-118953881D01*
X170809256Y-118905905D01*
X170792463Y-118838083D01*
X170815003Y-118771949D01*
X170860056Y-118732914D01*
X170868816Y-118728451D01*
X171040792Y-118603504D01*
X171191104Y-118453192D01*
X171191106Y-118453188D01*
X171191109Y-118453186D01*
X171316048Y-118281220D01*
X171316047Y-118281220D01*
X171316051Y-118281216D01*
X171412557Y-118091812D01*
X171478246Y-117889643D01*
X171511500Y-117679687D01*
X171511500Y-117467113D01*
X171478246Y-117257157D01*
X171412557Y-117054988D01*
X171316051Y-116865584D01*
X171316049Y-116865581D01*
X171316048Y-116865579D01*
X171191109Y-116693613D01*
X171040786Y-116543290D01*
X170868820Y-116418351D01*
X170868115Y-116417991D01*
X170860054Y-116413885D01*
X170809259Y-116365912D01*
X170792463Y-116298092D01*
X170814999Y-116231956D01*
X170860054Y-116192915D01*
X170868816Y-116188451D01*
X170938394Y-116137900D01*
X171040786Y-116063509D01*
X171040788Y-116063506D01*
X171040792Y-116063504D01*
X171191104Y-115913192D01*
X171191106Y-115913188D01*
X171191109Y-115913186D01*
X171316048Y-115741220D01*
X171316047Y-115741220D01*
X171316051Y-115741216D01*
X171412557Y-115551812D01*
X171478246Y-115349643D01*
X171511500Y-115139687D01*
X171511500Y-114927113D01*
X171478246Y-114717157D01*
X171412557Y-114514988D01*
X171316051Y-114325584D01*
X171316049Y-114325581D01*
X171316048Y-114325579D01*
X171191109Y-114153613D01*
X171040786Y-114003290D01*
X170868820Y-113878351D01*
X170868115Y-113877991D01*
X170860054Y-113873885D01*
X170809259Y-113825912D01*
X170792463Y-113758092D01*
X170814999Y-113691956D01*
X170860054Y-113652915D01*
X170868816Y-113648451D01*
X170920476Y-113610918D01*
X171040786Y-113523509D01*
X171040788Y-113523506D01*
X171040792Y-113523504D01*
X171191104Y-113373192D01*
X171191106Y-113373188D01*
X171191109Y-113373186D01*
X171316048Y-113201220D01*
X171316047Y-113201220D01*
X171316051Y-113201216D01*
X171412557Y-113011812D01*
X171478246Y-112809643D01*
X171511500Y-112599687D01*
X171511500Y-112387113D01*
X171478246Y-112177157D01*
X171412557Y-111974988D01*
X171316051Y-111785584D01*
X171316049Y-111785581D01*
X171316048Y-111785579D01*
X171191109Y-111613613D01*
X171040786Y-111463290D01*
X170868815Y-111338348D01*
X170868812Y-111338346D01*
X170860050Y-111333881D01*
X170809256Y-111285905D01*
X170792463Y-111218083D01*
X170815003Y-111151949D01*
X170860056Y-111112914D01*
X170868816Y-111108451D01*
X171040792Y-110983504D01*
X171191104Y-110833192D01*
X171191106Y-110833188D01*
X171191109Y-110833186D01*
X171316048Y-110661220D01*
X171316047Y-110661220D01*
X171316051Y-110661216D01*
X171412557Y-110471812D01*
X171478246Y-110269643D01*
X171511500Y-110059687D01*
X171511500Y-109847113D01*
X171478246Y-109637157D01*
X171412557Y-109434988D01*
X171412555Y-109434985D01*
X171412555Y-109434983D01*
X171388261Y-109387304D01*
X171383699Y-109363016D01*
X171375061Y-109339857D01*
X171377362Y-109329275D01*
X171375364Y-109318634D01*
X171384658Y-109295732D01*
X171389912Y-109271583D01*
X171399847Y-109258310D01*
X171401640Y-109253894D01*
X171411062Y-109243329D01*
X171479158Y-109175233D01*
X171479160Y-109175229D01*
X171736629Y-108917760D01*
X171736633Y-108917758D01*
X171823758Y-108830633D01*
X171868348Y-108763900D01*
X171892212Y-108728186D01*
X171930332Y-108636154D01*
X171939363Y-108614352D01*
X171951381Y-108553929D01*
X171963400Y-108493507D01*
X171963400Y-108370293D01*
X171963400Y-106330894D01*
X171939363Y-106210048D01*
X171937625Y-106205852D01*
X171922635Y-106169662D01*
X171922631Y-106169656D01*
X171919832Y-106162897D01*
X171892212Y-106096215D01*
X171828682Y-106001137D01*
X171823758Y-105993767D01*
X171823755Y-105993764D01*
X171823753Y-105993761D01*
X171733537Y-105903545D01*
X171733506Y-105903516D01*
X169505050Y-103675060D01*
X169497760Y-103667770D01*
X169497758Y-103667767D01*
X169410633Y-103580642D01*
X169359409Y-103546415D01*
X169308186Y-103512188D01*
X169308183Y-103512186D01*
X169308180Y-103512185D01*
X169234503Y-103481668D01*
X169234501Y-103481667D01*
X169227692Y-103478847D01*
X169194352Y-103465037D01*
X169133929Y-103453018D01*
X169129206Y-103452078D01*
X169129204Y-103452078D01*
X169073510Y-103441000D01*
X169073507Y-103441000D01*
X169073506Y-103441000D01*
X165149507Y-103441000D01*
X165026293Y-103441000D01*
X165026289Y-103441000D01*
X164970597Y-103452078D01*
X164965871Y-103453018D01*
X164922643Y-103461616D01*
X164905446Y-103465037D01*
X164791616Y-103512187D01*
X164791607Y-103512192D01*
X164689168Y-103580640D01*
X164645605Y-103624203D01*
X164602042Y-103667767D01*
X159252081Y-109017728D01*
X159190758Y-109051213D01*
X159121066Y-109046229D01*
X159065133Y-109004357D01*
X159040716Y-108938893D01*
X159040400Y-108930047D01*
X159040400Y-107228361D01*
X159060085Y-107161322D01*
X159076720Y-107140679D01*
X159114361Y-107103038D01*
X159114364Y-107103035D01*
X159212913Y-106955547D01*
X159280794Y-106791666D01*
X159315400Y-106617691D01*
X159315400Y-106440309D01*
X159315400Y-106440306D01*
X159315399Y-106440304D01*
X159280796Y-106266341D01*
X159280793Y-106266332D01*
X159212916Y-106102459D01*
X159212909Y-106102446D01*
X159114364Y-105954965D01*
X159114361Y-105954961D01*
X158988938Y-105829538D01*
X158988934Y-105829535D01*
X158841453Y-105730990D01*
X158841440Y-105730983D01*
X158677567Y-105663106D01*
X158677558Y-105663103D01*
X158503594Y-105628500D01*
X158503591Y-105628500D01*
X158326209Y-105628500D01*
X158326206Y-105628500D01*
X158152241Y-105663103D01*
X158152232Y-105663106D01*
X157988359Y-105730983D01*
X157988346Y-105730990D01*
X157840865Y-105829535D01*
X157840861Y-105829538D01*
X157715438Y-105954961D01*
X157715435Y-105954965D01*
X157616890Y-106102446D01*
X157616883Y-106102459D01*
X157549006Y-106266332D01*
X157549003Y-106266341D01*
X157514400Y-106440304D01*
X157514400Y-106617695D01*
X157549003Y-106791658D01*
X157549006Y-106791667D01*
X157616883Y-106955540D01*
X157616890Y-106955553D01*
X157715435Y-107103034D01*
X157715438Y-107103038D01*
X157753080Y-107140679D01*
X157786566Y-107202001D01*
X157789400Y-107228361D01*
X157789400Y-109220131D01*
X157769715Y-109287170D01*
X157716911Y-109332925D01*
X157647753Y-109342869D01*
X157617949Y-109334693D01*
X157613681Y-109332925D01*
X157557866Y-109309806D01*
X157557862Y-109309805D01*
X157557858Y-109309803D01*
X157383894Y-109275200D01*
X157383891Y-109275200D01*
X157206509Y-109275200D01*
X157206506Y-109275200D01*
X157032541Y-109309803D01*
X157032532Y-109309806D01*
X156868659Y-109377683D01*
X156868646Y-109377690D01*
X156721165Y-109476235D01*
X156721161Y-109476238D01*
X156595738Y-109601661D01*
X156595735Y-109601665D01*
X156497190Y-109749146D01*
X156497183Y-109749159D01*
X156429306Y-109913032D01*
X156429305Y-109913037D01*
X156419799Y-109960824D01*
X156387413Y-110022734D01*
X156326696Y-110057307D01*
X156256927Y-110053566D01*
X156210501Y-110024311D01*
X151781513Y-105595323D01*
X151748028Y-105534000D01*
X151752713Y-105468479D01*
X151752507Y-105468431D01*
X151752808Y-105467155D01*
X151753011Y-105464313D01*
X151754291Y-105460883D01*
X151760700Y-105401273D01*
X151760699Y-104345528D01*
X151754291Y-104285917D01*
X151703996Y-104151069D01*
X151703995Y-104151068D01*
X151703993Y-104151064D01*
X151617747Y-104035855D01*
X151617744Y-104035852D01*
X151502535Y-103949606D01*
X151502528Y-103949602D01*
X151367682Y-103899308D01*
X151367683Y-103899308D01*
X151308083Y-103892901D01*
X151308081Y-103892900D01*
X151308073Y-103892900D01*
X151308064Y-103892900D01*
X150252329Y-103892900D01*
X150252323Y-103892901D01*
X150192716Y-103899308D01*
X150057871Y-103949602D01*
X150057864Y-103949606D01*
X149942655Y-104035852D01*
X149942652Y-104035855D01*
X149856406Y-104151064D01*
X149856402Y-104151071D01*
X149806108Y-104285917D01*
X149799701Y-104345516D01*
X149799701Y-104345523D01*
X149799700Y-104345535D01*
X149799700Y-105401270D01*
X149799701Y-105401276D01*
X149806108Y-105460883D01*
X149856402Y-105595728D01*
X149856406Y-105595735D01*
X149942652Y-105710944D01*
X149942655Y-105710947D01*
X150057864Y-105797193D01*
X150057873Y-105797198D01*
X150118132Y-105819673D01*
X150174066Y-105861544D01*
X150189361Y-105888401D01*
X150225889Y-105976586D01*
X150225892Y-105976592D01*
X150294341Y-106079032D01*
X150294344Y-106079036D01*
X150381463Y-106166155D01*
X150381467Y-106166158D01*
X150483907Y-106234607D01*
X150483911Y-106234609D01*
X150483914Y-106234611D01*
X150497318Y-106240163D01*
X150551722Y-106284002D01*
X150573789Y-106350296D01*
X150556511Y-106417996D01*
X150505375Y-106465608D01*
X150497321Y-106469286D01*
X150315762Y-106544490D01*
X150315752Y-106544495D01*
X150155168Y-106651795D01*
X150155164Y-106651798D01*
X150018598Y-106788364D01*
X150018595Y-106788368D01*
X149911295Y-106948952D01*
X149911288Y-106948965D01*
X149837381Y-107127394D01*
X149837378Y-107127406D01*
X149799700Y-107316824D01*
X149799700Y-107509975D01*
X149837378Y-107699393D01*
X149837381Y-107699405D01*
X149911288Y-107877834D01*
X149911295Y-107877847D01*
X150018595Y-108038431D01*
X150018598Y-108038435D01*
X150155164Y-108175001D01*
X150155168Y-108175004D01*
X150315752Y-108282304D01*
X150315765Y-108282311D01*
X150494194Y-108356218D01*
X150494199Y-108356220D01*
X150683624Y-108393899D01*
X150683627Y-108393900D01*
X150683629Y-108393900D01*
X150876773Y-108393900D01*
X150876774Y-108393899D01*
X151066201Y-108356220D01*
X151244641Y-108282308D01*
X151405232Y-108175004D01*
X151505018Y-108075217D01*
X151531949Y-108060511D01*
X151557763Y-108043923D01*
X151563962Y-108043031D01*
X151566339Y-108041734D01*
X151592698Y-108038900D01*
X151751748Y-108038900D01*
X151818787Y-108058585D01*
X151839429Y-108075219D01*
X152880429Y-109116219D01*
X152913914Y-109177542D01*
X152908930Y-109247234D01*
X152867058Y-109303167D01*
X152801594Y-109327584D01*
X152792748Y-109327900D01*
X151592698Y-109327900D01*
X151525659Y-109308215D01*
X151505021Y-109291585D01*
X151405232Y-109191796D01*
X151405231Y-109191795D01*
X151405230Y-109191794D01*
X151244647Y-109084495D01*
X151244634Y-109084488D01*
X151066205Y-109010581D01*
X151066193Y-109010578D01*
X150876774Y-108972900D01*
X150876771Y-108972900D01*
X150683629Y-108972900D01*
X150683626Y-108972900D01*
X150494206Y-109010578D01*
X150494194Y-109010581D01*
X150315765Y-109084488D01*
X150315752Y-109084495D01*
X150155168Y-109191795D01*
X150155164Y-109191798D01*
X150018598Y-109328364D01*
X150018595Y-109328368D01*
X149911295Y-109488952D01*
X149911288Y-109488965D01*
X149837381Y-109667394D01*
X149837378Y-109667406D01*
X149799700Y-109856824D01*
X149799700Y-110049975D01*
X149837378Y-110239393D01*
X149837381Y-110239405D01*
X149911288Y-110417834D01*
X149911295Y-110417847D01*
X150018595Y-110578431D01*
X150018598Y-110578435D01*
X150155164Y-110715001D01*
X150155168Y-110715004D01*
X150315752Y-110822304D01*
X150315765Y-110822311D01*
X150494194Y-110896218D01*
X150494199Y-110896220D01*
X150671367Y-110931461D01*
X150683624Y-110933899D01*
X150683627Y-110933900D01*
X150683629Y-110933900D01*
X150876773Y-110933900D01*
X150876774Y-110933899D01*
X151066201Y-110896220D01*
X151218379Y-110833186D01*
X151244634Y-110822311D01*
X151244634Y-110822310D01*
X151244641Y-110822308D01*
X151405232Y-110715004D01*
X151505018Y-110615217D01*
X151566339Y-110581734D01*
X151592698Y-110578900D01*
X153626848Y-110578900D01*
X153693887Y-110598585D01*
X153714529Y-110615219D01*
X154264130Y-111164820D01*
X154297615Y-111226143D01*
X154292631Y-111295835D01*
X154291010Y-111299953D01*
X154239314Y-111424760D01*
X154239313Y-111424764D01*
X154224500Y-111537272D01*
X154224500Y-111743900D01*
X154204815Y-111810939D01*
X154152011Y-111856694D01*
X154100500Y-111867900D01*
X151592698Y-111867900D01*
X151525659Y-111848215D01*
X151505021Y-111831585D01*
X151405232Y-111731796D01*
X151405231Y-111731795D01*
X151405230Y-111731794D01*
X151244647Y-111624495D01*
X151244634Y-111624488D01*
X151066205Y-111550581D01*
X151066193Y-111550578D01*
X150876774Y-111512900D01*
X150876771Y-111512900D01*
X150683629Y-111512900D01*
X150683626Y-111512900D01*
X150494206Y-111550578D01*
X150494194Y-111550581D01*
X150315765Y-111624488D01*
X150315752Y-111624495D01*
X150155168Y-111731795D01*
X150155164Y-111731798D01*
X150018598Y-111868364D01*
X150018595Y-111868368D01*
X149911295Y-112028952D01*
X149911288Y-112028965D01*
X149837381Y-112207394D01*
X149837378Y-112207406D01*
X149799700Y-112396824D01*
X149799700Y-112589975D01*
X149837378Y-112779393D01*
X149837381Y-112779405D01*
X149911288Y-112957834D01*
X149911295Y-112957847D01*
X150018595Y-113118431D01*
X150018598Y-113118435D01*
X150155164Y-113255001D01*
X150155168Y-113255004D01*
X150315752Y-113362304D01*
X150315756Y-113362306D01*
X150315759Y-113362308D01*
X150338586Y-113371763D01*
X150364949Y-113393007D01*
X150391709Y-113413791D01*
X150392093Y-113414879D01*
X150392991Y-113415603D01*
X150403682Y-113447725D01*
X150414958Y-113479679D01*
X150414692Y-113480802D01*
X150415057Y-113481897D01*
X150406679Y-113514721D01*
X150398894Y-113547678D01*
X150398064Y-113548478D01*
X150397779Y-113549596D01*
X150372991Y-113572675D01*
X150348618Y-113596197D01*
X150347186Y-113596702D01*
X150346643Y-113597208D01*
X150315336Y-113607941D01*
X150309942Y-113609014D01*
X150300371Y-113610918D01*
X150239948Y-113622937D01*
X150239943Y-113622938D01*
X150216954Y-113632461D01*
X150192797Y-113642467D01*
X150178358Y-113648448D01*
X150126113Y-113670088D01*
X150115957Y-113676875D01*
X150115849Y-113676947D01*
X150023668Y-113738540D01*
X149998809Y-113763400D01*
X149936542Y-113825667D01*
X149486343Y-114275865D01*
X149486342Y-114275867D01*
X149484529Y-114278581D01*
X149479567Y-114286007D01*
X149417888Y-114378314D01*
X149395677Y-114431937D01*
X149392707Y-114439105D01*
X149392704Y-114439112D01*
X149370738Y-114492144D01*
X149370735Y-114492156D01*
X149346700Y-114612989D01*
X149059900Y-114612989D01*
X149059900Y-102624500D01*
X149079585Y-102557461D01*
X149132389Y-102511706D01*
X149183900Y-102500500D01*
X173354825Y-102500500D01*
X173421864Y-102520185D01*
G37*
%TD.AperFunction*%
%TA.AperFunction,NonConductor*%
G36*
X168768487Y-104711685D02*
G01*
X168789129Y-104728319D01*
X169912029Y-105851219D01*
X169945514Y-105912542D01*
X169940530Y-105982234D01*
X169898658Y-106038167D01*
X169833194Y-106062584D01*
X169824348Y-106062900D01*
X169263129Y-106062900D01*
X169263123Y-106062901D01*
X169203516Y-106069308D01*
X169068671Y-106119602D01*
X169068664Y-106119606D01*
X168953455Y-106205852D01*
X168914070Y-106258464D01*
X168858136Y-106300334D01*
X168788444Y-106305318D01*
X168727123Y-106271833D01*
X167762222Y-105306932D01*
X167752259Y-105296969D01*
X167752258Y-105296967D01*
X167665133Y-105209842D01*
X167613909Y-105175615D01*
X167562686Y-105141388D01*
X167562683Y-105141386D01*
X167562680Y-105141385D01*
X167489559Y-105111098D01*
X167489555Y-105111097D01*
X167482192Y-105108047D01*
X167448852Y-105094237D01*
X167371429Y-105078837D01*
X167367298Y-105078015D01*
X167367297Y-105078015D01*
X167328008Y-105070200D01*
X167328007Y-105070200D01*
X167328006Y-105070200D01*
X167124700Y-105070200D01*
X167116014Y-105067649D01*
X167107054Y-105068938D01*
X167083012Y-105057959D01*
X167057661Y-105050515D01*
X167051734Y-105043675D01*
X167043498Y-105039914D01*
X167029207Y-105017678D01*
X167011906Y-104997711D01*
X167009618Y-104987198D01*
X167005723Y-104981136D01*
X167000700Y-104946201D01*
X167000699Y-104816001D01*
X167020383Y-104748961D01*
X167073187Y-104703206D01*
X167124699Y-104692000D01*
X168701448Y-104692000D01*
X168768487Y-104711685D01*
G37*
%TD.AperFunction*%
%TA.AperFunction,NonConductor*%
G36*
X165274741Y-110598585D02*
G01*
X165295378Y-110615214D01*
X165395165Y-110715001D01*
X165395169Y-110715005D01*
X165554396Y-110821398D01*
X165599201Y-110875010D01*
X165607908Y-110944335D01*
X165577753Y-111007363D01*
X165518310Y-111044082D01*
X165485505Y-111048500D01*
X163406552Y-111048500D01*
X163339513Y-111028815D01*
X163293758Y-110976011D01*
X163283814Y-110906853D01*
X163312839Y-110843297D01*
X163318871Y-110836819D01*
X163540471Y-110615219D01*
X163601794Y-110581734D01*
X163628152Y-110578900D01*
X165207702Y-110578900D01*
X165274741Y-110598585D01*
G37*
%TD.AperFunction*%
%TA.AperFunction,NonConductor*%
G36*
X169170814Y-113463336D02*
G01*
X169184147Y-113461420D01*
X169204290Y-113470619D01*
X169225927Y-113475326D01*
X169243652Y-113488594D01*
X169247703Y-113490445D01*
X169254181Y-113496477D01*
X169281213Y-113523509D01*
X169453182Y-113648450D01*
X169461946Y-113652916D01*
X169512742Y-113700891D01*
X169529536Y-113768712D01*
X169506998Y-113834847D01*
X169461946Y-113873884D01*
X169453182Y-113878349D01*
X169281213Y-114003290D01*
X169281209Y-114003294D01*
X169254181Y-114030323D01*
X169192858Y-114063808D01*
X169123166Y-114058824D01*
X169067233Y-114016952D01*
X169042816Y-113951488D01*
X169042500Y-113942642D01*
X169042500Y-113584158D01*
X169048738Y-113562912D01*
X169050318Y-113540824D01*
X169058390Y-113530040D01*
X169062185Y-113517119D01*
X169078918Y-113502619D01*
X169092190Y-113484891D01*
X169104810Y-113480183D01*
X169114989Y-113471364D01*
X169136906Y-113468212D01*
X169157654Y-113460474D01*
X169170814Y-113463336D01*
G37*
%TD.AperFunction*%
%TA.AperFunction,NonConductor*%
G36*
X159157599Y-113562786D02*
G01*
X159217258Y-113599153D01*
X159247784Y-113662002D01*
X159249500Y-113682559D01*
X159249500Y-115260448D01*
X159240855Y-115289888D01*
X159234332Y-115319875D01*
X159230577Y-115324890D01*
X159229815Y-115327487D01*
X159213181Y-115348129D01*
X159212181Y-115349129D01*
X159150858Y-115382614D01*
X159081166Y-115377630D01*
X159025233Y-115335758D01*
X159000816Y-115270294D01*
X159000500Y-115261448D01*
X159000500Y-113682559D01*
X159020185Y-113615520D01*
X159072989Y-113569765D01*
X159092401Y-113562786D01*
X159092901Y-113562652D01*
X159157099Y-113562652D01*
X159157599Y-113562786D01*
G37*
%TD.AperFunction*%
%TA.AperFunction,NonConductor*%
G36*
X166905006Y-108017743D02*
G01*
X166949354Y-108046244D01*
X167755181Y-108852071D01*
X167788666Y-108913394D01*
X167791500Y-108939752D01*
X167791500Y-115620748D01*
X167771815Y-115687787D01*
X167719011Y-115733542D01*
X167649853Y-115743486D01*
X167586297Y-115714461D01*
X167579819Y-115708429D01*
X167037019Y-115165629D01*
X167003534Y-115104306D01*
X167000700Y-115077948D01*
X167000700Y-114936826D01*
X167000699Y-114936824D01*
X166963021Y-114747406D01*
X166963020Y-114747399D01*
X166950495Y-114717160D01*
X166889111Y-114568965D01*
X166889104Y-114568952D01*
X166781804Y-114408368D01*
X166781801Y-114408364D01*
X166645235Y-114271798D01*
X166645230Y-114271794D01*
X166621755Y-114256109D01*
X166576949Y-114202497D01*
X166568240Y-114133172D01*
X166598394Y-114070145D01*
X166602944Y-114065344D01*
X167247829Y-113420460D01*
X167247833Y-113420458D01*
X167334958Y-113333333D01*
X167387296Y-113255004D01*
X167403412Y-113230885D01*
X167431032Y-113164203D01*
X167434754Y-113155219D01*
X167441644Y-113138585D01*
X167450563Y-113117052D01*
X167474600Y-112996206D01*
X167474600Y-112115294D01*
X167450563Y-111994448D01*
X167432323Y-111950412D01*
X167403412Y-111880614D01*
X167355582Y-111809033D01*
X167334958Y-111778167D01*
X167334955Y-111778163D01*
X167244737Y-111687945D01*
X167244706Y-111687916D01*
X166839821Y-111283031D01*
X166832060Y-111275270D01*
X166832058Y-111275267D01*
X166744933Y-111188142D01*
X166677224Y-111142900D01*
X166642486Y-111119688D01*
X166642487Y-111119688D01*
X166642485Y-111119687D01*
X166589041Y-111097550D01*
X166561992Y-111086347D01*
X166528652Y-111072537D01*
X166485840Y-111064021D01*
X166480100Y-111062290D01*
X166455669Y-111046334D01*
X166429806Y-111032806D01*
X166426757Y-111027452D01*
X166421601Y-111024085D01*
X166409673Y-110997451D01*
X166395232Y-110972090D01*
X166395561Y-110965938D01*
X166393044Y-110960317D01*
X166397409Y-110931461D01*
X166398971Y-110902321D01*
X166402573Y-110897325D01*
X166403495Y-110891234D01*
X166422769Y-110869317D01*
X166439837Y-110845649D01*
X166447506Y-110841190D01*
X166449637Y-110838768D01*
X166453641Y-110837623D01*
X166468458Y-110829011D01*
X166484641Y-110822308D01*
X166645232Y-110715004D01*
X166781804Y-110578432D01*
X166889108Y-110417841D01*
X166963020Y-110239401D01*
X167000700Y-110049971D01*
X167000700Y-109856829D01*
X167000700Y-109856826D01*
X167000699Y-109856824D01*
X166979282Y-109749153D01*
X166963020Y-109667399D01*
X166950495Y-109637160D01*
X166889111Y-109488965D01*
X166889104Y-109488952D01*
X166781804Y-109328368D01*
X166781801Y-109328364D01*
X166645235Y-109191798D01*
X166645231Y-109191795D01*
X166484647Y-109084495D01*
X166484634Y-109084488D01*
X166306205Y-109010581D01*
X166306193Y-109010578D01*
X166116774Y-108972900D01*
X166116771Y-108972900D01*
X165923629Y-108972900D01*
X165923626Y-108972900D01*
X165734206Y-109010578D01*
X165734194Y-109010581D01*
X165555765Y-109084488D01*
X165555752Y-109084495D01*
X165395169Y-109191794D01*
X165366833Y-109220131D01*
X165295381Y-109291582D01*
X165234061Y-109325066D01*
X165207702Y-109327900D01*
X164473153Y-109327900D01*
X164406114Y-109308215D01*
X164360359Y-109255411D01*
X164350415Y-109186253D01*
X164379440Y-109122697D01*
X164385472Y-109116219D01*
X164588297Y-108913394D01*
X165282159Y-108219530D01*
X165343480Y-108186047D01*
X165413171Y-108191031D01*
X165438729Y-108204111D01*
X165555752Y-108282304D01*
X165555765Y-108282311D01*
X165734194Y-108356218D01*
X165734199Y-108356220D01*
X165923624Y-108393899D01*
X165923627Y-108393900D01*
X165923629Y-108393900D01*
X166116773Y-108393900D01*
X166116774Y-108393899D01*
X166306201Y-108356220D01*
X166484641Y-108282308D01*
X166645232Y-108175004D01*
X166773993Y-108046242D01*
X166835314Y-108012759D01*
X166905006Y-108017743D01*
G37*
%TD.AperFunction*%
%TA.AperFunction,NonConductor*%
G36*
X157657599Y-113562786D02*
G01*
X157717258Y-113599153D01*
X157747784Y-113662002D01*
X157749500Y-113682559D01*
X157749500Y-115761510D01*
X157744169Y-115779664D01*
X157743828Y-115798585D01*
X157730339Y-115826763D01*
X157729815Y-115828549D01*
X157728589Y-115830420D01*
X157727589Y-115831916D01*
X157673969Y-115876711D01*
X157604642Y-115885406D01*
X157541620Y-115855239D01*
X157504912Y-115795789D01*
X157500500Y-115763006D01*
X157500500Y-113682559D01*
X157520185Y-113615520D01*
X157572989Y-113569765D01*
X157592401Y-113562786D01*
X157592901Y-113562652D01*
X157657099Y-113562652D01*
X157657599Y-113562786D01*
G37*
%TD.AperFunction*%
%TA.AperFunction,NonConductor*%
G36*
X169247703Y-116030445D02*
G01*
X169254181Y-116036477D01*
X169281213Y-116063509D01*
X169453182Y-116188450D01*
X169461946Y-116192916D01*
X169512742Y-116240891D01*
X169529536Y-116308712D01*
X169506998Y-116374847D01*
X169461946Y-116413884D01*
X169453182Y-116418349D01*
X169281213Y-116543290D01*
X169281209Y-116543294D01*
X169254181Y-116570323D01*
X169192858Y-116603808D01*
X169123166Y-116598824D01*
X169067233Y-116556952D01*
X169042816Y-116491488D01*
X169042500Y-116482642D01*
X169042500Y-116124158D01*
X169062185Y-116057119D01*
X169114989Y-116011364D01*
X169184147Y-116001420D01*
X169247703Y-116030445D01*
G37*
%TD.AperFunction*%
%TA.AperFunction,NonConductor*%
G36*
X166131787Y-116033585D02*
G01*
X166152429Y-116050219D01*
X166593630Y-116491420D01*
X166627115Y-116552743D01*
X166622131Y-116622435D01*
X166580259Y-116678368D01*
X166514795Y-116702785D01*
X166458497Y-116693662D01*
X166306205Y-116630581D01*
X166306193Y-116630578D01*
X166116774Y-116592900D01*
X166116771Y-116592900D01*
X165956800Y-116592900D01*
X165889761Y-116573215D01*
X165844006Y-116520411D01*
X165832800Y-116468900D01*
X165832800Y-116137900D01*
X165835350Y-116129214D01*
X165834062Y-116120253D01*
X165845040Y-116096212D01*
X165852485Y-116070861D01*
X165859325Y-116064933D01*
X165863087Y-116056697D01*
X165885321Y-116042407D01*
X165905289Y-116025106D01*
X165915803Y-116022818D01*
X165921865Y-116018923D01*
X165956800Y-116013900D01*
X166064748Y-116013900D01*
X166131787Y-116033585D01*
G37*
%TD.AperFunction*%
%TA.AperFunction,NonConductor*%
G36*
X150891787Y-116033585D02*
G01*
X150912429Y-116050219D01*
X151353630Y-116491420D01*
X151387115Y-116552743D01*
X151382131Y-116622435D01*
X151340259Y-116678368D01*
X151274795Y-116702785D01*
X151218497Y-116693662D01*
X151066205Y-116630581D01*
X151066193Y-116630578D01*
X150876774Y-116592900D01*
X150876771Y-116592900D01*
X150721700Y-116592900D01*
X150654661Y-116573215D01*
X150608906Y-116520411D01*
X150597700Y-116468900D01*
X150597700Y-116137900D01*
X150600250Y-116129214D01*
X150598962Y-116120253D01*
X150609940Y-116096212D01*
X150617385Y-116070861D01*
X150624225Y-116064933D01*
X150627987Y-116056697D01*
X150650221Y-116042407D01*
X150670189Y-116025106D01*
X150680703Y-116022818D01*
X150686765Y-116018923D01*
X150721700Y-116013900D01*
X150824748Y-116013900D01*
X150891787Y-116033585D01*
G37*
%TD.AperFunction*%
%TA.AperFunction,NonConductor*%
G36*
X154210518Y-113138585D02*
G01*
X154256273Y-113191389D01*
X154258040Y-113195447D01*
X154282709Y-113255004D01*
X154297302Y-113290233D01*
X154389549Y-113410451D01*
X154509767Y-113502698D01*
X154649764Y-113560687D01*
X154754145Y-113574429D01*
X154762264Y-113575498D01*
X154762280Y-113575500D01*
X154762287Y-113575500D01*
X154987713Y-113575500D01*
X154987720Y-113575500D01*
X155100236Y-113560687D01*
X155100236Y-113560686D01*
X155108295Y-113559626D01*
X155108698Y-113562689D01*
X155141302Y-113562689D01*
X155141705Y-113559626D01*
X155149763Y-113560686D01*
X155149764Y-113560687D01*
X155262280Y-113575500D01*
X155262287Y-113575500D01*
X155487713Y-113575500D01*
X155487720Y-113575500D01*
X155600236Y-113560687D01*
X155600236Y-113560686D01*
X155608295Y-113559626D01*
X155608698Y-113562689D01*
X155641302Y-113562689D01*
X155641705Y-113559626D01*
X155649763Y-113560686D01*
X155649764Y-113560687D01*
X155762280Y-113575500D01*
X155762287Y-113575500D01*
X155987713Y-113575500D01*
X155987720Y-113575500D01*
X156100236Y-113560687D01*
X156100236Y-113560686D01*
X156108295Y-113559626D01*
X156108697Y-113562679D01*
X156108852Y-113562679D01*
X156122055Y-113558460D01*
X156157099Y-113562652D01*
X156157599Y-113562786D01*
X156217258Y-113599153D01*
X156247784Y-113662002D01*
X156249500Y-113682559D01*
X156249500Y-118143548D01*
X156229815Y-118210587D01*
X156177011Y-118256342D01*
X156107853Y-118266286D01*
X156044297Y-118237261D01*
X156037819Y-118231229D01*
X151636598Y-113830008D01*
X151636578Y-113829986D01*
X151545133Y-113738541D01*
X151499725Y-113708201D01*
X151499724Y-113708200D01*
X151493909Y-113704315D01*
X151442686Y-113670088D01*
X151362192Y-113636747D01*
X151346857Y-113630395D01*
X151328853Y-113622937D01*
X151318827Y-113620943D01*
X151268429Y-113610918D01*
X151268424Y-113610917D01*
X151247797Y-113606814D01*
X151185886Y-113574429D01*
X151151312Y-113513713D01*
X151155051Y-113443944D01*
X151195918Y-113387272D01*
X151224535Y-113370636D01*
X151244641Y-113362308D01*
X151405232Y-113255004D01*
X151505018Y-113155217D01*
X151566339Y-113121734D01*
X151592698Y-113118900D01*
X154143479Y-113118900D01*
X154210518Y-113138585D01*
G37*
%TD.AperFunction*%
%TA.AperFunction,NonConductor*%
G36*
X164924385Y-112302050D02*
G01*
X164933347Y-112300762D01*
X164957387Y-112311740D01*
X164982739Y-112319185D01*
X164988666Y-112326025D01*
X164996903Y-112329787D01*
X165011192Y-112352021D01*
X165028494Y-112371989D01*
X165030781Y-112382503D01*
X165034677Y-112388565D01*
X165039700Y-112423500D01*
X165039700Y-112589975D01*
X165077378Y-112779393D01*
X165077381Y-112779405D01*
X165104201Y-112844154D01*
X165111670Y-112913623D01*
X165080395Y-112976102D01*
X165077321Y-112979287D01*
X159188435Y-118868173D01*
X159181865Y-118871760D01*
X159177531Y-118877864D01*
X159151618Y-118888276D01*
X159127112Y-118901658D01*
X159119645Y-118901124D01*
X159112700Y-118903915D01*
X159085274Y-118898666D01*
X159057420Y-118896674D01*
X159049721Y-118891861D01*
X159044076Y-118890781D01*
X159020563Y-118873634D01*
X159015300Y-118870345D01*
X159014156Y-118869257D01*
X158949035Y-118804136D01*
X158937763Y-118796604D01*
X158930046Y-118789265D01*
X158917656Y-118767869D01*
X158901801Y-118748895D01*
X158899068Y-118735770D01*
X158895033Y-118728801D01*
X158895503Y-118718644D01*
X158891500Y-118699412D01*
X158891500Y-117477500D01*
X158911185Y-117410461D01*
X158963989Y-117364706D01*
X159015500Y-117353500D01*
X159081593Y-117353500D01*
X159081594Y-117353499D01*
X159139582Y-117341964D01*
X159255558Y-117318896D01*
X159255561Y-117318894D01*
X159255566Y-117318894D01*
X159419447Y-117251013D01*
X159566935Y-117152464D01*
X159692364Y-117027035D01*
X159790913Y-116879547D01*
X159858794Y-116715666D01*
X159861357Y-116702785D01*
X159890364Y-116556952D01*
X159893400Y-116541691D01*
X159893400Y-116488451D01*
X159913085Y-116421412D01*
X159929715Y-116400774D01*
X160273729Y-116056760D01*
X160273733Y-116056758D01*
X160360858Y-115969633D01*
X160429311Y-115867186D01*
X160429312Y-115867185D01*
X160465665Y-115779420D01*
X160476463Y-115753352D01*
X160485398Y-115708429D01*
X160495344Y-115658431D01*
X160495344Y-115658425D01*
X160500500Y-115632509D01*
X160500500Y-114366262D01*
X160520185Y-114299223D01*
X160572989Y-114253468D01*
X160642147Y-114243524D01*
X160705703Y-114272549D01*
X160712181Y-114278581D01*
X160814661Y-114381061D01*
X160814665Y-114381064D01*
X160962146Y-114479609D01*
X160962159Y-114479616D01*
X161085063Y-114530523D01*
X161126034Y-114547494D01*
X161126036Y-114547494D01*
X161126041Y-114547496D01*
X161300004Y-114582099D01*
X161300007Y-114582100D01*
X161300009Y-114582100D01*
X161477393Y-114582100D01*
X161477394Y-114582099D01*
X161543490Y-114568952D01*
X161651358Y-114547496D01*
X161651361Y-114547494D01*
X161651366Y-114547494D01*
X161815247Y-114479613D01*
X161962735Y-114381064D01*
X162088164Y-114255635D01*
X162186713Y-114108147D01*
X162254594Y-113944266D01*
X162267706Y-113878351D01*
X162289199Y-113770295D01*
X162289200Y-113770293D01*
X162289200Y-113699500D01*
X162308885Y-113632461D01*
X162361689Y-113586706D01*
X162413200Y-113575500D01*
X162487713Y-113575500D01*
X162487720Y-113575500D01*
X162600236Y-113560687D01*
X162740233Y-113502698D01*
X162860451Y-113410451D01*
X162952698Y-113290233D01*
X163010687Y-113150236D01*
X163025500Y-113037720D01*
X163025500Y-112572952D01*
X163045185Y-112505913D01*
X163061819Y-112485271D01*
X163211271Y-112335819D01*
X163272594Y-112302334D01*
X163298952Y-112299500D01*
X164915700Y-112299500D01*
X164924385Y-112302050D01*
G37*
%TD.AperFunction*%
%TA.AperFunction,NonConductor*%
G36*
X150891787Y-118573585D02*
G01*
X150912429Y-118590219D01*
X151353630Y-119031420D01*
X151387115Y-119092743D01*
X151382131Y-119162435D01*
X151340259Y-119218368D01*
X151274795Y-119242785D01*
X151218497Y-119233662D01*
X151066205Y-119170581D01*
X151066193Y-119170578D01*
X150876774Y-119132900D01*
X150876771Y-119132900D01*
X150735653Y-119132900D01*
X150706208Y-119124254D01*
X150676222Y-119117730D01*
X150671209Y-119113977D01*
X150668614Y-119113215D01*
X150647969Y-119096578D01*
X150634016Y-119082624D01*
X150600533Y-119021300D01*
X150597700Y-118994946D01*
X150597700Y-118677900D01*
X150617385Y-118610861D01*
X150670189Y-118565106D01*
X150721700Y-118553900D01*
X150824748Y-118553900D01*
X150891787Y-118573585D01*
G37*
%TD.AperFunction*%
%TA.AperFunction,NonConductor*%
G36*
X167133619Y-117784981D02*
G01*
X167186011Y-117831207D01*
X167205100Y-117897310D01*
X167205100Y-119789490D01*
X167185415Y-119856529D01*
X167132611Y-119902284D01*
X167063453Y-119912228D01*
X166999897Y-119883203D01*
X166966912Y-119832379D01*
X166965351Y-119833026D01*
X166889109Y-119648961D01*
X166889104Y-119648952D01*
X166781804Y-119488368D01*
X166781801Y-119488364D01*
X166645235Y-119351798D01*
X166645231Y-119351795D01*
X166484647Y-119244495D01*
X166484634Y-119244488D01*
X166306205Y-119170581D01*
X166306193Y-119170578D01*
X166116774Y-119132900D01*
X166116771Y-119132900D01*
X165975652Y-119132900D01*
X165946211Y-119124255D01*
X165916225Y-119117732D01*
X165911209Y-119113977D01*
X165908613Y-119113215D01*
X165887971Y-119096581D01*
X165869119Y-119077729D01*
X165835634Y-119016406D01*
X165832800Y-118990048D01*
X165832800Y-118677900D01*
X165852485Y-118610861D01*
X165905289Y-118565106D01*
X165956800Y-118553900D01*
X166116773Y-118553900D01*
X166116774Y-118553899D01*
X166306201Y-118516220D01*
X166484641Y-118442308D01*
X166645232Y-118335004D01*
X166781804Y-118198432D01*
X166889108Y-118037841D01*
X166947318Y-117897310D01*
X166965351Y-117853774D01*
X166966946Y-117854435D01*
X167000739Y-117802874D01*
X167064552Y-117774419D01*
X167133619Y-117784981D01*
G37*
%TD.AperFunction*%
%TA.AperFunction,NonConductor*%
G36*
X151813657Y-116969996D02*
G01*
X151862179Y-116999969D01*
X154213181Y-119350971D01*
X154246666Y-119412294D01*
X154249500Y-119438652D01*
X154249500Y-119858747D01*
X154229815Y-119925786D01*
X154177011Y-119971541D01*
X154107853Y-119981485D01*
X154044297Y-119952460D01*
X154037819Y-119946428D01*
X151797019Y-117705628D01*
X151763534Y-117644305D01*
X151760700Y-117617947D01*
X151760700Y-117476826D01*
X151760699Y-117476824D01*
X151758767Y-117467113D01*
X151723020Y-117287399D01*
X151659936Y-117135102D01*
X151652468Y-117065633D01*
X151683743Y-117003154D01*
X151743832Y-116967502D01*
X151813657Y-116969996D01*
G37*
%TD.AperFunction*%
%TA.AperFunction,NonConductor*%
G36*
X167133619Y-120324981D02*
G01*
X167186011Y-120371207D01*
X167205100Y-120437310D01*
X167205100Y-120821946D01*
X167185415Y-120888985D01*
X167132611Y-120934740D01*
X167063453Y-120944684D01*
X167007973Y-120922088D01*
X167000210Y-120916419D01*
X166987933Y-120904142D01*
X166936709Y-120869915D01*
X166885486Y-120835688D01*
X166885482Y-120835686D01*
X166881863Y-120833752D01*
X166832019Y-120784789D01*
X166816559Y-120716651D01*
X166837216Y-120655502D01*
X166840589Y-120650455D01*
X166862376Y-120617846D01*
X166889103Y-120577849D01*
X166889104Y-120577846D01*
X166889108Y-120577841D01*
X166947318Y-120437310D01*
X166965351Y-120393774D01*
X166966946Y-120394435D01*
X167000739Y-120342874D01*
X167064552Y-120314419D01*
X167133619Y-120324981D01*
G37*
%TD.AperFunction*%
%TA.AperFunction,NonConductor*%
G36*
X164501134Y-115427169D02*
G01*
X164557067Y-115469041D01*
X164581484Y-115534505D01*
X164581800Y-115543351D01*
X164581800Y-119362109D01*
X164582446Y-119365361D01*
X164582458Y-119365413D01*
X164582775Y-119367007D01*
X164605837Y-119482952D01*
X164609093Y-119490812D01*
X164652988Y-119596786D01*
X164652989Y-119596787D01*
X164681519Y-119639484D01*
X164681520Y-119639486D01*
X164721441Y-119699232D01*
X164721444Y-119699236D01*
X164812886Y-119790678D01*
X164812908Y-119790698D01*
X165003381Y-119981171D01*
X165036866Y-120042494D01*
X165039700Y-120068852D01*
X165039700Y-120209975D01*
X165077378Y-120399393D01*
X165077381Y-120399405D01*
X165151291Y-120577840D01*
X165153542Y-120582052D01*
X165167781Y-120650455D01*
X165142778Y-120715698D01*
X165086471Y-120757066D01*
X165044181Y-120764500D01*
X162051989Y-120764500D01*
X161991571Y-120776518D01*
X161949990Y-120784789D01*
X161931146Y-120788537D01*
X161817316Y-120835687D01*
X161817307Y-120835692D01*
X161714868Y-120904140D01*
X161684269Y-120934740D01*
X161627742Y-120991267D01*
X161627739Y-120991270D01*
X158976270Y-123642739D01*
X158976267Y-123642742D01*
X158949552Y-123669457D01*
X158889142Y-123729866D01*
X158869708Y-123758952D01*
X158820689Y-123832312D01*
X158820685Y-123832319D01*
X158796822Y-123889932D01*
X158773538Y-123946144D01*
X158773535Y-123946154D01*
X158767388Y-123977057D01*
X158767389Y-123977058D01*
X158751805Y-124055402D01*
X158751804Y-124055407D01*
X158749556Y-124066714D01*
X158749500Y-124066994D01*
X158749500Y-124268137D01*
X158749493Y-124268784D01*
X158739461Y-124301626D01*
X158729815Y-124334479D01*
X158729287Y-124334935D01*
X158729083Y-124335606D01*
X158702879Y-124357818D01*
X158677011Y-124380234D01*
X158676015Y-124380591D01*
X158675786Y-124380786D01*
X158675291Y-124380851D01*
X158657539Y-124387229D01*
X158657038Y-124387363D01*
X158626160Y-124387372D01*
X158608376Y-124389733D01*
X158608292Y-124390374D01*
X158600237Y-124389313D01*
X158600236Y-124389313D01*
X158571271Y-124385499D01*
X158487727Y-124374500D01*
X158487720Y-124374500D01*
X158262280Y-124374500D01*
X158262272Y-124374500D01*
X158175393Y-124385938D01*
X158149764Y-124389313D01*
X158149762Y-124389313D01*
X158141708Y-124390374D01*
X158141316Y-124387399D01*
X158108684Y-124387399D01*
X158108292Y-124390374D01*
X158100237Y-124389313D01*
X158100236Y-124389313D01*
X158071271Y-124385499D01*
X157987727Y-124374500D01*
X157987720Y-124374500D01*
X157762280Y-124374500D01*
X157762272Y-124374500D01*
X157675393Y-124385938D01*
X157649764Y-124389313D01*
X157649762Y-124389313D01*
X157641708Y-124390374D01*
X157641316Y-124387399D01*
X157608684Y-124387399D01*
X157608292Y-124390374D01*
X157600237Y-124389313D01*
X157600236Y-124389313D01*
X157571271Y-124385499D01*
X157487727Y-124374500D01*
X157487720Y-124374500D01*
X157262280Y-124374500D01*
X157262272Y-124374500D01*
X157175393Y-124385938D01*
X157149764Y-124389313D01*
X157149762Y-124389313D01*
X157141708Y-124390374D01*
X157141316Y-124387399D01*
X157108684Y-124387399D01*
X157108292Y-124390374D01*
X157100237Y-124389313D01*
X157100236Y-124389313D01*
X157071271Y-124385499D01*
X156987727Y-124374500D01*
X156987720Y-124374500D01*
X156762280Y-124374500D01*
X156762272Y-124374500D01*
X156675393Y-124385938D01*
X156649764Y-124389313D01*
X156649762Y-124389313D01*
X156641708Y-124390374D01*
X156641314Y-124387386D01*
X156640938Y-124387386D01*
X156627945Y-124391539D01*
X156592901Y-124387347D01*
X156592401Y-124387213D01*
X156532742Y-124350846D01*
X156502216Y-124287997D01*
X156500500Y-124267440D01*
X156500500Y-119848352D01*
X156520185Y-119781313D01*
X156572989Y-119735558D01*
X156642147Y-119725614D01*
X156705703Y-119754639D01*
X156712181Y-119760671D01*
X157682063Y-120730555D01*
X157682067Y-120730558D01*
X157784510Y-120799009D01*
X157784511Y-120799009D01*
X157784515Y-120799012D01*
X157838121Y-120821216D01*
X157898348Y-120846163D01*
X158010542Y-120868479D01*
X158019189Y-120870199D01*
X158019193Y-120870200D01*
X158019194Y-120870200D01*
X158758107Y-120870200D01*
X158818529Y-120858181D01*
X158878952Y-120846163D01*
X158912292Y-120832352D01*
X158992786Y-120799012D01*
X159044435Y-120764500D01*
X159095233Y-120730558D01*
X159182358Y-120643433D01*
X159182359Y-120643431D01*
X159189425Y-120636365D01*
X159189427Y-120636361D01*
X164370121Y-115455668D01*
X164431442Y-115422185D01*
X164501134Y-115427169D01*
G37*
%TD.AperFunction*%
%TA.AperFunction,NonConductor*%
G36*
X165237141Y-123287544D02*
G01*
X165267129Y-123294068D01*
X165272144Y-123297822D01*
X165274741Y-123298585D01*
X165295378Y-123315214D01*
X165346136Y-123365972D01*
X165395169Y-123415005D01*
X165555752Y-123522304D01*
X165555765Y-123522311D01*
X165694545Y-123579795D01*
X165734199Y-123596220D01*
X165923624Y-123633899D01*
X165923627Y-123633900D01*
X166101100Y-123633900D01*
X166168139Y-123653585D01*
X166213894Y-123706389D01*
X166225100Y-123757900D01*
X166225100Y-124052548D01*
X166216455Y-124081988D01*
X166209932Y-124111975D01*
X166206177Y-124116990D01*
X166205415Y-124119587D01*
X166188781Y-124140229D01*
X166152429Y-124176581D01*
X166091106Y-124210066D01*
X166064748Y-124212900D01*
X165923626Y-124212900D01*
X165734206Y-124250578D01*
X165734194Y-124250581D01*
X165555765Y-124324488D01*
X165555752Y-124324495D01*
X165395168Y-124431795D01*
X165395164Y-124431798D01*
X165258598Y-124568364D01*
X165258595Y-124568368D01*
X165151295Y-124728952D01*
X165151288Y-124728965D01*
X165077381Y-124907394D01*
X165077380Y-124907397D01*
X165076409Y-124912280D01*
X165071453Y-124937192D01*
X165039070Y-124999101D01*
X164978355Y-125033676D01*
X164949837Y-125037000D01*
X163149500Y-125037000D01*
X163147792Y-125036498D01*
X163146070Y-125036953D01*
X163114386Y-125026689D01*
X163082461Y-125017315D01*
X163081295Y-125015969D01*
X163079601Y-125015421D01*
X163058493Y-124989655D01*
X163036706Y-124964511D01*
X163036092Y-124962310D01*
X163035324Y-124961372D01*
X163033960Y-124954660D01*
X163026321Y-124927245D01*
X163025500Y-124920145D01*
X163025500Y-124912280D01*
X163018020Y-124855467D01*
X163017909Y-124854507D01*
X163023674Y-124821012D01*
X163028914Y-124787413D01*
X163029696Y-124786028D01*
X163029762Y-124785650D01*
X163030151Y-124785225D01*
X163037983Y-124771375D01*
X163086313Y-124699047D01*
X163154194Y-124535166D01*
X163176504Y-124423007D01*
X163208888Y-124361096D01*
X163250664Y-124332639D01*
X163355747Y-124289113D01*
X163503235Y-124190564D01*
X163628664Y-124065135D01*
X163727213Y-123917647D01*
X163795094Y-123753766D01*
X163829700Y-123579791D01*
X163829700Y-123402900D01*
X163849385Y-123335861D01*
X163902189Y-123290106D01*
X163953700Y-123278900D01*
X165207702Y-123278900D01*
X165237141Y-123287544D01*
G37*
%TD.AperFunction*%
%TA.AperFunction,NonConductor*%
G36*
X164847187Y-126307685D02*
G01*
X164867829Y-126324319D01*
X165367555Y-126824045D01*
X165401040Y-126885368D01*
X165396056Y-126955060D01*
X165367556Y-126999406D01*
X165295384Y-127071580D01*
X165234062Y-127105066D01*
X165207702Y-127107900D01*
X162804286Y-127107900D01*
X162737247Y-127088215D01*
X162691492Y-127035411D01*
X162681548Y-126966253D01*
X162710573Y-126902697D01*
X162734201Y-126883187D01*
X162733785Y-126882645D01*
X162740230Y-126877698D01*
X162740233Y-126877698D01*
X162860451Y-126785451D01*
X162952698Y-126665233D01*
X163010687Y-126525236D01*
X163025500Y-126412720D01*
X163025500Y-126412000D01*
X163025560Y-126411795D01*
X163025765Y-126408670D01*
X163026464Y-126408715D01*
X163045185Y-126344961D01*
X163097989Y-126299206D01*
X163149500Y-126288000D01*
X164780148Y-126288000D01*
X164847187Y-126307685D01*
G37*
%TD.AperFunction*%
%TA.AperFunction,NonConductor*%
G36*
X165232971Y-128366319D02*
G01*
X165259053Y-128370032D01*
X165270425Y-128377317D01*
X165274741Y-128378585D01*
X165283809Y-128385892D01*
X165288771Y-128389071D01*
X165292183Y-128392019D01*
X165395168Y-128495004D01*
X165466683Y-128542789D01*
X165472484Y-128547801D01*
X165487426Y-128570979D01*
X165505111Y-128592140D01*
X165506089Y-128599928D01*
X165510342Y-128606525D01*
X165510381Y-128634103D01*
X165513818Y-128661465D01*
X165510430Y-128668544D01*
X165510442Y-128676395D01*
X165490858Y-128709455D01*
X165483664Y-128724492D01*
X165480961Y-128726161D01*
X165479096Y-128729311D01*
X164915509Y-129292900D01*
X164814569Y-129393840D01*
X164814567Y-129393842D01*
X164771004Y-129437404D01*
X164727442Y-129480966D01*
X164706842Y-129511797D01*
X164658989Y-129583412D01*
X164658987Y-129583416D01*
X164632348Y-129647727D01*
X164632349Y-129647728D01*
X164611836Y-129697249D01*
X164611835Y-129697255D01*
X164587800Y-129818089D01*
X164587800Y-130672604D01*
X164611836Y-130793450D01*
X164611837Y-130793452D01*
X164614763Y-130800515D01*
X164658988Y-130907286D01*
X164693215Y-130958509D01*
X164697507Y-130964933D01*
X164697509Y-130964936D01*
X164727441Y-131009733D01*
X164818886Y-131101178D01*
X164818908Y-131101198D01*
X165213239Y-131495529D01*
X165213242Y-131495533D01*
X165300367Y-131582658D01*
X165377290Y-131634056D01*
X165383090Y-131637932D01*
X165383093Y-131637934D01*
X165402810Y-131651109D01*
X165402812Y-131651110D01*
X165402815Y-131651112D01*
X165469497Y-131678732D01*
X165516648Y-131698263D01*
X165551088Y-131705113D01*
X165558196Y-131707444D01*
X165581064Y-131723172D01*
X165605657Y-131736036D01*
X165609448Y-131742694D01*
X165615764Y-131747038D01*
X165626498Y-131772634D01*
X165640233Y-131796751D01*
X165639822Y-131804403D01*
X165642787Y-131811471D01*
X165637979Y-131838804D01*
X165636495Y-131866520D01*
X165632012Y-131872736D01*
X165630685Y-131880284D01*
X165611864Y-131900679D01*
X165595630Y-131923193D01*
X165585830Y-131928890D01*
X165583301Y-131931631D01*
X165579348Y-131932658D01*
X165567013Y-131939830D01*
X165555761Y-131944490D01*
X165555752Y-131944495D01*
X165393651Y-132052809D01*
X165326974Y-132073687D01*
X165259593Y-132055203D01*
X165237079Y-132037388D01*
X161770271Y-128570581D01*
X161736786Y-128509258D01*
X161741770Y-128439566D01*
X161783642Y-128383633D01*
X161849106Y-128359216D01*
X161857952Y-128358900D01*
X165207702Y-128358900D01*
X165232971Y-128366319D01*
G37*
%TD.AperFunction*%
M02*
