%TF.GenerationSoftware,KiCad,Pcbnew,7.0.8*%
%TF.CreationDate,2023-11-29T12:22:39+00:00*%
%TF.ProjectId,ZX Interface 1 ROM 39SF010,5a582049-6e74-4657-9266-616365203120,rev?*%
%TF.SameCoordinates,Original*%
%TF.FileFunction,Copper,L1,Top*%
%TF.FilePolarity,Positive*%
%FSLAX46Y46*%
G04 Gerber Fmt 4.6, Leading zero omitted, Abs format (unit mm)*
G04 Created by KiCad (PCBNEW 7.0.8) date 2023-11-29 12:22:39*
%MOMM*%
%LPD*%
G01*
G04 APERTURE LIST*
G04 Aperture macros list*
%AMRoundRect*
0 Rectangle with rounded corners*
0 $1 Rounding radius*
0 $2 $3 $4 $5 $6 $7 $8 $9 X,Y pos of 4 corners*
0 Add a 4 corners polygon primitive as box body*
4,1,4,$2,$3,$4,$5,$6,$7,$8,$9,$2,$3,0*
0 Add four circle primitives for the rounded corners*
1,1,$1+$1,$2,$3*
1,1,$1+$1,$4,$5*
1,1,$1+$1,$6,$7*
1,1,$1+$1,$8,$9*
0 Add four rect primitives between the rounded corners*
20,1,$1+$1,$2,$3,$4,$5,0*
20,1,$1+$1,$4,$5,$6,$7,0*
20,1,$1+$1,$6,$7,$8,$9,0*
20,1,$1+$1,$8,$9,$2,$3,0*%
G04 Aperture macros list end*
%TA.AperFunction,SMDPad,CuDef*%
%ADD10RoundRect,0.075000X-0.075000X0.712500X-0.075000X-0.712500X0.075000X-0.712500X0.075000X0.712500X0*%
%TD*%
%TA.AperFunction,ComponentPad*%
%ADD11R,1.700000X1.700000*%
%TD*%
%TA.AperFunction,ComponentPad*%
%ADD12O,1.700000X1.700000*%
%TD*%
%TA.AperFunction,ComponentPad*%
%ADD13R,0.960000X0.960000*%
%TD*%
%TA.AperFunction,ComponentPad*%
%ADD14C,0.960000*%
%TD*%
%TA.AperFunction,ViaPad*%
%ADD15C,0.800000*%
%TD*%
%TA.AperFunction,Conductor*%
%ADD16C,0.250000*%
%TD*%
G04 APERTURE END LIST*
D10*
%TO.P,U1,1,A11*%
%TO.N,/A11*%
X162375000Y-112287500D03*
%TO.P,U1,2,A9*%
%TO.N,/A9*%
X161875000Y-112287500D03*
%TO.P,U1,3,A8*%
%TO.N,/A8*%
X161375000Y-112287500D03*
%TO.P,U1,4,A13*%
%TO.N,Net-(J1-Pin_7)*%
X160875000Y-112287500D03*
%TO.P,U1,5,A14*%
%TO.N,Net-(J1-Pin_6)*%
X160375000Y-112287500D03*
%TO.P,U1,6,A17*%
%TO.N,Net-(J1-Pin_3)*%
X159875000Y-112287500D03*
%TO.P,U1,7,WE*%
%TO.N,Net-(J1-Pin_1)*%
X159375000Y-112287500D03*
%TO.P,U1,8,VCC*%
%TO.N,/VCC*%
X158875000Y-112287500D03*
%TO.P,U1,9,A18*%
%TO.N,Net-(J1-Pin_2)*%
X158375000Y-112287500D03*
%TO.P,U1,10,A16*%
%TO.N,Net-(J1-Pin_4)*%
X157875000Y-112287500D03*
%TO.P,U1,11,A15*%
%TO.N,Net-(J1-Pin_5)*%
X157375000Y-112287500D03*
%TO.P,U1,12,A12*%
%TO.N,/A12*%
X156875000Y-112287500D03*
%TO.P,U1,13,A7*%
%TO.N,/A7*%
X156375000Y-112287500D03*
%TO.P,U1,14,A6*%
%TO.N,/A6*%
X155875000Y-112287500D03*
%TO.P,U1,15,A5*%
%TO.N,/A5*%
X155375000Y-112287500D03*
%TO.P,U1,16,A4*%
%TO.N,/A4*%
X154875000Y-112287500D03*
%TO.P,U1,17,A3*%
%TO.N,/A3*%
X154875000Y-125662500D03*
%TO.P,U1,18,A2*%
%TO.N,/A2*%
X155375000Y-125662500D03*
%TO.P,U1,19,A1*%
%TO.N,/A1*%
X155875000Y-125662500D03*
%TO.P,U1,20,A0*%
%TO.N,/A0*%
X156375000Y-125662500D03*
%TO.P,U1,21,DQ0*%
%TO.N,/D0*%
X156875000Y-125662500D03*
%TO.P,U1,22,DQ1*%
%TO.N,/D1*%
X157375000Y-125662500D03*
%TO.P,U1,23,DQ2*%
%TO.N,/D2*%
X157875000Y-125662500D03*
%TO.P,U1,24,GND*%
%TO.N,GND*%
X158375000Y-125662500D03*
%TO.P,U1,25,DQ3*%
%TO.N,/D3*%
X158875000Y-125662500D03*
%TO.P,U1,26,DQ4*%
%TO.N,/D4*%
X159375000Y-125662500D03*
%TO.P,U1,27,DQ5*%
%TO.N,/D5*%
X159875000Y-125662500D03*
%TO.P,U1,28,DQ6*%
%TO.N,/D6*%
X160375000Y-125662500D03*
%TO.P,U1,29,DQ7*%
%TO.N,/D7*%
X160875000Y-125662500D03*
%TO.P,U1,30,CE*%
%TO.N,Net-(J1-Pin_8)*%
X161375000Y-125662500D03*
%TO.P,U1,31,A10*%
%TO.N,/A10*%
X161875000Y-125662500D03*
%TO.P,U1,32,0E*%
%TO.N,/CS1*%
X162375000Y-125662500D03*
%TD*%
D11*
%TO.P,J1,1,Pin_1*%
%TO.N,Net-(J1-Pin_1)*%
X170161000Y-107413400D03*
D12*
%TO.P,J1,2,Pin_2*%
%TO.N,Net-(J1-Pin_2)*%
X170161000Y-109953400D03*
%TO.P,J1,3,Pin_3*%
%TO.N,Net-(J1-Pin_3)*%
X170161000Y-112493400D03*
%TO.P,J1,4,Pin_4*%
%TO.N,Net-(J1-Pin_4)*%
X170161000Y-115033400D03*
%TO.P,J1,5,Pin_5*%
%TO.N,Net-(J1-Pin_5)*%
X170161000Y-117573400D03*
%TO.P,J1,6,Pin_6*%
%TO.N,Net-(J1-Pin_6)*%
X170161000Y-120113400D03*
%TO.P,J1,7,Pin_7*%
%TO.N,Net-(J1-Pin_7)*%
X170161000Y-122653400D03*
%TO.P,J1,8,Pin_8*%
%TO.N,Net-(J1-Pin_8)*%
X170161000Y-125193400D03*
%TO.P,J1,9,Pin_9*%
%TO.N,GND*%
X170161000Y-127733400D03*
%TD*%
D13*
%TO.P,J4,01,01*%
%TO.N,/VCC*%
X166020200Y-104873400D03*
D14*
%TO.P,J4,02,02*%
%TO.N,/A8*%
X166020200Y-107413400D03*
%TO.P,J4,03,03*%
%TO.N,/A9*%
X166020200Y-109953400D03*
%TO.P,J4,04,04*%
%TO.N,/A12*%
X166020200Y-112493400D03*
%TO.P,J4,05,05*%
%TO.N,/CS1*%
X166020200Y-115033400D03*
%TO.P,J4,06,06*%
%TO.N,/A10*%
X166020200Y-117573400D03*
%TO.P,J4,07,07*%
%TO.N,/A11*%
X166020200Y-120113400D03*
%TO.P,J4,08,08*%
%TO.N,/D7*%
X166020200Y-122653400D03*
%TO.P,J4,09,09*%
%TO.N,/D6*%
X166020200Y-125193400D03*
%TO.P,J4,10,10*%
%TO.N,/D5*%
X166020200Y-127733400D03*
%TO.P,J4,11,11*%
%TO.N,/D4*%
X166020200Y-130273400D03*
%TO.P,J4,12,12*%
%TO.N,/D3*%
X166020200Y-132813400D03*
%TD*%
D13*
%TO.P,J3,01,01*%
%TO.N,/A7*%
X150780200Y-104873400D03*
D14*
%TO.P,J3,02,02*%
%TO.N,/A6*%
X150780200Y-107413400D03*
%TO.P,J3,03,03*%
%TO.N,/A5*%
X150780200Y-109953400D03*
%TO.P,J3,04,04*%
%TO.N,/A4*%
X150780200Y-112493400D03*
%TO.P,J3,05,05*%
%TO.N,/A3*%
X150780200Y-115033400D03*
%TO.P,J3,06,06*%
%TO.N,/A2*%
X150780200Y-117573400D03*
%TO.P,J3,07,07*%
%TO.N,/A1*%
X150780200Y-120113400D03*
%TO.P,J3,08,08*%
%TO.N,/A0*%
X150780200Y-122653400D03*
%TO.P,J3,09,09*%
%TO.N,/D0*%
X150780200Y-125193400D03*
%TO.P,J3,10,10*%
%TO.N,/D1*%
X150780200Y-127733400D03*
%TO.P,J3,11,11*%
%TO.N,/D2*%
X150780200Y-130273400D03*
%TO.P,J3,12,12*%
%TO.N,GND*%
X150780200Y-132813400D03*
%TD*%
D15*
%TO.N,/A10*%
X162288300Y-124272500D03*
%TO.N,Net-(J1-Pin_2)*%
X158375000Y-119503600D03*
%TO.N,Net-(J1-Pin_3)*%
X158992900Y-116453000D03*
%TO.N,Net-(J1-Pin_4)*%
X158414900Y-106529000D03*
%TO.N,Net-(J1-Pin_5)*%
X157295200Y-110175700D03*
%TO.N,Net-(J1-Pin_7)*%
X161388700Y-113681600D03*
%TO.N,Net-(J1-Pin_8)*%
X162929200Y-123491100D03*
%TD*%
D16*
%TO.N,/VCC*%
X166020200Y-104873400D02*
X165213300Y-104873400D01*
X158875000Y-112287500D02*
X158875000Y-110925300D01*
X158875000Y-110925300D02*
X164926900Y-104873400D01*
X164926900Y-104873400D02*
X165213300Y-104873400D01*
%TO.N,GND*%
X158375000Y-127232900D02*
X158375000Y-125662500D01*
X152794500Y-132813400D02*
X158375000Y-127232900D01*
X150780200Y-132813400D02*
X152794500Y-132813400D01*
%TO.N,/A7*%
X150780200Y-105680300D02*
X150981900Y-105680300D01*
X150981900Y-105680300D02*
X156375000Y-111073400D01*
X150780200Y-104873400D02*
X150780200Y-105680300D01*
X156375000Y-111073400D02*
X156375000Y-112287500D01*
%TO.N,/A6*%
X150780200Y-107413400D02*
X152062200Y-107413400D01*
X155875000Y-111226200D02*
X155875000Y-112287500D01*
X152062200Y-107413400D02*
X155875000Y-111226200D01*
%TO.N,/A5*%
X153937300Y-109953400D02*
X155375000Y-111391100D01*
X150780200Y-109953400D02*
X153937300Y-109953400D01*
X155375000Y-111391100D02*
X155375000Y-112287500D01*
%TO.N,/A3*%
X154875000Y-119128200D02*
X150780200Y-115033400D01*
X154875000Y-125662500D02*
X154875000Y-119128200D01*
%TO.N,/A2*%
X155127100Y-126811200D02*
X154654100Y-126811200D01*
X154654100Y-126811200D02*
X154224000Y-126381100D01*
X155375000Y-125662500D02*
X155375000Y-126563300D01*
X154224000Y-126381100D02*
X154224000Y-121017200D01*
X154224000Y-121017200D02*
X150780200Y-117573400D01*
X155375000Y-126563300D02*
X155127100Y-126811200D01*
%TO.N,/A1*%
X150422400Y-114224400D02*
X151146400Y-114224400D01*
X150780200Y-120113400D02*
X149972200Y-119305400D01*
X155875000Y-118953000D02*
X155875000Y-125662500D01*
X151146400Y-114224400D02*
X155875000Y-118953000D01*
X149972200Y-119305400D02*
X149972200Y-114674600D01*
X149972200Y-114674600D02*
X150422400Y-114224400D01*
%TO.N,/A0*%
X150780200Y-123576500D02*
X150780200Y-122653400D01*
X154466800Y-127263100D02*
X150780200Y-123576500D01*
X156375000Y-126587200D02*
X155699100Y-127263100D01*
X156375000Y-125662500D02*
X156375000Y-126587200D01*
X155699100Y-127263100D02*
X154466800Y-127263100D01*
%TO.N,/D0*%
X153303300Y-127716500D02*
X150780200Y-125193400D01*
X155910400Y-127716500D02*
X153303300Y-127716500D01*
X156875000Y-126751900D02*
X155910400Y-127716500D01*
X156875000Y-125662500D02*
X156875000Y-126751900D01*
%TO.N,/D1*%
X157375000Y-126898200D02*
X157375000Y-125662500D01*
X150780200Y-127733400D02*
X151258500Y-128211700D01*
X151258500Y-128211700D02*
X156061500Y-128211700D01*
X156061500Y-128211700D02*
X157375000Y-126898200D01*
%TO.N,/D2*%
X157875000Y-127067300D02*
X157875000Y-125662500D01*
X150780200Y-130273400D02*
X154668900Y-130273400D01*
X154668900Y-130273400D02*
X157875000Y-127067300D01*
%TO.N,/D3*%
X166020200Y-132813400D02*
X165128500Y-132813400D01*
X165128500Y-132813400D02*
X158875000Y-126559900D01*
X158875000Y-126559900D02*
X158875000Y-125662500D01*
%TO.N,/D4*%
X167346400Y-128947200D02*
X167346400Y-122147200D01*
X166020200Y-130273400D02*
X167346400Y-128947200D01*
X162113600Y-121390000D02*
X159375000Y-124128600D01*
X166589200Y-121390000D02*
X162113600Y-121390000D01*
X159375000Y-124128600D02*
X159375000Y-125662500D01*
X167346400Y-122147200D02*
X166589200Y-121390000D01*
%TO.N,/D5*%
X159875000Y-126529100D02*
X159875000Y-125662500D01*
X161079300Y-127733400D02*
X159875000Y-126529100D01*
X166020200Y-127733400D02*
X161079300Y-127733400D01*
%TO.N,/D6*%
X166377500Y-121844500D02*
X162313100Y-121844500D01*
X162313100Y-121844500D02*
X160375000Y-123782600D01*
X160375000Y-123782600D02*
X160375000Y-125662500D01*
X166850600Y-124363000D02*
X166850600Y-122317600D01*
X166020200Y-125193400D02*
X166850600Y-124363000D01*
X166850600Y-122317600D02*
X166377500Y-121844500D01*
%TO.N,/D7*%
X162160400Y-122653400D02*
X166020200Y-122653400D01*
X160875000Y-123938800D02*
X162160400Y-122653400D01*
X160875000Y-125662500D02*
X160875000Y-123938800D01*
%TO.N,/A11*%
X166346200Y-111674000D02*
X162988500Y-111674000D01*
X165207300Y-119300500D02*
X165207300Y-114576400D01*
X165207300Y-114576400D02*
X166849100Y-112934600D01*
X166849100Y-112176900D02*
X166346200Y-111674000D01*
X162988500Y-111674000D02*
X162375000Y-112287500D01*
X166020200Y-120113400D02*
X165207300Y-119300500D01*
X166849100Y-112934600D02*
X166849100Y-112176900D01*
%TO.N,/A10*%
X161875000Y-124685800D02*
X162288300Y-124272500D01*
X161875000Y-125662500D02*
X161875000Y-124685800D01*
%TO.N,/CS1*%
X165213300Y-130611000D02*
X165699100Y-131096800D01*
X166850800Y-128242200D02*
X165213300Y-129879700D01*
X165090600Y-125662500D02*
X166850800Y-127422700D01*
X167830600Y-116843800D02*
X166020200Y-115033400D01*
X166850800Y-127422700D02*
X166850800Y-128242200D01*
X165213300Y-129879700D02*
X165213300Y-130611000D01*
X166341300Y-131096800D02*
X167830600Y-129607500D01*
X162375000Y-125662500D02*
X165090600Y-125662500D01*
X167830600Y-129607500D02*
X167830600Y-116843800D01*
X165699100Y-131096800D02*
X166341300Y-131096800D01*
%TO.N,/A12*%
X156875000Y-119038900D02*
X158080800Y-120244700D01*
X156875000Y-112287500D02*
X156875000Y-119038900D01*
X158696500Y-120244700D02*
X166020200Y-112921000D01*
X158080800Y-120244700D02*
X158696500Y-120244700D01*
X166020200Y-112921000D02*
X166020200Y-112493400D01*
%TO.N,/A9*%
X161875000Y-111396100D02*
X161875000Y-112287500D01*
X166020200Y-109953400D02*
X163317700Y-109953400D01*
X163317700Y-109953400D02*
X161875000Y-111396100D01*
%TO.N,/A8*%
X161375000Y-111242100D02*
X161375000Y-112287500D01*
X166020200Y-107413400D02*
X165203700Y-107413400D01*
X165203700Y-107413400D02*
X161375000Y-111242100D01*
%TO.N,Net-(J1-Pin_1)*%
X159375000Y-111127600D02*
X159375000Y-112287500D01*
X168984100Y-107413400D02*
X167266400Y-105695700D01*
X170161000Y-107413400D02*
X168984100Y-107413400D01*
X164806900Y-105695700D02*
X159375000Y-111127600D01*
X167266400Y-105695700D02*
X164806900Y-105695700D01*
%TO.N,Net-(J1-Pin_2)*%
X170993300Y-108776500D02*
X170161000Y-108776500D01*
X169011900Y-104066500D02*
X171337900Y-106392500D01*
X158266000Y-116152000D02*
X158375000Y-116043000D01*
X158266000Y-119394600D02*
X158266000Y-116152000D01*
X171337900Y-108431900D02*
X170993300Y-108776500D01*
X165087900Y-104066500D02*
X169011900Y-104066500D01*
X170161000Y-109953400D02*
X170161000Y-108776500D01*
X158375000Y-112287500D02*
X158375000Y-110779400D01*
X158375000Y-116043000D02*
X158375000Y-112287500D01*
X158375000Y-110779400D02*
X165087900Y-104066500D01*
X158375000Y-119503600D02*
X158266000Y-119394600D01*
X171337900Y-106392500D02*
X171337900Y-108431900D01*
%TO.N,Net-(J1-Pin_3)*%
X159875000Y-112287500D02*
X159875000Y-111269000D01*
X159875000Y-111269000D02*
X164994900Y-106149100D01*
X158992900Y-116453000D02*
X159875000Y-115570900D01*
X159875000Y-115570900D02*
X159875000Y-112287500D01*
X164994900Y-106149100D02*
X166575900Y-106149100D01*
X169795200Y-111316500D02*
X170161000Y-111316500D01*
X168926500Y-110447800D02*
X169795200Y-111316500D01*
X166575900Y-106149100D02*
X168926500Y-108499700D01*
X170161000Y-112493400D02*
X170161000Y-111316500D01*
X168926500Y-108499700D02*
X168926500Y-110447800D01*
%TO.N,Net-(J1-Pin_4)*%
X157875000Y-110640200D02*
X157875000Y-112287500D01*
X158414900Y-110100300D02*
X157875000Y-110640200D01*
X158414900Y-106529000D02*
X158414900Y-110100300D01*
%TO.N,Net-(J1-Pin_5)*%
X157375000Y-110255500D02*
X157295200Y-110175700D01*
X157375000Y-112287500D02*
X157375000Y-110255500D01*
%TO.N,Net-(J1-Pin_6)*%
X166390300Y-106602600D02*
X168417000Y-108629300D01*
X168417000Y-108629300D02*
X168417000Y-117560300D01*
X169793200Y-118936500D02*
X170161000Y-118936500D01*
X160375000Y-111410300D02*
X165182700Y-106602600D01*
X170161000Y-120113400D02*
X170161000Y-118936500D01*
X168417000Y-117560300D02*
X169793200Y-118936500D01*
X160375000Y-112287500D02*
X160375000Y-111410300D01*
X165182700Y-106602600D02*
X166390300Y-106602600D01*
%TO.N,Net-(J1-Pin_7)*%
X160875000Y-113167900D02*
X160875000Y-112287500D01*
X161388700Y-113681600D02*
X160875000Y-113167900D01*
%TO.N,Net-(J1-Pin_8)*%
X162029000Y-123491200D02*
X162929200Y-123491200D01*
X161375000Y-125662500D02*
X161375000Y-124145200D01*
X161375000Y-124145200D02*
X162029000Y-123491200D01*
X162929200Y-123491200D02*
X162929200Y-123491100D01*
%TO.N,/A4*%
X154669100Y-112493400D02*
X154875000Y-112287500D01*
X150780200Y-112493400D02*
X154669100Y-112493400D01*
%TD*%
%TA.AperFunction,NonConductor*%
G36*
X173421864Y-102520185D02*
G01*
X173467619Y-102572989D01*
X173478825Y-102624500D01*
X173478825Y-134375500D01*
X173459140Y-134442539D01*
X173406336Y-134488294D01*
X173354825Y-134499500D01*
X149183900Y-134499500D01*
X149116861Y-134479815D01*
X149071106Y-134427011D01*
X149059900Y-134375500D01*
X149059900Y-114654795D01*
X149342040Y-114654795D01*
X149346425Y-114701183D01*
X149346700Y-114707021D01*
X149346700Y-119222655D01*
X149344975Y-119238272D01*
X149345261Y-119238299D01*
X149344526Y-119246065D01*
X149346700Y-119315214D01*
X149346700Y-119344743D01*
X149346701Y-119344760D01*
X149347568Y-119351631D01*
X149348026Y-119357450D01*
X149349490Y-119404024D01*
X149349491Y-119404027D01*
X149355080Y-119423267D01*
X149359024Y-119442311D01*
X149360917Y-119457291D01*
X149361536Y-119462191D01*
X149378690Y-119505519D01*
X149380582Y-119511047D01*
X149392157Y-119550888D01*
X149393582Y-119555790D01*
X149399636Y-119566028D01*
X149403780Y-119573034D01*
X149412338Y-119590503D01*
X149419714Y-119609132D01*
X149447098Y-119646823D01*
X149450306Y-119651707D01*
X149474027Y-119691816D01*
X149474033Y-119691824D01*
X149488190Y-119705980D01*
X149500828Y-119720776D01*
X149512152Y-119736363D01*
X149512606Y-119736987D01*
X149541235Y-119760671D01*
X149548509Y-119766688D01*
X149552820Y-119770610D01*
X149660196Y-119877986D01*
X149762510Y-119980300D01*
X149795995Y-120041623D01*
X149798232Y-120080134D01*
X149794956Y-120113399D01*
X149813886Y-120305610D01*
X149837961Y-120384972D01*
X149869953Y-120490437D01*
X149961000Y-120660772D01*
X149965403Y-120666137D01*
X150083526Y-120810073D01*
X150156900Y-120870288D01*
X150232828Y-120932600D01*
X150403163Y-121023647D01*
X150587988Y-121079713D01*
X150780200Y-121098644D01*
X150972412Y-121079713D01*
X151157237Y-121023647D01*
X151327572Y-120932600D01*
X151476873Y-120810073D01*
X151599400Y-120660772D01*
X151690447Y-120490437D01*
X151746513Y-120305612D01*
X151765444Y-120113400D01*
X151746513Y-119921188D01*
X151690447Y-119736363D01*
X151661793Y-119682757D01*
X151647552Y-119614355D01*
X151672551Y-119549111D01*
X151728856Y-119507740D01*
X151798589Y-119503378D01*
X151858833Y-119536623D01*
X153562181Y-121239971D01*
X153595666Y-121301294D01*
X153598500Y-121327652D01*
X153598500Y-125210847D01*
X153578815Y-125277886D01*
X153526011Y-125323641D01*
X153456853Y-125333585D01*
X153393297Y-125304560D01*
X153386819Y-125298528D01*
X151538983Y-123450693D01*
X151505498Y-123389370D01*
X151510482Y-123319678D01*
X151530805Y-123284355D01*
X151599400Y-123200772D01*
X151690447Y-123030437D01*
X151746513Y-122845612D01*
X151765444Y-122653400D01*
X151746513Y-122461188D01*
X151690447Y-122276363D01*
X151599400Y-122106028D01*
X151492338Y-121975571D01*
X151476873Y-121956726D01*
X151327574Y-121834202D01*
X151327575Y-121834202D01*
X151327572Y-121834200D01*
X151157237Y-121743153D01*
X151064824Y-121715120D01*
X150972410Y-121687086D01*
X150780200Y-121668156D01*
X150587989Y-121687086D01*
X150403160Y-121743154D01*
X150330488Y-121781999D01*
X150232828Y-121834200D01*
X150232826Y-121834201D01*
X150232825Y-121834202D01*
X150083526Y-121956726D01*
X149961002Y-122106025D01*
X149869954Y-122276360D01*
X149813886Y-122461189D01*
X149794956Y-122653400D01*
X149813886Y-122845610D01*
X149813887Y-122845612D01*
X149869953Y-123030437D01*
X149961000Y-123200772D01*
X149961002Y-123200774D01*
X150083524Y-123350070D01*
X150083525Y-123350071D01*
X150083527Y-123350073D01*
X150109364Y-123371277D01*
X150148699Y-123429021D01*
X150154700Y-123467130D01*
X150154700Y-123493755D01*
X150152975Y-123509372D01*
X150153261Y-123509399D01*
X150152526Y-123517165D01*
X150154700Y-123586314D01*
X150154700Y-123615843D01*
X150154701Y-123615860D01*
X150155568Y-123622731D01*
X150156026Y-123628550D01*
X150157490Y-123675124D01*
X150157491Y-123675127D01*
X150163080Y-123694367D01*
X150167024Y-123713411D01*
X150169536Y-123733292D01*
X150179326Y-123758020D01*
X150186690Y-123776619D01*
X150188582Y-123782147D01*
X150191394Y-123791826D01*
X150201582Y-123826890D01*
X150208474Y-123838545D01*
X150211780Y-123844134D01*
X150220336Y-123861600D01*
X150227714Y-123880232D01*
X150255098Y-123917923D01*
X150258306Y-123922807D01*
X150282027Y-123962916D01*
X150282033Y-123962924D01*
X150296190Y-123977080D01*
X150308828Y-123991876D01*
X150320605Y-124008086D01*
X150320606Y-124008087D01*
X150356509Y-124037788D01*
X150360820Y-124041710D01*
X150388726Y-124069616D01*
X150414686Y-124095576D01*
X150448171Y-124156899D01*
X150443187Y-124226591D01*
X150401315Y-124282524D01*
X150385460Y-124292614D01*
X150232826Y-124374200D01*
X150083526Y-124496726D01*
X149961002Y-124646025D01*
X149869954Y-124816360D01*
X149813886Y-125001189D01*
X149794956Y-125193400D01*
X149813886Y-125385610D01*
X149813887Y-125385612D01*
X149869953Y-125570437D01*
X149961000Y-125740772D01*
X149961002Y-125740774D01*
X150083526Y-125890073D01*
X150173707Y-125964081D01*
X150232828Y-126012600D01*
X150403163Y-126103647D01*
X150587988Y-126159713D01*
X150780200Y-126178644D01*
X150813464Y-126175367D01*
X150882108Y-126188385D01*
X150913299Y-126211089D01*
X151356976Y-126654766D01*
X151390461Y-126716089D01*
X151385477Y-126785781D01*
X151343605Y-126841714D01*
X151278141Y-126866131D01*
X151210842Y-126851805D01*
X151157241Y-126823154D01*
X150972410Y-126767086D01*
X150780200Y-126748156D01*
X150587989Y-126767086D01*
X150403160Y-126823154D01*
X150301118Y-126877698D01*
X150232828Y-126914200D01*
X150232826Y-126914201D01*
X150232825Y-126914202D01*
X150083526Y-127036726D01*
X149961002Y-127186025D01*
X149869954Y-127356360D01*
X149813886Y-127541189D01*
X149794956Y-127733400D01*
X149813886Y-127925610D01*
X149813887Y-127925612D01*
X149869953Y-128110437D01*
X149961000Y-128280772D01*
X149961002Y-128280774D01*
X150083526Y-128430073D01*
X150173707Y-128504081D01*
X150232828Y-128552600D01*
X150403163Y-128643647D01*
X150587988Y-128699713D01*
X150780200Y-128718644D01*
X150828511Y-128713885D01*
X150897156Y-128726903D01*
X150900392Y-128728620D01*
X150905461Y-128731406D01*
X150921735Y-128742095D01*
X150937564Y-128754373D01*
X150980338Y-128772882D01*
X150985556Y-128775438D01*
X151026408Y-128797897D01*
X151045816Y-128802880D01*
X151064217Y-128809180D01*
X151082604Y-128817137D01*
X151125988Y-128824008D01*
X151128619Y-128824425D01*
X151134339Y-128825609D01*
X151179481Y-128837200D01*
X151199516Y-128837200D01*
X151218914Y-128838726D01*
X151238694Y-128841859D01*
X151238695Y-128841860D01*
X151238695Y-128841859D01*
X151238696Y-128841860D01*
X151285084Y-128837475D01*
X151290922Y-128837200D01*
X154921147Y-128837200D01*
X154988186Y-128856885D01*
X155033941Y-128909689D01*
X155043885Y-128978847D01*
X155014860Y-129042403D01*
X155008828Y-129048881D01*
X154446128Y-129611581D01*
X154384805Y-129645066D01*
X154358447Y-129647900D01*
X151593931Y-129647900D01*
X151526892Y-129628215D01*
X151498077Y-129602564D01*
X151476874Y-129576728D01*
X151327575Y-129454202D01*
X151327573Y-129454201D01*
X151327572Y-129454200D01*
X151157237Y-129363153D01*
X151064824Y-129335120D01*
X150972410Y-129307086D01*
X150780200Y-129288156D01*
X150587989Y-129307086D01*
X150403160Y-129363154D01*
X150300354Y-129418106D01*
X150232828Y-129454200D01*
X150232826Y-129454201D01*
X150232825Y-129454202D01*
X150083526Y-129576726D01*
X149961002Y-129726025D01*
X149869954Y-129896360D01*
X149813886Y-130081189D01*
X149794956Y-130273400D01*
X149813886Y-130465610D01*
X149837042Y-130541945D01*
X149869924Y-130650343D01*
X149869954Y-130650439D01*
X149875134Y-130660130D01*
X149961000Y-130820772D01*
X149961002Y-130820774D01*
X150083526Y-130970073D01*
X150152133Y-131026376D01*
X150232828Y-131092600D01*
X150403163Y-131183647D01*
X150587988Y-131239713D01*
X150780200Y-131258644D01*
X150972412Y-131239713D01*
X151157237Y-131183647D01*
X151327572Y-131092600D01*
X151476873Y-130970073D01*
X151498077Y-130944236D01*
X151555823Y-130904901D01*
X151593931Y-130898900D01*
X153525047Y-130898900D01*
X153592086Y-130918585D01*
X153637841Y-130971389D01*
X153647785Y-131040547D01*
X153618760Y-131104103D01*
X153612728Y-131110581D01*
X152571728Y-132151581D01*
X152510405Y-132185066D01*
X152484047Y-132187900D01*
X151593931Y-132187900D01*
X151526892Y-132168215D01*
X151498077Y-132142564D01*
X151476874Y-132116728D01*
X151327575Y-131994202D01*
X151327573Y-131994201D01*
X151327572Y-131994200D01*
X151157237Y-131903153D01*
X151064824Y-131875120D01*
X150972410Y-131847086D01*
X150780200Y-131828156D01*
X150587989Y-131847086D01*
X150403160Y-131903154D01*
X150300354Y-131958106D01*
X150232828Y-131994200D01*
X150232826Y-131994201D01*
X150232825Y-131994202D01*
X150083526Y-132116726D01*
X149961002Y-132266025D01*
X149961000Y-132266028D01*
X149924906Y-132333554D01*
X149869954Y-132436360D01*
X149813886Y-132621189D01*
X149794956Y-132813400D01*
X149813886Y-133005610D01*
X149813887Y-133005612D01*
X149869953Y-133190437D01*
X149961000Y-133360772D01*
X149986642Y-133392017D01*
X150083526Y-133510073D01*
X150173707Y-133584081D01*
X150232828Y-133632600D01*
X150403163Y-133723647D01*
X150587988Y-133779713D01*
X150780200Y-133798644D01*
X150972412Y-133779713D01*
X151157237Y-133723647D01*
X151327572Y-133632600D01*
X151476873Y-133510073D01*
X151498077Y-133484236D01*
X151555823Y-133444901D01*
X151593931Y-133438900D01*
X152711757Y-133438900D01*
X152727377Y-133440624D01*
X152727404Y-133440339D01*
X152735160Y-133441071D01*
X152735167Y-133441073D01*
X152804314Y-133438900D01*
X152833850Y-133438900D01*
X152840728Y-133438030D01*
X152846541Y-133437572D01*
X152893127Y-133436109D01*
X152912369Y-133430517D01*
X152931412Y-133426574D01*
X152951292Y-133424064D01*
X152994622Y-133406907D01*
X153000146Y-133405017D01*
X153003896Y-133403927D01*
X153044890Y-133392018D01*
X153062129Y-133381822D01*
X153079603Y-133373262D01*
X153098227Y-133365888D01*
X153098227Y-133365887D01*
X153098232Y-133365886D01*
X153135949Y-133338482D01*
X153140805Y-133335292D01*
X153180920Y-133311570D01*
X153195089Y-133297399D01*
X153209879Y-133284768D01*
X153226087Y-133272994D01*
X153255799Y-133237076D01*
X153259712Y-133232776D01*
X154797332Y-131695156D01*
X156530500Y-131695156D01*
X156536886Y-131721064D01*
X156571210Y-131860326D01*
X156650263Y-132010949D01*
X156650266Y-132010952D01*
X156763071Y-132138283D01*
X156834953Y-132187900D01*
X156903068Y-132234917D01*
X156903069Y-132234917D01*
X156903070Y-132234918D01*
X157062128Y-132295240D01*
X157138028Y-132304456D01*
X157188626Y-132310600D01*
X157188628Y-132310600D01*
X157273374Y-132310600D01*
X157315538Y-132305480D01*
X157399872Y-132295240D01*
X157558930Y-132234918D01*
X157698929Y-132138283D01*
X157811734Y-132010952D01*
X157820527Y-131994200D01*
X157875370Y-131889705D01*
X157890790Y-131860325D01*
X157931500Y-131695156D01*
X159530500Y-131695156D01*
X159536886Y-131721064D01*
X159571210Y-131860326D01*
X159650263Y-132010949D01*
X159650266Y-132010952D01*
X159763071Y-132138283D01*
X159834953Y-132187900D01*
X159903068Y-132234917D01*
X159903069Y-132234917D01*
X159903070Y-132234918D01*
X160062128Y-132295240D01*
X160138028Y-132304456D01*
X160188626Y-132310600D01*
X160188628Y-132310600D01*
X160273374Y-132310600D01*
X160315538Y-132305480D01*
X160399872Y-132295240D01*
X160558930Y-132234918D01*
X160698929Y-132138283D01*
X160811734Y-132010952D01*
X160820527Y-131994200D01*
X160875370Y-131889705D01*
X160890790Y-131860325D01*
X160931500Y-131695156D01*
X160931500Y-131525044D01*
X160890790Y-131359875D01*
X160890789Y-131359873D01*
X160811736Y-131209250D01*
X160789052Y-131183645D01*
X160698929Y-131081917D01*
X160618465Y-131026376D01*
X160558931Y-130985282D01*
X160399874Y-130924960D01*
X160399868Y-130924959D01*
X160273374Y-130909600D01*
X160273372Y-130909600D01*
X160188628Y-130909600D01*
X160188626Y-130909600D01*
X160062131Y-130924959D01*
X160062125Y-130924960D01*
X159903068Y-130985282D01*
X159763072Y-131081916D01*
X159650263Y-131209250D01*
X159571210Y-131359873D01*
X159571210Y-131359875D01*
X159530500Y-131525044D01*
X159530500Y-131695156D01*
X157931500Y-131695156D01*
X157931500Y-131525044D01*
X157890790Y-131359875D01*
X157890789Y-131359873D01*
X157811736Y-131209250D01*
X157789052Y-131183645D01*
X157698929Y-131081917D01*
X157618465Y-131026376D01*
X157558931Y-130985282D01*
X157399874Y-130924960D01*
X157399868Y-130924959D01*
X157273374Y-130909600D01*
X157273372Y-130909600D01*
X157188628Y-130909600D01*
X157188626Y-130909600D01*
X157062131Y-130924959D01*
X157062125Y-130924960D01*
X156903068Y-130985282D01*
X156763072Y-131081916D01*
X156650263Y-131209250D01*
X156571210Y-131359873D01*
X156571210Y-131359875D01*
X156530500Y-131525044D01*
X156530500Y-131695156D01*
X154797332Y-131695156D01*
X158758786Y-127733702D01*
X158771048Y-127723880D01*
X158770865Y-127723659D01*
X158776867Y-127718692D01*
X158776877Y-127718686D01*
X158824241Y-127668248D01*
X158845120Y-127647370D01*
X158849380Y-127641877D01*
X158853150Y-127637463D01*
X158869596Y-127619950D01*
X158929836Y-127584558D01*
X158999649Y-127587352D01*
X159047666Y-127617156D01*
X164627694Y-133197184D01*
X164637519Y-133209448D01*
X164637740Y-133209266D01*
X164642710Y-133215273D01*
X164642713Y-133215276D01*
X164642714Y-133215277D01*
X164693151Y-133262641D01*
X164714030Y-133283520D01*
X164719504Y-133287766D01*
X164723942Y-133291556D01*
X164757918Y-133323462D01*
X164757922Y-133323464D01*
X164775473Y-133333113D01*
X164791731Y-133343792D01*
X164807564Y-133356074D01*
X164818426Y-133360774D01*
X164850337Y-133374583D01*
X164855581Y-133377152D01*
X164896408Y-133399597D01*
X164915812Y-133404579D01*
X164934210Y-133410878D01*
X164952605Y-133418838D01*
X164998629Y-133426126D01*
X165004332Y-133427307D01*
X165049481Y-133438900D01*
X165069516Y-133438900D01*
X165088913Y-133440426D01*
X165108696Y-133443560D01*
X165155084Y-133439175D01*
X165160922Y-133438900D01*
X165206469Y-133438900D01*
X165273508Y-133458585D01*
X165302323Y-133484236D01*
X165323527Y-133510073D01*
X165472828Y-133632600D01*
X165643163Y-133723647D01*
X165827988Y-133779713D01*
X166020200Y-133798644D01*
X166212412Y-133779713D01*
X166397237Y-133723647D01*
X166567572Y-133632600D01*
X166716873Y-133510073D01*
X166839400Y-133360772D01*
X166930447Y-133190437D01*
X166986513Y-133005612D01*
X167005444Y-132813400D01*
X166986513Y-132621188D01*
X166930447Y-132436363D01*
X166839400Y-132266028D01*
X166738077Y-132142564D01*
X166716873Y-132116726D01*
X166567573Y-131994200D01*
X166463682Y-131938668D01*
X166413839Y-131889705D01*
X166398379Y-131821568D01*
X166422212Y-131755888D01*
X166477770Y-131713520D01*
X166491309Y-131709204D01*
X166498080Y-131707465D01*
X166498092Y-131707464D01*
X166541422Y-131690307D01*
X166546946Y-131688417D01*
X166550696Y-131687327D01*
X166591690Y-131675418D01*
X166608929Y-131665222D01*
X166626403Y-131656662D01*
X166645027Y-131649288D01*
X166645027Y-131649287D01*
X166645032Y-131649286D01*
X166682749Y-131621882D01*
X166687605Y-131618692D01*
X166727720Y-131594970D01*
X166741889Y-131580799D01*
X166756679Y-131568168D01*
X166772887Y-131556394D01*
X166802599Y-131520476D01*
X166806512Y-131516176D01*
X168214387Y-130108302D01*
X168226642Y-130098486D01*
X168226459Y-130098264D01*
X168232466Y-130093292D01*
X168232477Y-130093286D01*
X168263375Y-130060382D01*
X168279827Y-130042864D01*
X168290271Y-130032418D01*
X168300720Y-130021971D01*
X168304979Y-130016478D01*
X168308752Y-130012061D01*
X168340662Y-129978082D01*
X168350313Y-129960524D01*
X168360996Y-129944261D01*
X168373273Y-129928436D01*
X168391785Y-129885653D01*
X168394338Y-129880441D01*
X168416797Y-129839592D01*
X168421780Y-129820180D01*
X168428081Y-129801780D01*
X168436037Y-129783396D01*
X168443329Y-129737352D01*
X168444506Y-129731671D01*
X168456100Y-129686519D01*
X168456100Y-129666483D01*
X168457627Y-129647082D01*
X168460760Y-129627304D01*
X168456375Y-129580915D01*
X168456100Y-129575077D01*
X168456100Y-118783352D01*
X168475785Y-118716313D01*
X168528589Y-118670558D01*
X168597747Y-118660614D01*
X168661303Y-118689639D01*
X168667781Y-118695671D01*
X169086657Y-119114547D01*
X169120142Y-119175870D01*
X169115158Y-119245562D01*
X169100551Y-119273351D01*
X168986965Y-119435569D01*
X168986964Y-119435571D01*
X168887098Y-119649735D01*
X168887094Y-119649744D01*
X168825938Y-119877986D01*
X168825936Y-119877996D01*
X168805341Y-120113399D01*
X168805341Y-120113400D01*
X168825936Y-120348803D01*
X168825938Y-120348813D01*
X168887094Y-120577055D01*
X168887096Y-120577059D01*
X168887097Y-120577063D01*
X168975119Y-120765826D01*
X168986965Y-120791230D01*
X168986967Y-120791234D01*
X169072157Y-120912897D01*
X169109557Y-120966310D01*
X169122501Y-120984795D01*
X169122506Y-120984802D01*
X169289597Y-121151893D01*
X169289603Y-121151898D01*
X169475158Y-121281825D01*
X169518783Y-121336402D01*
X169525977Y-121405900D01*
X169494454Y-121468255D01*
X169475158Y-121484975D01*
X169289597Y-121614905D01*
X169122505Y-121781997D01*
X168986965Y-121975569D01*
X168986964Y-121975571D01*
X168887098Y-122189735D01*
X168887094Y-122189744D01*
X168825938Y-122417986D01*
X168825936Y-122417996D01*
X168805341Y-122653399D01*
X168805341Y-122653400D01*
X168825936Y-122888803D01*
X168825938Y-122888813D01*
X168887094Y-123117055D01*
X168887096Y-123117059D01*
X168887097Y-123117063D01*
X168962563Y-123278900D01*
X168986965Y-123331230D01*
X168986967Y-123331234D01*
X169027675Y-123389370D01*
X169111720Y-123509399D01*
X169122501Y-123524795D01*
X169122506Y-123524802D01*
X169289597Y-123691893D01*
X169289603Y-123691898D01*
X169475158Y-123821825D01*
X169518783Y-123876402D01*
X169525977Y-123945900D01*
X169494454Y-124008255D01*
X169475158Y-124024975D01*
X169289597Y-124154905D01*
X169122505Y-124321997D01*
X168986965Y-124515569D01*
X168986964Y-124515571D01*
X168887098Y-124729735D01*
X168887094Y-124729744D01*
X168825938Y-124957986D01*
X168825936Y-124957996D01*
X168805341Y-125193399D01*
X168805341Y-125193400D01*
X168825936Y-125428803D01*
X168825938Y-125428813D01*
X168887094Y-125657055D01*
X168887096Y-125657059D01*
X168887097Y-125657063D01*
X168986965Y-125871230D01*
X168986967Y-125871234D01*
X169122501Y-126064795D01*
X169122506Y-126064802D01*
X169289597Y-126231893D01*
X169289603Y-126231898D01*
X169475158Y-126361825D01*
X169518783Y-126416402D01*
X169525977Y-126485900D01*
X169494454Y-126548255D01*
X169475158Y-126564975D01*
X169289597Y-126694905D01*
X169122505Y-126861997D01*
X168986965Y-127055569D01*
X168986964Y-127055571D01*
X168887098Y-127269735D01*
X168887094Y-127269744D01*
X168825938Y-127497986D01*
X168825936Y-127497996D01*
X168805341Y-127733399D01*
X168805341Y-127733400D01*
X168825936Y-127968803D01*
X168825938Y-127968813D01*
X168887094Y-128197055D01*
X168887096Y-128197059D01*
X168887097Y-128197063D01*
X168971742Y-128378585D01*
X168986965Y-128411230D01*
X168986967Y-128411234D01*
X169055605Y-128509258D01*
X169122505Y-128604801D01*
X169289599Y-128771895D01*
X169326734Y-128797897D01*
X169483165Y-128907432D01*
X169483167Y-128907433D01*
X169483170Y-128907435D01*
X169697337Y-129007303D01*
X169925592Y-129068463D01*
X170113918Y-129084939D01*
X170160999Y-129089059D01*
X170161000Y-129089059D01*
X170161001Y-129089059D01*
X170200234Y-129085626D01*
X170396408Y-129068463D01*
X170624663Y-129007303D01*
X170838830Y-128907435D01*
X171032401Y-128771895D01*
X171199495Y-128604801D01*
X171335035Y-128411230D01*
X171434903Y-128197063D01*
X171496063Y-127968808D01*
X171516659Y-127733400D01*
X171496063Y-127497992D01*
X171434903Y-127269737D01*
X171335035Y-127055571D01*
X171321841Y-127036727D01*
X171199494Y-126861997D01*
X171032402Y-126694906D01*
X171032396Y-126694901D01*
X170846842Y-126564975D01*
X170803217Y-126510398D01*
X170796023Y-126440900D01*
X170827546Y-126378545D01*
X170846842Y-126361825D01*
X170936271Y-126299206D01*
X171032401Y-126231895D01*
X171199495Y-126064801D01*
X171335035Y-125871230D01*
X171434903Y-125657063D01*
X171496063Y-125428808D01*
X171516659Y-125193400D01*
X171496063Y-124957992D01*
X171434903Y-124729737D01*
X171335035Y-124515571D01*
X171321841Y-124496727D01*
X171199494Y-124321997D01*
X171032402Y-124154906D01*
X171032396Y-124154901D01*
X170846842Y-124024975D01*
X170803217Y-123970398D01*
X170796023Y-123900900D01*
X170827546Y-123838545D01*
X170846842Y-123821825D01*
X170912892Y-123775576D01*
X171032401Y-123691895D01*
X171199495Y-123524801D01*
X171335035Y-123331230D01*
X171434903Y-123117063D01*
X171496063Y-122888808D01*
X171516659Y-122653400D01*
X171496063Y-122417992D01*
X171434903Y-122189737D01*
X171335035Y-121975571D01*
X171321841Y-121956727D01*
X171199494Y-121781997D01*
X171032402Y-121614906D01*
X171032396Y-121614901D01*
X170846842Y-121484975D01*
X170803217Y-121430398D01*
X170796023Y-121360900D01*
X170827546Y-121298545D01*
X170846842Y-121281825D01*
X170869026Y-121266291D01*
X171032401Y-121151895D01*
X171199495Y-120984801D01*
X171335035Y-120791230D01*
X171434903Y-120577063D01*
X171496063Y-120348808D01*
X171516659Y-120113400D01*
X171496063Y-119877992D01*
X171434903Y-119649737D01*
X171335035Y-119435571D01*
X171326414Y-119423258D01*
X171199494Y-119241997D01*
X171032402Y-119074906D01*
X171032401Y-119074905D01*
X170984564Y-119041409D01*
X170846839Y-118944973D01*
X170803216Y-118890397D01*
X170796023Y-118820898D01*
X170827545Y-118758544D01*
X170846831Y-118741832D01*
X171032401Y-118611895D01*
X171199495Y-118444801D01*
X171335035Y-118251230D01*
X171434903Y-118037063D01*
X171496063Y-117808808D01*
X171516659Y-117573400D01*
X171496063Y-117337992D01*
X171434903Y-117109737D01*
X171335035Y-116895571D01*
X171321841Y-116876727D01*
X171199494Y-116701997D01*
X171032402Y-116534906D01*
X171032396Y-116534901D01*
X170846842Y-116404975D01*
X170803217Y-116350398D01*
X170796023Y-116280900D01*
X170827546Y-116218545D01*
X170846842Y-116201825D01*
X170946282Y-116132196D01*
X171032401Y-116071895D01*
X171199495Y-115904801D01*
X171335035Y-115711230D01*
X171434903Y-115497063D01*
X171496063Y-115268808D01*
X171516659Y-115033400D01*
X171496063Y-114797992D01*
X171434903Y-114569737D01*
X171335035Y-114355571D01*
X171321841Y-114336727D01*
X171199494Y-114161997D01*
X171032402Y-113994906D01*
X171032396Y-113994901D01*
X170846842Y-113864975D01*
X170803217Y-113810398D01*
X170796023Y-113740900D01*
X170827546Y-113678545D01*
X170846842Y-113661825D01*
X170903826Y-113621924D01*
X171032401Y-113531895D01*
X171199495Y-113364801D01*
X171335035Y-113171230D01*
X171434903Y-112957063D01*
X171496063Y-112728808D01*
X171516659Y-112493400D01*
X171496063Y-112257992D01*
X171434903Y-112029737D01*
X171335035Y-111815571D01*
X171321841Y-111796727D01*
X171199494Y-111621997D01*
X171032402Y-111454906D01*
X171032401Y-111454905D01*
X170989355Y-111424764D01*
X170846839Y-111324973D01*
X170803216Y-111270397D01*
X170796023Y-111200898D01*
X170827545Y-111138544D01*
X170846831Y-111121832D01*
X171032401Y-110991895D01*
X171199495Y-110824801D01*
X171335035Y-110631230D01*
X171434903Y-110417063D01*
X171496063Y-110188808D01*
X171516659Y-109953400D01*
X171496063Y-109717992D01*
X171434903Y-109489737D01*
X171387222Y-109387486D01*
X171376730Y-109318409D01*
X171405250Y-109254625D01*
X171419344Y-109241585D01*
X171419201Y-109241433D01*
X171424882Y-109236097D01*
X171424887Y-109236094D01*
X171454599Y-109200176D01*
X171458511Y-109195878D01*
X171721687Y-108932701D01*
X171733950Y-108922879D01*
X171733766Y-108922657D01*
X171739770Y-108917690D01*
X171739777Y-108917686D01*
X171787126Y-108867263D01*
X171808020Y-108846371D01*
X171812271Y-108840889D01*
X171816065Y-108836448D01*
X171847962Y-108802482D01*
X171857615Y-108784920D01*
X171868289Y-108768670D01*
X171880573Y-108752836D01*
X171899080Y-108710067D01*
X171901649Y-108704824D01*
X171924096Y-108663993D01*
X171924097Y-108663992D01*
X171929077Y-108644591D01*
X171935378Y-108626188D01*
X171943338Y-108607796D01*
X171950630Y-108561749D01*
X171951811Y-108556052D01*
X171963400Y-108510919D01*
X171963400Y-108490883D01*
X171964927Y-108471482D01*
X171968060Y-108451704D01*
X171963675Y-108405315D01*
X171963400Y-108399477D01*
X171963400Y-106475242D01*
X171965124Y-106459622D01*
X171964839Y-106459595D01*
X171965573Y-106451833D01*
X171963400Y-106382672D01*
X171963400Y-106353156D01*
X171963400Y-106353150D01*
X171962531Y-106346279D01*
X171962073Y-106340452D01*
X171961464Y-106321069D01*
X171960610Y-106293873D01*
X171955019Y-106274630D01*
X171951073Y-106255578D01*
X171948564Y-106235708D01*
X171931404Y-106192367D01*
X171929524Y-106186879D01*
X171916518Y-106142110D01*
X171906322Y-106124870D01*
X171897761Y-106107394D01*
X171890387Y-106088770D01*
X171890386Y-106088768D01*
X171862979Y-106051045D01*
X171859788Y-106046186D01*
X171852409Y-106033709D01*
X171836070Y-106006080D01*
X171836068Y-106006078D01*
X171836065Y-106006074D01*
X171821906Y-105991915D01*
X171809268Y-105977119D01*
X171808767Y-105976429D01*
X171797494Y-105960913D01*
X171782780Y-105948741D01*
X171761588Y-105931209D01*
X171757276Y-105927286D01*
X169512703Y-103682712D01*
X169502880Y-103670450D01*
X169502659Y-103670634D01*
X169497686Y-103664623D01*
X169479059Y-103647131D01*
X169447264Y-103617273D01*
X169436819Y-103606828D01*
X169426375Y-103596383D01*
X169420886Y-103592125D01*
X169416461Y-103588347D01*
X169382482Y-103556438D01*
X169382480Y-103556436D01*
X169382477Y-103556435D01*
X169364929Y-103546788D01*
X169348663Y-103536104D01*
X169332833Y-103523825D01*
X169290068Y-103505318D01*
X169284822Y-103502748D01*
X169243993Y-103480303D01*
X169243992Y-103480302D01*
X169224593Y-103475322D01*
X169206181Y-103469018D01*
X169187798Y-103461062D01*
X169187792Y-103461060D01*
X169141774Y-103453772D01*
X169136052Y-103452587D01*
X169090921Y-103441000D01*
X169090919Y-103441000D01*
X169070884Y-103441000D01*
X169051486Y-103439473D01*
X169044062Y-103438297D01*
X169031705Y-103436340D01*
X169031704Y-103436340D01*
X168985316Y-103440725D01*
X168979478Y-103441000D01*
X165170637Y-103441000D01*
X165155020Y-103439276D01*
X165154993Y-103439562D01*
X165147231Y-103438827D01*
X165078103Y-103441000D01*
X165048550Y-103441000D01*
X165047829Y-103441090D01*
X165041657Y-103441869D01*
X165035845Y-103442326D01*
X164989273Y-103443790D01*
X164989272Y-103443790D01*
X164970029Y-103449381D01*
X164950979Y-103453325D01*
X164931111Y-103455834D01*
X164931109Y-103455835D01*
X164887784Y-103472988D01*
X164882257Y-103474880D01*
X164837510Y-103487881D01*
X164837509Y-103487882D01*
X164820267Y-103498079D01*
X164802799Y-103506637D01*
X164784169Y-103514013D01*
X164784167Y-103514014D01*
X164746476Y-103541398D01*
X164741594Y-103544605D01*
X164701479Y-103568330D01*
X164687308Y-103582500D01*
X164672523Y-103595128D01*
X164656312Y-103606907D01*
X164626609Y-103642810D01*
X164622677Y-103647131D01*
X159252081Y-109017727D01*
X159190758Y-109051212D01*
X159121066Y-109046228D01*
X159065133Y-109004356D01*
X159040716Y-108938892D01*
X159040400Y-108930046D01*
X159040400Y-107227687D01*
X159060085Y-107160648D01*
X159072250Y-107144715D01*
X159090791Y-107124122D01*
X159147433Y-107061216D01*
X159242079Y-106897284D01*
X159300574Y-106717256D01*
X159320360Y-106529000D01*
X159300574Y-106340744D01*
X159242079Y-106160716D01*
X159147433Y-105996784D01*
X159020771Y-105856112D01*
X159020770Y-105856111D01*
X158867634Y-105744851D01*
X158867629Y-105744848D01*
X158694707Y-105667857D01*
X158694702Y-105667855D01*
X158548901Y-105636865D01*
X158509546Y-105628500D01*
X158320254Y-105628500D01*
X158287797Y-105635398D01*
X158135097Y-105667855D01*
X158135092Y-105667857D01*
X157962170Y-105744848D01*
X157962165Y-105744851D01*
X157809029Y-105856111D01*
X157682366Y-105996785D01*
X157587721Y-106160715D01*
X157587718Y-106160722D01*
X157529321Y-106340452D01*
X157529226Y-106340744D01*
X157509440Y-106529000D01*
X157529226Y-106717256D01*
X157529227Y-106717259D01*
X157587718Y-106897277D01*
X157587721Y-106897284D01*
X157682367Y-107061216D01*
X157725672Y-107109310D01*
X157757550Y-107144715D01*
X157787780Y-107207706D01*
X157789400Y-107227687D01*
X157789400Y-109219068D01*
X157769715Y-109286107D01*
X157716911Y-109331862D01*
X157647753Y-109341806D01*
X157614965Y-109332348D01*
X157575002Y-109314555D01*
X157424491Y-109282564D01*
X157389846Y-109275200D01*
X157200554Y-109275200D01*
X157168097Y-109282098D01*
X157015397Y-109314555D01*
X157015392Y-109314557D01*
X156842470Y-109391548D01*
X156842465Y-109391551D01*
X156689329Y-109502811D01*
X156562666Y-109643485D01*
X156468021Y-109807415D01*
X156468018Y-109807422D01*
X156414206Y-109973040D01*
X156374768Y-110030716D01*
X156310410Y-110057914D01*
X156241563Y-110045999D01*
X156208594Y-110022403D01*
X151781513Y-105595322D01*
X151748028Y-105533999D01*
X151752713Y-105468481D01*
X151752507Y-105468433D01*
X151752808Y-105467159D01*
X151753011Y-105464313D01*
X151754291Y-105460883D01*
X151760700Y-105401273D01*
X151760699Y-104345528D01*
X151754291Y-104285917D01*
X151703996Y-104151069D01*
X151703995Y-104151068D01*
X151703993Y-104151064D01*
X151617747Y-104035855D01*
X151617744Y-104035852D01*
X151502535Y-103949606D01*
X151502528Y-103949602D01*
X151367682Y-103899308D01*
X151367683Y-103899308D01*
X151308083Y-103892901D01*
X151308081Y-103892900D01*
X151308073Y-103892900D01*
X151308064Y-103892900D01*
X150252329Y-103892900D01*
X150252323Y-103892901D01*
X150192716Y-103899308D01*
X150057871Y-103949602D01*
X150057864Y-103949606D01*
X149942655Y-104035852D01*
X149942652Y-104035855D01*
X149856406Y-104151064D01*
X149856402Y-104151071D01*
X149806108Y-104285917D01*
X149799701Y-104345516D01*
X149799701Y-104345523D01*
X149799700Y-104345535D01*
X149799700Y-105401270D01*
X149799701Y-105401276D01*
X149806108Y-105460883D01*
X149856402Y-105595728D01*
X149856406Y-105595735D01*
X149942652Y-105710944D01*
X149942655Y-105710947D01*
X150057866Y-105797194D01*
X150057867Y-105797194D01*
X150057869Y-105797196D01*
X150118546Y-105819826D01*
X150174479Y-105861696D01*
X150193143Y-105897687D01*
X150209732Y-105948740D01*
X150214107Y-105955633D01*
X150224703Y-105976429D01*
X150227711Y-105984026D01*
X150227713Y-105984031D01*
X150261465Y-106030487D01*
X150263655Y-106033709D01*
X150294413Y-106082176D01*
X150300364Y-106087764D01*
X150315804Y-106105278D01*
X150320603Y-106111885D01*
X150364847Y-106148487D01*
X150367767Y-106151061D01*
X150409618Y-106190362D01*
X150416778Y-106194298D01*
X150436079Y-106207414D01*
X150442377Y-106212624D01*
X150442378Y-106212624D01*
X150442379Y-106212625D01*
X150494325Y-106237069D01*
X150497792Y-106238835D01*
X150515952Y-106248819D01*
X150565215Y-106298365D01*
X150579871Y-106366680D01*
X150555267Y-106432074D01*
X150499214Y-106473785D01*
X150492209Y-106476140D01*
X150403164Y-106503152D01*
X150354807Y-106529000D01*
X150232828Y-106594200D01*
X150232826Y-106594201D01*
X150232825Y-106594202D01*
X150083526Y-106716726D01*
X149961002Y-106866025D01*
X149869954Y-107036360D01*
X149813886Y-107221189D01*
X149794956Y-107413400D01*
X149813886Y-107605610D01*
X149813887Y-107605612D01*
X149869953Y-107790437D01*
X149961000Y-107960772D01*
X149961002Y-107960774D01*
X150083526Y-108110073D01*
X150173707Y-108184081D01*
X150232828Y-108232600D01*
X150403163Y-108323647D01*
X150587988Y-108379713D01*
X150780200Y-108398644D01*
X150972412Y-108379713D01*
X151157237Y-108323647D01*
X151327572Y-108232600D01*
X151476873Y-108110073D01*
X151498077Y-108084236D01*
X151555823Y-108044901D01*
X151593931Y-108038900D01*
X151751748Y-108038900D01*
X151818787Y-108058585D01*
X151839429Y-108075219D01*
X152880429Y-109116219D01*
X152913914Y-109177542D01*
X152908930Y-109247234D01*
X152867058Y-109303167D01*
X152801594Y-109327584D01*
X152792748Y-109327900D01*
X151593931Y-109327900D01*
X151526892Y-109308215D01*
X151498077Y-109282564D01*
X151476874Y-109256728D01*
X151474311Y-109254625D01*
X151402714Y-109195867D01*
X151327575Y-109134202D01*
X151327573Y-109134201D01*
X151327572Y-109134200D01*
X151157237Y-109043153D01*
X151064824Y-109015120D01*
X150972410Y-108987086D01*
X150780200Y-108968156D01*
X150587989Y-108987086D01*
X150403160Y-109043154D01*
X150300354Y-109098106D01*
X150232828Y-109134200D01*
X150232826Y-109134201D01*
X150232825Y-109134202D01*
X150083526Y-109256726D01*
X149961002Y-109406025D01*
X149869954Y-109576360D01*
X149813886Y-109761189D01*
X149794956Y-109953400D01*
X149813886Y-110145610D01*
X149813887Y-110145612D01*
X149869953Y-110330437D01*
X149961000Y-110500772D01*
X149961002Y-110500774D01*
X150083526Y-110650073D01*
X150173707Y-110724081D01*
X150232828Y-110772600D01*
X150403163Y-110863647D01*
X150587988Y-110919713D01*
X150780200Y-110938644D01*
X150972412Y-110919713D01*
X151157237Y-110863647D01*
X151327572Y-110772600D01*
X151476873Y-110650073D01*
X151498077Y-110624236D01*
X151555823Y-110584901D01*
X151593931Y-110578900D01*
X153626848Y-110578900D01*
X153693887Y-110598585D01*
X153714529Y-110615219D01*
X154264130Y-111164820D01*
X154297615Y-111226143D01*
X154292631Y-111295835D01*
X154291010Y-111299953D01*
X154239314Y-111424760D01*
X154239313Y-111424764D01*
X154224500Y-111537272D01*
X154224500Y-111743900D01*
X154204815Y-111810939D01*
X154152011Y-111856694D01*
X154100500Y-111867900D01*
X151593931Y-111867900D01*
X151526892Y-111848215D01*
X151498077Y-111822564D01*
X151476874Y-111796728D01*
X151469264Y-111790483D01*
X151403191Y-111736258D01*
X151327575Y-111674202D01*
X151327573Y-111674201D01*
X151327572Y-111674200D01*
X151157237Y-111583153D01*
X151064824Y-111555120D01*
X150972410Y-111527086D01*
X150780200Y-111508156D01*
X150587989Y-111527086D01*
X150403160Y-111583154D01*
X150330488Y-111621999D01*
X150232828Y-111674200D01*
X150232826Y-111674201D01*
X150232825Y-111674202D01*
X150083526Y-111796726D01*
X149961002Y-111946025D01*
X149961000Y-111946028D01*
X149944559Y-111976787D01*
X149869954Y-112116360D01*
X149813886Y-112301189D01*
X149794956Y-112493400D01*
X149813886Y-112685610D01*
X149813887Y-112685612D01*
X149869953Y-112870437D01*
X149961000Y-113040772D01*
X149980454Y-113064477D01*
X150083526Y-113190073D01*
X150157209Y-113250542D01*
X150232828Y-113312600D01*
X150346774Y-113373506D01*
X150396617Y-113422468D01*
X150412077Y-113490605D01*
X150388245Y-113556285D01*
X150332687Y-113598654D01*
X150322915Y-113601939D01*
X150304535Y-113607279D01*
X150285479Y-113611225D01*
X150265611Y-113613734D01*
X150222284Y-113630888D01*
X150216758Y-113632779D01*
X150172014Y-113645779D01*
X150172010Y-113645781D01*
X150154766Y-113655979D01*
X150137305Y-113664533D01*
X150118674Y-113671910D01*
X150118662Y-113671917D01*
X150080970Y-113699302D01*
X150076087Y-113702509D01*
X150035980Y-113726229D01*
X150021814Y-113740395D01*
X150007024Y-113753027D01*
X149990814Y-113764804D01*
X149990811Y-113764807D01*
X149961110Y-113800709D01*
X149957177Y-113805031D01*
X149588411Y-114173797D01*
X149576148Y-114183622D01*
X149576331Y-114183844D01*
X149570321Y-114188815D01*
X149522972Y-114239236D01*
X149502089Y-114260119D01*
X149502077Y-114260132D01*
X149497821Y-114265617D01*
X149494037Y-114270047D01*
X149462137Y-114304018D01*
X149462136Y-114304020D01*
X149452484Y-114321576D01*
X149441810Y-114337826D01*
X149429529Y-114353661D01*
X149429524Y-114353668D01*
X149411015Y-114396438D01*
X149408445Y-114401684D01*
X149386003Y-114442506D01*
X149381022Y-114461907D01*
X149374721Y-114480310D01*
X149366762Y-114498702D01*
X149366761Y-114498705D01*
X149359471Y-114544727D01*
X149358287Y-114550446D01*
X149346701Y-114595572D01*
X149346700Y-114595582D01*
X149346700Y-114615616D01*
X149345173Y-114635015D01*
X149342040Y-114654794D01*
X149342040Y-114654795D01*
X149059900Y-114654795D01*
X149059900Y-102624500D01*
X149079585Y-102557461D01*
X149132389Y-102511706D01*
X149183900Y-102500500D01*
X173354825Y-102500500D01*
X173421864Y-102520185D01*
G37*
%TD.AperFunction*%
%TA.AperFunction,NonConductor*%
G36*
X168768487Y-104711685D02*
G01*
X168789129Y-104728319D01*
X169912029Y-105851219D01*
X169945514Y-105912542D01*
X169940530Y-105982234D01*
X169898658Y-106038167D01*
X169833194Y-106062584D01*
X169824348Y-106062900D01*
X169263129Y-106062900D01*
X169263123Y-106062901D01*
X169203516Y-106069308D01*
X169068671Y-106119602D01*
X169068664Y-106119606D01*
X168953455Y-106205852D01*
X168914070Y-106258464D01*
X168858136Y-106300334D01*
X168788444Y-106305318D01*
X168727123Y-106271833D01*
X168294438Y-105839148D01*
X167767203Y-105311912D01*
X167757380Y-105299650D01*
X167757159Y-105299834D01*
X167752186Y-105293823D01*
X167701764Y-105246473D01*
X167691319Y-105236028D01*
X167680875Y-105225583D01*
X167675386Y-105221325D01*
X167670961Y-105217547D01*
X167636982Y-105185638D01*
X167636980Y-105185636D01*
X167636977Y-105185635D01*
X167619429Y-105175988D01*
X167603163Y-105165304D01*
X167587333Y-105153025D01*
X167544568Y-105134518D01*
X167539322Y-105131948D01*
X167498493Y-105109503D01*
X167498492Y-105109502D01*
X167479093Y-105104522D01*
X167460681Y-105098218D01*
X167442298Y-105090262D01*
X167442292Y-105090260D01*
X167396274Y-105082972D01*
X167390552Y-105081787D01*
X167345421Y-105070200D01*
X167345419Y-105070200D01*
X167325384Y-105070200D01*
X167305986Y-105068673D01*
X167298562Y-105067497D01*
X167286205Y-105065540D01*
X167286204Y-105065540D01*
X167239816Y-105069925D01*
X167233978Y-105070200D01*
X167124700Y-105070200D01*
X167057661Y-105050515D01*
X167011906Y-104997711D01*
X167000700Y-104946201D01*
X167000699Y-104816001D01*
X167020383Y-104748961D01*
X167073187Y-104703206D01*
X167124699Y-104692000D01*
X168701448Y-104692000D01*
X168768487Y-104711685D01*
G37*
%TD.AperFunction*%
%TA.AperFunction,NonConductor*%
G36*
X165273508Y-110598585D02*
G01*
X165302323Y-110624236D01*
X165323527Y-110650073D01*
X165472828Y-110772600D01*
X165552418Y-110815142D01*
X165602262Y-110864105D01*
X165617722Y-110932243D01*
X165593890Y-110997922D01*
X165538332Y-111040291D01*
X165493964Y-111048500D01*
X163406553Y-111048500D01*
X163339514Y-111028815D01*
X163293759Y-110976011D01*
X163283815Y-110906853D01*
X163312840Y-110843297D01*
X163318872Y-110836819D01*
X163540472Y-110615219D01*
X163601795Y-110581734D01*
X163628153Y-110578900D01*
X165206469Y-110578900D01*
X165273508Y-110598585D01*
G37*
%TD.AperFunction*%
%TA.AperFunction,NonConductor*%
G36*
X169247703Y-113490445D02*
G01*
X169254181Y-113496477D01*
X169289597Y-113531893D01*
X169289603Y-113531898D01*
X169475158Y-113661825D01*
X169518783Y-113716402D01*
X169525977Y-113785900D01*
X169494454Y-113848255D01*
X169475158Y-113864975D01*
X169289597Y-113994905D01*
X169254181Y-114030322D01*
X169192858Y-114063807D01*
X169123166Y-114058823D01*
X169067233Y-114016951D01*
X169042816Y-113951487D01*
X169042500Y-113942641D01*
X169042500Y-113584158D01*
X169062185Y-113517119D01*
X169114989Y-113471364D01*
X169184147Y-113461420D01*
X169247703Y-113490445D01*
G37*
%TD.AperFunction*%
%TA.AperFunction,NonConductor*%
G36*
X159157599Y-113562786D02*
G01*
X159217258Y-113599153D01*
X159247784Y-113662002D01*
X159249500Y-113682559D01*
X159249500Y-115260447D01*
X159229815Y-115327486D01*
X159213181Y-115348128D01*
X159212181Y-115349128D01*
X159150858Y-115382613D01*
X159081166Y-115377629D01*
X159025233Y-115335757D01*
X159000816Y-115270293D01*
X159000500Y-115261447D01*
X159000500Y-113682559D01*
X159020185Y-113615520D01*
X159072989Y-113569765D01*
X159092401Y-113562786D01*
X159092901Y-113562652D01*
X159157099Y-113562652D01*
X159157599Y-113562786D01*
G37*
%TD.AperFunction*%
%TA.AperFunction,NonConductor*%
G36*
X166947177Y-108044067D02*
G01*
X167755181Y-108852071D01*
X167788666Y-108913394D01*
X167791500Y-108939752D01*
X167791500Y-115620747D01*
X167771815Y-115687786D01*
X167719011Y-115733541D01*
X167649853Y-115743485D01*
X167586297Y-115714460D01*
X167579819Y-115708428D01*
X167037889Y-115166498D01*
X167004404Y-115105175D01*
X167002167Y-115066666D01*
X167005444Y-115033400D01*
X166986513Y-114841188D01*
X166930447Y-114656363D01*
X166839400Y-114486028D01*
X166716873Y-114336727D01*
X166716872Y-114336726D01*
X166611000Y-114249839D01*
X166571666Y-114192094D01*
X166569795Y-114122249D01*
X166601982Y-114066307D01*
X167232888Y-113435401D01*
X167245142Y-113425586D01*
X167244959Y-113425364D01*
X167250966Y-113420392D01*
X167250977Y-113420386D01*
X167288056Y-113380901D01*
X167298327Y-113369964D01*
X167308771Y-113359518D01*
X167319220Y-113349071D01*
X167323479Y-113343578D01*
X167327252Y-113339161D01*
X167359162Y-113305182D01*
X167368815Y-113287620D01*
X167379489Y-113271370D01*
X167391773Y-113255536D01*
X167410280Y-113212767D01*
X167412849Y-113207524D01*
X167435296Y-113166693D01*
X167435297Y-113166692D01*
X167440277Y-113147291D01*
X167446578Y-113128888D01*
X167454538Y-113110496D01*
X167461830Y-113064449D01*
X167463011Y-113058752D01*
X167474600Y-113013619D01*
X167474600Y-112993583D01*
X167476127Y-112974182D01*
X167479260Y-112954404D01*
X167474875Y-112908015D01*
X167474600Y-112902177D01*
X167474600Y-112259642D01*
X167476324Y-112244022D01*
X167476039Y-112243996D01*
X167476771Y-112236240D01*
X167476773Y-112236233D01*
X167474600Y-112167085D01*
X167474600Y-112137550D01*
X167473731Y-112130672D01*
X167473272Y-112124843D01*
X167471809Y-112078272D01*
X167466222Y-112059044D01*
X167462274Y-112039984D01*
X167460980Y-112029737D01*
X167459764Y-112020108D01*
X167459763Y-112020106D01*
X167459763Y-112020104D01*
X167442612Y-111976787D01*
X167440719Y-111971258D01*
X167427718Y-111926509D01*
X167427716Y-111926506D01*
X167417523Y-111909271D01*
X167408961Y-111891794D01*
X167401587Y-111873170D01*
X167401586Y-111873168D01*
X167374179Y-111835445D01*
X167370988Y-111830586D01*
X167362108Y-111815571D01*
X167350965Y-111796728D01*
X167347272Y-111790483D01*
X167347265Y-111790474D01*
X167333106Y-111776315D01*
X167320468Y-111761519D01*
X167308694Y-111745313D01*
X167297748Y-111736258D01*
X167272788Y-111715609D01*
X167268476Y-111711686D01*
X166847006Y-111290216D01*
X166837181Y-111277952D01*
X166836960Y-111278136D01*
X166831985Y-111272121D01*
X166805238Y-111247004D01*
X166781564Y-111224773D01*
X166771119Y-111214328D01*
X166760675Y-111203883D01*
X166755186Y-111199625D01*
X166750761Y-111195847D01*
X166716782Y-111163938D01*
X166716780Y-111163936D01*
X166716777Y-111163935D01*
X166699229Y-111154288D01*
X166682963Y-111143604D01*
X166667133Y-111131325D01*
X166624368Y-111112818D01*
X166619122Y-111110248D01*
X166578293Y-111087803D01*
X166578292Y-111087802D01*
X166558893Y-111082822D01*
X166540481Y-111076518D01*
X166522098Y-111068562D01*
X166522092Y-111068560D01*
X166494751Y-111064230D01*
X166431616Y-111034300D01*
X166394686Y-110974988D01*
X166395684Y-110905125D01*
X166434295Y-110846893D01*
X166455691Y-110832402D01*
X166567572Y-110772600D01*
X166716873Y-110650073D01*
X166839400Y-110500772D01*
X166930447Y-110330437D01*
X166986513Y-110145612D01*
X167005444Y-109953400D01*
X166986513Y-109761188D01*
X166930447Y-109576363D01*
X166839400Y-109406028D01*
X166767494Y-109318409D01*
X166716873Y-109256726D01*
X166567574Y-109134202D01*
X166567575Y-109134202D01*
X166567572Y-109134200D01*
X166397237Y-109043153D01*
X166304824Y-109015120D01*
X166212410Y-108987086D01*
X166020200Y-108968156D01*
X165827989Y-108987086D01*
X165643160Y-109043154D01*
X165472824Y-109134202D01*
X165323525Y-109256728D01*
X165302323Y-109282564D01*
X165244577Y-109321899D01*
X165206469Y-109327900D01*
X164473153Y-109327900D01*
X164406114Y-109308215D01*
X164360359Y-109255411D01*
X164350415Y-109186253D01*
X164379440Y-109122697D01*
X164385472Y-109116219D01*
X164588297Y-108913394D01*
X165281458Y-108220231D01*
X165342779Y-108186748D01*
X165412470Y-108191732D01*
X165447797Y-108212058D01*
X165472828Y-108232600D01*
X165643163Y-108323647D01*
X165827988Y-108379713D01*
X166020200Y-108398644D01*
X166212412Y-108379713D01*
X166397237Y-108323647D01*
X166567572Y-108232600D01*
X166716873Y-108110073D01*
X166763642Y-108053083D01*
X166821387Y-108013749D01*
X166891232Y-108011878D01*
X166947177Y-108044067D01*
G37*
%TD.AperFunction*%
%TA.AperFunction,NonConductor*%
G36*
X157657599Y-113562786D02*
G01*
X157717258Y-113599153D01*
X157747784Y-113662002D01*
X157749500Y-113682559D01*
X157749500Y-115754867D01*
X157729815Y-115821906D01*
X157723474Y-115830875D01*
X157722474Y-115832164D01*
X157665828Y-115873066D01*
X157596061Y-115876851D01*
X157535323Y-115842315D01*
X157502898Y-115780425D01*
X157500500Y-115756156D01*
X157500500Y-113682559D01*
X157520185Y-113615520D01*
X157572989Y-113569765D01*
X157592401Y-113562786D01*
X157592901Y-113562652D01*
X157657099Y-113562652D01*
X157657599Y-113562786D01*
G37*
%TD.AperFunction*%
%TA.AperFunction,NonConductor*%
G36*
X169247703Y-116030445D02*
G01*
X169254181Y-116036477D01*
X169289597Y-116071893D01*
X169289603Y-116071898D01*
X169475158Y-116201825D01*
X169518783Y-116256402D01*
X169525977Y-116325900D01*
X169494454Y-116388255D01*
X169475158Y-116404975D01*
X169289597Y-116534905D01*
X169254181Y-116570322D01*
X169192858Y-116603807D01*
X169123166Y-116598823D01*
X169067233Y-116556951D01*
X169042816Y-116491487D01*
X169042500Y-116482641D01*
X169042500Y-116124158D01*
X169062185Y-116057119D01*
X169114989Y-116011364D01*
X169184147Y-116001420D01*
X169247703Y-116030445D01*
G37*
%TD.AperFunction*%
%TA.AperFunction,NonConductor*%
G36*
X166020200Y-116018644D02*
G01*
X166053464Y-116015367D01*
X166122108Y-116028385D01*
X166153299Y-116051089D01*
X166596976Y-116494766D01*
X166630461Y-116556089D01*
X166625477Y-116625781D01*
X166583605Y-116681714D01*
X166518141Y-116706131D01*
X166450842Y-116691805D01*
X166397241Y-116663154D01*
X166212410Y-116607086D01*
X166020200Y-116588156D01*
X166020199Y-116588156D01*
X165968953Y-116593203D01*
X165900307Y-116580184D01*
X165849597Y-116532119D01*
X165832800Y-116469800D01*
X165832800Y-116136999D01*
X165852485Y-116069960D01*
X165905289Y-116024205D01*
X165968953Y-116013596D01*
X166020200Y-116018644D01*
G37*
%TD.AperFunction*%
%TA.AperFunction,NonConductor*%
G36*
X150780200Y-116018644D02*
G01*
X150813464Y-116015367D01*
X150882108Y-116028385D01*
X150913299Y-116051089D01*
X151356976Y-116494766D01*
X151390461Y-116556089D01*
X151385477Y-116625781D01*
X151343605Y-116681714D01*
X151278141Y-116706131D01*
X151210842Y-116691805D01*
X151157241Y-116663154D01*
X150972410Y-116607086D01*
X150780200Y-116588156D01*
X150780199Y-116588156D01*
X150733852Y-116592720D01*
X150665206Y-116579700D01*
X150614497Y-116531635D01*
X150597700Y-116469317D01*
X150597700Y-116137482D01*
X150617385Y-116070443D01*
X150670189Y-116024688D01*
X150733853Y-116014079D01*
X150780200Y-116018644D01*
G37*
%TD.AperFunction*%
%TA.AperFunction,NonConductor*%
G36*
X167098833Y-116996623D02*
G01*
X167168781Y-117066571D01*
X167202266Y-117127894D01*
X167205100Y-117154252D01*
X167205100Y-117265832D01*
X167185415Y-117332871D01*
X167132611Y-117378626D01*
X167063453Y-117388570D01*
X166999897Y-117359545D01*
X166962439Y-117301828D01*
X166951520Y-117265832D01*
X166930447Y-117196363D01*
X166901793Y-117142757D01*
X166887552Y-117074355D01*
X166912551Y-117009111D01*
X166968856Y-116967740D01*
X167038589Y-116963378D01*
X167098833Y-116996623D01*
G37*
%TD.AperFunction*%
%TA.AperFunction,NonConductor*%
G36*
X154210518Y-113138585D02*
G01*
X154256273Y-113191389D01*
X154258040Y-113195447D01*
X154292679Y-113279074D01*
X154297302Y-113290233D01*
X154389549Y-113410451D01*
X154509767Y-113502698D01*
X154649764Y-113560687D01*
X154756586Y-113574750D01*
X154762264Y-113575498D01*
X154762280Y-113575500D01*
X154762287Y-113575500D01*
X154987713Y-113575500D01*
X154987720Y-113575500D01*
X155100236Y-113560687D01*
X155100236Y-113560686D01*
X155108295Y-113559626D01*
X155108698Y-113562689D01*
X155141302Y-113562689D01*
X155141705Y-113559626D01*
X155149763Y-113560686D01*
X155149764Y-113560687D01*
X155262280Y-113575500D01*
X155262287Y-113575500D01*
X155487713Y-113575500D01*
X155487720Y-113575500D01*
X155600236Y-113560687D01*
X155600236Y-113560686D01*
X155608295Y-113559626D01*
X155608698Y-113562689D01*
X155641302Y-113562689D01*
X155641705Y-113559626D01*
X155649763Y-113560686D01*
X155649764Y-113560687D01*
X155762280Y-113575500D01*
X155762287Y-113575500D01*
X155987713Y-113575500D01*
X155987720Y-113575500D01*
X156100236Y-113560687D01*
X156100236Y-113560686D01*
X156108295Y-113559626D01*
X156108697Y-113562679D01*
X156157099Y-113562652D01*
X156157599Y-113562786D01*
X156217258Y-113599153D01*
X156247784Y-113662002D01*
X156249500Y-113682559D01*
X156249500Y-118143547D01*
X156229815Y-118210586D01*
X156177011Y-118256341D01*
X156107853Y-118266285D01*
X156044297Y-118237260D01*
X156037819Y-118231228D01*
X151647203Y-113840612D01*
X151637380Y-113828350D01*
X151637159Y-113828534D01*
X151632186Y-113822523D01*
X151613559Y-113805031D01*
X151581764Y-113775173D01*
X151569991Y-113763400D01*
X151560875Y-113754283D01*
X151555386Y-113750025D01*
X151550961Y-113746247D01*
X151516982Y-113714338D01*
X151516980Y-113714336D01*
X151516977Y-113714335D01*
X151499429Y-113704688D01*
X151483163Y-113694004D01*
X151473538Y-113686538D01*
X151467336Y-113681727D01*
X151467335Y-113681726D01*
X151467333Y-113681725D01*
X151424568Y-113663218D01*
X151419322Y-113660648D01*
X151378493Y-113638203D01*
X151378492Y-113638202D01*
X151359093Y-113633222D01*
X151340681Y-113626918D01*
X151322298Y-113618962D01*
X151322292Y-113618960D01*
X151276273Y-113611672D01*
X151270549Y-113610487D01*
X151241248Y-113602963D01*
X151181210Y-113567224D01*
X151150026Y-113504700D01*
X151157594Y-113435241D01*
X151201514Y-113380901D01*
X151213623Y-113373507D01*
X151327572Y-113312600D01*
X151476873Y-113190073D01*
X151493342Y-113170004D01*
X151498077Y-113164236D01*
X151555823Y-113124901D01*
X151593931Y-113118900D01*
X154143479Y-113118900D01*
X154210518Y-113138585D01*
G37*
%TD.AperFunction*%
%TA.AperFunction,NonConductor*%
G36*
X164984279Y-112319185D02*
G01*
X165030034Y-112371989D01*
X165040643Y-112435653D01*
X165034956Y-112493399D01*
X165053886Y-112685610D01*
X165106118Y-112857794D01*
X165106741Y-112927661D01*
X165075138Y-112981470D01*
X159189359Y-118867248D01*
X159128036Y-118900733D01*
X159058344Y-118895749D01*
X159009527Y-118862538D01*
X158980874Y-118830715D01*
X158980873Y-118830714D01*
X158980872Y-118830713D01*
X158980871Y-118830712D01*
X158942613Y-118802916D01*
X158899949Y-118747587D01*
X158891500Y-118702599D01*
X158891500Y-117477500D01*
X158911185Y-117410461D01*
X158963989Y-117364706D01*
X159015500Y-117353500D01*
X159087544Y-117353500D01*
X159087546Y-117353500D01*
X159272703Y-117314144D01*
X159445630Y-117237151D01*
X159598771Y-117125888D01*
X159725433Y-116985216D01*
X159820079Y-116821284D01*
X159878574Y-116641256D01*
X159896221Y-116473345D01*
X159922805Y-116408732D01*
X159931852Y-116398636D01*
X160258786Y-116071702D01*
X160271048Y-116061880D01*
X160270865Y-116061659D01*
X160276867Y-116056692D01*
X160276877Y-116056686D01*
X160324241Y-116006248D01*
X160345120Y-115985370D01*
X160349370Y-115979889D01*
X160353151Y-115975461D01*
X160385062Y-115941482D01*
X160394713Y-115923924D01*
X160405396Y-115907661D01*
X160417673Y-115891836D01*
X160436183Y-115849058D01*
X160438743Y-115843832D01*
X160461197Y-115802992D01*
X160466178Y-115783587D01*
X160472482Y-115765179D01*
X160476387Y-115756156D01*
X160480438Y-115746795D01*
X160487729Y-115700753D01*
X160488908Y-115695062D01*
X160500500Y-115649919D01*
X160500500Y-115629883D01*
X160502027Y-115610482D01*
X160505160Y-115590704D01*
X160500775Y-115544315D01*
X160500500Y-115538477D01*
X160500500Y-114363960D01*
X160520185Y-114296921D01*
X160572989Y-114251166D01*
X160642147Y-114241222D01*
X160705703Y-114270247D01*
X160716642Y-114280980D01*
X160782084Y-114353661D01*
X160782829Y-114354488D01*
X160935965Y-114465748D01*
X160935970Y-114465751D01*
X161108892Y-114542742D01*
X161108897Y-114542744D01*
X161294054Y-114582100D01*
X161294055Y-114582100D01*
X161483344Y-114582100D01*
X161483346Y-114582100D01*
X161668503Y-114542744D01*
X161841430Y-114465751D01*
X161994571Y-114354488D01*
X162121233Y-114213816D01*
X162215879Y-114049884D01*
X162274374Y-113869856D01*
X162293641Y-113686537D01*
X162320226Y-113621924D01*
X162377523Y-113581939D01*
X162416962Y-113575500D01*
X162487713Y-113575500D01*
X162487720Y-113575500D01*
X162600236Y-113560687D01*
X162740233Y-113502698D01*
X162860451Y-113410451D01*
X162952698Y-113290233D01*
X163010687Y-113150236D01*
X163025500Y-113037720D01*
X163025500Y-112572952D01*
X163045185Y-112505913D01*
X163061814Y-112485275D01*
X163211273Y-112335816D01*
X163272595Y-112302334D01*
X163298953Y-112299500D01*
X164917240Y-112299500D01*
X164984279Y-112319185D01*
G37*
%TD.AperFunction*%
%TA.AperFunction,NonConductor*%
G36*
X150780200Y-118558644D02*
G01*
X150813464Y-118555367D01*
X150882108Y-118568385D01*
X150913299Y-118591089D01*
X151356976Y-119034766D01*
X151390461Y-119096089D01*
X151385477Y-119165781D01*
X151343605Y-119221714D01*
X151278141Y-119246131D01*
X151210842Y-119231805D01*
X151157241Y-119203154D01*
X150972410Y-119147086D01*
X150780200Y-119128156D01*
X150746935Y-119131432D01*
X150678289Y-119118413D01*
X150647101Y-119095710D01*
X150634019Y-119082628D01*
X150600534Y-119021305D01*
X150597700Y-118994947D01*
X150597700Y-118677482D01*
X150617385Y-118610443D01*
X150670189Y-118564688D01*
X150733853Y-118554079D01*
X150780200Y-118558644D01*
G37*
%TD.AperFunction*%
%TA.AperFunction,NonConductor*%
G36*
X167133616Y-117768637D02*
G01*
X167186010Y-117814861D01*
X167205100Y-117880967D01*
X167205100Y-119805832D01*
X167185415Y-119872871D01*
X167132611Y-119918626D01*
X167063453Y-119928570D01*
X166999897Y-119899545D01*
X166962439Y-119841828D01*
X166944082Y-119781313D01*
X166930447Y-119736363D01*
X166928161Y-119732087D01*
X166914207Y-119705980D01*
X166839400Y-119566028D01*
X166737875Y-119442318D01*
X166716873Y-119416726D01*
X166567574Y-119294202D01*
X166567575Y-119294202D01*
X166567572Y-119294200D01*
X166397237Y-119203153D01*
X166274038Y-119165781D01*
X166212410Y-119147086D01*
X166020200Y-119128156D01*
X165986935Y-119131432D01*
X165918289Y-119118413D01*
X165887101Y-119095710D01*
X165869119Y-119077728D01*
X165835634Y-119016405D01*
X165832800Y-118990047D01*
X165832800Y-118676999D01*
X165852485Y-118609960D01*
X165905289Y-118564205D01*
X165968953Y-118553596D01*
X166020200Y-118558644D01*
X166212412Y-118539713D01*
X166397237Y-118483647D01*
X166567572Y-118392600D01*
X166716873Y-118270073D01*
X166839400Y-118120772D01*
X166930447Y-117950437D01*
X166962439Y-117844970D01*
X167000737Y-117786533D01*
X167064549Y-117758077D01*
X167133616Y-117768637D01*
G37*
%TD.AperFunction*%
%TA.AperFunction,NonConductor*%
G36*
X151858833Y-116996623D02*
G01*
X154213181Y-119350971D01*
X154246666Y-119412294D01*
X154249500Y-119438652D01*
X154249500Y-119858747D01*
X154229815Y-119925786D01*
X154177011Y-119971541D01*
X154107853Y-119981485D01*
X154044297Y-119952460D01*
X154037819Y-119946428D01*
X151797889Y-117706498D01*
X151764404Y-117645175D01*
X151762167Y-117606666D01*
X151765444Y-117573400D01*
X151746513Y-117381188D01*
X151690447Y-117196363D01*
X151661793Y-117142757D01*
X151647552Y-117074355D01*
X151672551Y-117009111D01*
X151728856Y-116967740D01*
X151798589Y-116963378D01*
X151858833Y-116996623D01*
G37*
%TD.AperFunction*%
%TA.AperFunction,NonConductor*%
G36*
X167133616Y-120308637D02*
G01*
X167186010Y-120354861D01*
X167205100Y-120420967D01*
X167205100Y-120823008D01*
X167185415Y-120890047D01*
X167132611Y-120935802D01*
X167063453Y-120945746D01*
X167005109Y-120920994D01*
X166998195Y-120915632D01*
X166993755Y-120911840D01*
X166959782Y-120879938D01*
X166950545Y-120874860D01*
X166942229Y-120870288D01*
X166925963Y-120859604D01*
X166910136Y-120847327D01*
X166895036Y-120840792D01*
X166841330Y-120796101D01*
X166820311Y-120729468D01*
X166837410Y-120666615D01*
X166836528Y-120666144D01*
X166838586Y-120662292D01*
X166838653Y-120662049D01*
X166839037Y-120661449D01*
X166839398Y-120660774D01*
X166839400Y-120660772D01*
X166930447Y-120490437D01*
X166962439Y-120384970D01*
X167000737Y-120326533D01*
X167064549Y-120298077D01*
X167133616Y-120308637D01*
G37*
%TD.AperFunction*%
%TA.AperFunction,NonConductor*%
G36*
X164501134Y-115427169D02*
G01*
X164557067Y-115469041D01*
X164581484Y-115534505D01*
X164581800Y-115543351D01*
X164581800Y-119217755D01*
X164580075Y-119233372D01*
X164580361Y-119233399D01*
X164579626Y-119241165D01*
X164581800Y-119310314D01*
X164581800Y-119339843D01*
X164581801Y-119339860D01*
X164582668Y-119346731D01*
X164583126Y-119352550D01*
X164584590Y-119399124D01*
X164584591Y-119399127D01*
X164590180Y-119418367D01*
X164594124Y-119437411D01*
X164596636Y-119457291D01*
X164613790Y-119500619D01*
X164615682Y-119506147D01*
X164624536Y-119536623D01*
X164628682Y-119550890D01*
X164637634Y-119566028D01*
X164638880Y-119568134D01*
X164647438Y-119585603D01*
X164654814Y-119604232D01*
X164682198Y-119641923D01*
X164685406Y-119646807D01*
X164709127Y-119686916D01*
X164709133Y-119686924D01*
X164723290Y-119701080D01*
X164735928Y-119715876D01*
X164747705Y-119732086D01*
X164747706Y-119732087D01*
X164783609Y-119761788D01*
X164787920Y-119765710D01*
X164900196Y-119877986D01*
X165002510Y-119980300D01*
X165035995Y-120041623D01*
X165038232Y-120080134D01*
X165034956Y-120113399D01*
X165053886Y-120305610D01*
X165109954Y-120490439D01*
X165158920Y-120582046D01*
X165173162Y-120650449D01*
X165148163Y-120715693D01*
X165091858Y-120757064D01*
X165049562Y-120764500D01*
X162196337Y-120764500D01*
X162180720Y-120762776D01*
X162180693Y-120763062D01*
X162172931Y-120762327D01*
X162103803Y-120764500D01*
X162074250Y-120764500D01*
X162073529Y-120764590D01*
X162067357Y-120765369D01*
X162061545Y-120765826D01*
X162014973Y-120767290D01*
X162014972Y-120767290D01*
X161995729Y-120772881D01*
X161976679Y-120776825D01*
X161956811Y-120779334D01*
X161956809Y-120779335D01*
X161913484Y-120796488D01*
X161907957Y-120798380D01*
X161863210Y-120811381D01*
X161863209Y-120811382D01*
X161845967Y-120821579D01*
X161828499Y-120830137D01*
X161809869Y-120837513D01*
X161809867Y-120837514D01*
X161772176Y-120864898D01*
X161767294Y-120868105D01*
X161727179Y-120891830D01*
X161713008Y-120906000D01*
X161698223Y-120918628D01*
X161682012Y-120930407D01*
X161652309Y-120966310D01*
X161648377Y-120970631D01*
X158991208Y-123627799D01*
X158978951Y-123637620D01*
X158979134Y-123637841D01*
X158973123Y-123642813D01*
X158925772Y-123693236D01*
X158904889Y-123714119D01*
X158904877Y-123714132D01*
X158900621Y-123719617D01*
X158896837Y-123724047D01*
X158864937Y-123758018D01*
X158864936Y-123758020D01*
X158855284Y-123775576D01*
X158844610Y-123791826D01*
X158832329Y-123807661D01*
X158832324Y-123807668D01*
X158813815Y-123850438D01*
X158811245Y-123855684D01*
X158788803Y-123896506D01*
X158783822Y-123915907D01*
X158777521Y-123934310D01*
X158769562Y-123952702D01*
X158769561Y-123952705D01*
X158762271Y-123998727D01*
X158761087Y-124004446D01*
X158749501Y-124049572D01*
X158749500Y-124049582D01*
X158749500Y-124069616D01*
X158747973Y-124089015D01*
X158744840Y-124108794D01*
X158744840Y-124108795D01*
X158749225Y-124155183D01*
X158749500Y-124161021D01*
X158749500Y-124267440D01*
X158729815Y-124334479D01*
X158677011Y-124380234D01*
X158657539Y-124387229D01*
X158657038Y-124387363D01*
X158608686Y-124387378D01*
X158608292Y-124390374D01*
X158600237Y-124389313D01*
X158600236Y-124389313D01*
X158571271Y-124385499D01*
X158487727Y-124374500D01*
X158487720Y-124374500D01*
X158262280Y-124374500D01*
X158262272Y-124374500D01*
X158175393Y-124385938D01*
X158149764Y-124389313D01*
X158149762Y-124389313D01*
X158141708Y-124390374D01*
X158141316Y-124387399D01*
X158108684Y-124387399D01*
X158108292Y-124390374D01*
X158100237Y-124389313D01*
X158100236Y-124389313D01*
X158071271Y-124385499D01*
X157987727Y-124374500D01*
X157987720Y-124374500D01*
X157762280Y-124374500D01*
X157762272Y-124374500D01*
X157675393Y-124385938D01*
X157649764Y-124389313D01*
X157649762Y-124389313D01*
X157641708Y-124390374D01*
X157641316Y-124387399D01*
X157608684Y-124387399D01*
X157608292Y-124390374D01*
X157600237Y-124389313D01*
X157600236Y-124389313D01*
X157571271Y-124385499D01*
X157487727Y-124374500D01*
X157487720Y-124374500D01*
X157262280Y-124374500D01*
X157262272Y-124374500D01*
X157175393Y-124385938D01*
X157149764Y-124389313D01*
X157149762Y-124389313D01*
X157141708Y-124390374D01*
X157141316Y-124387399D01*
X157108684Y-124387399D01*
X157108292Y-124390374D01*
X157100237Y-124389313D01*
X157100236Y-124389313D01*
X157071271Y-124385499D01*
X156987727Y-124374500D01*
X156987720Y-124374500D01*
X156762280Y-124374500D01*
X156762272Y-124374500D01*
X156675393Y-124385938D01*
X156649764Y-124389313D01*
X156649762Y-124389313D01*
X156641708Y-124390374D01*
X156641314Y-124387386D01*
X156592901Y-124387347D01*
X156592401Y-124387213D01*
X156532742Y-124350846D01*
X156502216Y-124287997D01*
X156500500Y-124267440D01*
X156500500Y-119848352D01*
X156520185Y-119781313D01*
X156572989Y-119735558D01*
X156642147Y-119725614D01*
X156705703Y-119754639D01*
X156712181Y-119760671D01*
X157579994Y-120628484D01*
X157589819Y-120640748D01*
X157590040Y-120640566D01*
X157595010Y-120646573D01*
X157595013Y-120646576D01*
X157595014Y-120646577D01*
X157645451Y-120693941D01*
X157666330Y-120714820D01*
X157671804Y-120719066D01*
X157676242Y-120722856D01*
X157710218Y-120754762D01*
X157727773Y-120764413D01*
X157744031Y-120775092D01*
X157759864Y-120787374D01*
X157780032Y-120796101D01*
X157802637Y-120805883D01*
X157807881Y-120808452D01*
X157848708Y-120830897D01*
X157868112Y-120835879D01*
X157886510Y-120842178D01*
X157904905Y-120850138D01*
X157950929Y-120857426D01*
X157956632Y-120858607D01*
X158001781Y-120870200D01*
X158021816Y-120870200D01*
X158041213Y-120871726D01*
X158060996Y-120874860D01*
X158107384Y-120870475D01*
X158113222Y-120870200D01*
X158613757Y-120870200D01*
X158629377Y-120871924D01*
X158629404Y-120871639D01*
X158637160Y-120872371D01*
X158637167Y-120872373D01*
X158706314Y-120870200D01*
X158735850Y-120870200D01*
X158742728Y-120869330D01*
X158748541Y-120868872D01*
X158795127Y-120867409D01*
X158814369Y-120861817D01*
X158833412Y-120857874D01*
X158853292Y-120855364D01*
X158896622Y-120838207D01*
X158902146Y-120836317D01*
X158905896Y-120835227D01*
X158946890Y-120823318D01*
X158964129Y-120813122D01*
X158981603Y-120804562D01*
X159000227Y-120797188D01*
X159000227Y-120797187D01*
X159000232Y-120797186D01*
X159037949Y-120769782D01*
X159042805Y-120766592D01*
X159082920Y-120742870D01*
X159097089Y-120728699D01*
X159111879Y-120716068D01*
X159128087Y-120704294D01*
X159157799Y-120668376D01*
X159161712Y-120664076D01*
X164370121Y-115455668D01*
X164431442Y-115422185D01*
X164501134Y-115427169D01*
G37*
%TD.AperFunction*%
%TA.AperFunction,NonConductor*%
G36*
X165273508Y-123298585D02*
G01*
X165302323Y-123324236D01*
X165323525Y-123350071D01*
X165466162Y-123467130D01*
X165472828Y-123472600D01*
X165643163Y-123563647D01*
X165827988Y-123619713D01*
X166020200Y-123638644D01*
X166088946Y-123631873D01*
X166157592Y-123644892D01*
X166208302Y-123692957D01*
X166225100Y-123755276D01*
X166225100Y-124052547D01*
X166205415Y-124119586D01*
X166188780Y-124140229D01*
X166153297Y-124175711D01*
X166091973Y-124209196D01*
X166053464Y-124211432D01*
X166020200Y-124208156D01*
X165827989Y-124227086D01*
X165643160Y-124283154D01*
X165570488Y-124321999D01*
X165472828Y-124374200D01*
X165472826Y-124374201D01*
X165472825Y-124374202D01*
X165323526Y-124496726D01*
X165201002Y-124646025D01*
X165109954Y-124816360D01*
X165109953Y-124816362D01*
X165109953Y-124816363D01*
X165079629Y-124916330D01*
X165069720Y-124948995D01*
X165031422Y-125007434D01*
X164967610Y-125035890D01*
X164951059Y-125037000D01*
X163149500Y-125037000D01*
X163082461Y-125017315D01*
X163036706Y-124964511D01*
X163026217Y-124916300D01*
X163025765Y-124916330D01*
X163025566Y-124913307D01*
X163025500Y-124913000D01*
X163025500Y-124912286D01*
X163025500Y-124912280D01*
X163018596Y-124859838D01*
X163029361Y-124790803D01*
X163034148Y-124781653D01*
X163115479Y-124640784D01*
X163173974Y-124460756D01*
X163176735Y-124434481D01*
X163203317Y-124369866D01*
X163249620Y-124334160D01*
X163268497Y-124325755D01*
X163381930Y-124275251D01*
X163535071Y-124163988D01*
X163661733Y-124023316D01*
X163756379Y-123859384D01*
X163814874Y-123679356D01*
X163834660Y-123491100D01*
X163826752Y-123415860D01*
X163839322Y-123347131D01*
X163887054Y-123296108D01*
X163950073Y-123278900D01*
X165206469Y-123278900D01*
X165273508Y-123298585D01*
G37*
%TD.AperFunction*%
%TA.AperFunction,NonConductor*%
G36*
X164847187Y-126307685D02*
G01*
X164867829Y-126324319D01*
X165367782Y-126824272D01*
X165401267Y-126885595D01*
X165396283Y-126955287D01*
X165358767Y-127007806D01*
X165323525Y-127036728D01*
X165302323Y-127062564D01*
X165244577Y-127101899D01*
X165206469Y-127107900D01*
X162804286Y-127107900D01*
X162737247Y-127088215D01*
X162691492Y-127035411D01*
X162681548Y-126966253D01*
X162710573Y-126902697D01*
X162734201Y-126883187D01*
X162733785Y-126882645D01*
X162740230Y-126877698D01*
X162740233Y-126877698D01*
X162860451Y-126785451D01*
X162952698Y-126665233D01*
X163010687Y-126525236D01*
X163025500Y-126412720D01*
X163025500Y-126412000D01*
X163025560Y-126411795D01*
X163025765Y-126408670D01*
X163026464Y-126408715D01*
X163045185Y-126344961D01*
X163097989Y-126299206D01*
X163149500Y-126288000D01*
X164780148Y-126288000D01*
X164847187Y-126307685D01*
G37*
%TD.AperFunction*%
%TA.AperFunction,NonConductor*%
G36*
X151858833Y-127156624D02*
G01*
X152076728Y-127374519D01*
X152110213Y-127435842D01*
X152105229Y-127505534D01*
X152063357Y-127561467D01*
X151997893Y-127585884D01*
X151989047Y-127586200D01*
X151852132Y-127586200D01*
X151785093Y-127566515D01*
X151739338Y-127513711D01*
X151733471Y-127498195D01*
X151733411Y-127497996D01*
X151690447Y-127356363D01*
X151661794Y-127302759D01*
X151647552Y-127234357D01*
X151672551Y-127169113D01*
X151728855Y-127127742D01*
X151798589Y-127123378D01*
X151858833Y-127156624D01*
G37*
%TD.AperFunction*%
%TA.AperFunction,NonConductor*%
G36*
X165273508Y-128378585D02*
G01*
X165302323Y-128404236D01*
X165323527Y-128430073D01*
X165406044Y-128497792D01*
X165467571Y-128548286D01*
X165506905Y-128606031D01*
X165508776Y-128675876D01*
X165476587Y-128731820D01*
X164829508Y-129378899D01*
X164817251Y-129388720D01*
X164817434Y-129388941D01*
X164811423Y-129393913D01*
X164764072Y-129444336D01*
X164743189Y-129465219D01*
X164743177Y-129465232D01*
X164738921Y-129470717D01*
X164735137Y-129475147D01*
X164703237Y-129509118D01*
X164703236Y-129509120D01*
X164693584Y-129526676D01*
X164682910Y-129542926D01*
X164670629Y-129558761D01*
X164670624Y-129558768D01*
X164652115Y-129601538D01*
X164649545Y-129606784D01*
X164627103Y-129647606D01*
X164622122Y-129667007D01*
X164615821Y-129685410D01*
X164607862Y-129703802D01*
X164607861Y-129703805D01*
X164600571Y-129749827D01*
X164599387Y-129755546D01*
X164587801Y-129800672D01*
X164587800Y-129800682D01*
X164587800Y-129820716D01*
X164586273Y-129840115D01*
X164583140Y-129859894D01*
X164583140Y-129859895D01*
X164587525Y-129906283D01*
X164587800Y-129912121D01*
X164587800Y-130528255D01*
X164586075Y-130543872D01*
X164586361Y-130543899D01*
X164585626Y-130551665D01*
X164587800Y-130620814D01*
X164587800Y-130650343D01*
X164587801Y-130650360D01*
X164588668Y-130657231D01*
X164589126Y-130663050D01*
X164590590Y-130709624D01*
X164590591Y-130709627D01*
X164596180Y-130728867D01*
X164600124Y-130747911D01*
X164602636Y-130767791D01*
X164619790Y-130811119D01*
X164621682Y-130816647D01*
X164634681Y-130861388D01*
X164644880Y-130878634D01*
X164653438Y-130896103D01*
X164660814Y-130914732D01*
X164688198Y-130952423D01*
X164691406Y-130957307D01*
X164715127Y-130997416D01*
X164715133Y-130997424D01*
X164729290Y-131011580D01*
X164741928Y-131026376D01*
X164753705Y-131042586D01*
X164753706Y-131042587D01*
X164789609Y-131072288D01*
X164793920Y-131076210D01*
X165077583Y-131359873D01*
X165198294Y-131480584D01*
X165208117Y-131492845D01*
X165208339Y-131492663D01*
X165213312Y-131498675D01*
X165263736Y-131546027D01*
X165284623Y-131566915D01*
X165284627Y-131566918D01*
X165284629Y-131566920D01*
X165290111Y-131571173D01*
X165294543Y-131574957D01*
X165328518Y-131606862D01*
X165346076Y-131616514D01*
X165362333Y-131627193D01*
X165378164Y-131639473D01*
X165397837Y-131647986D01*
X165420933Y-131657982D01*
X165426177Y-131660550D01*
X165467008Y-131682997D01*
X165479623Y-131686235D01*
X165486405Y-131687977D01*
X165504819Y-131694281D01*
X165523204Y-131702238D01*
X165540995Y-131705055D01*
X165604129Y-131734984D01*
X165641061Y-131794294D01*
X165640065Y-131864157D01*
X165601456Y-131922390D01*
X165580052Y-131936886D01*
X165472828Y-131994200D01*
X165472826Y-131994201D01*
X165472825Y-131994202D01*
X165406498Y-132048635D01*
X165342188Y-132075947D01*
X165273321Y-132064156D01*
X165240153Y-132040462D01*
X161770272Y-128570581D01*
X161736787Y-128509258D01*
X161741771Y-128439566D01*
X161783643Y-128383633D01*
X161849107Y-128359216D01*
X161857953Y-128358900D01*
X165206469Y-128358900D01*
X165273508Y-128378585D01*
G37*
%TD.AperFunction*%
M02*
