%TF.GenerationSoftware,KiCad,Pcbnew,7.0.8*%
%TF.CreationDate,2023-11-22T10:56:05+00:00*%
%TF.ProjectId,ZX Interface 1 ROM 39SF010,5a582049-6e74-4657-9266-616365203120,rev?*%
%TF.SameCoordinates,Original*%
%TF.FileFunction,Legend,Bot*%
%TF.FilePolarity,Positive*%
%FSLAX46Y46*%
G04 Gerber Fmt 4.6, Leading zero omitted, Abs format (unit mm)*
G04 Created by KiCad (PCBNEW 7.0.8) date 2023-11-22 10:56:05*
%MOMM*%
%LPD*%
G01*
G04 APERTURE LIST*
%ADD10C,0.150000*%
%ADD11C,0.127000*%
%ADD12C,0.250000*%
%ADD13C,0.120000*%
%ADD14C,0.200000*%
G04 APERTURE END LIST*
D10*
X163067766Y-128732075D02*
X162867766Y-128798741D01*
X162867766Y-128798741D02*
X162534433Y-128798741D01*
X162534433Y-128798741D02*
X162401099Y-128732075D01*
X162401099Y-128732075D02*
X162334433Y-128665408D01*
X162334433Y-128665408D02*
X162267766Y-128532075D01*
X162267766Y-128532075D02*
X162267766Y-128398741D01*
X162267766Y-128398741D02*
X162334433Y-128265408D01*
X162334433Y-128265408D02*
X162401099Y-128198741D01*
X162401099Y-128198741D02*
X162534433Y-128132075D01*
X162534433Y-128132075D02*
X162801099Y-128065408D01*
X162801099Y-128065408D02*
X162934433Y-127998741D01*
X162934433Y-127998741D02*
X163001099Y-127932075D01*
X163001099Y-127932075D02*
X163067766Y-127798741D01*
X163067766Y-127798741D02*
X163067766Y-127665408D01*
X163067766Y-127665408D02*
X163001099Y-127532075D01*
X163001099Y-127532075D02*
X162934433Y-127465408D01*
X162934433Y-127465408D02*
X162801099Y-127398741D01*
X162801099Y-127398741D02*
X162467766Y-127398741D01*
X162467766Y-127398741D02*
X162267766Y-127465408D01*
X161801100Y-127398741D02*
X161467766Y-128798741D01*
X161467766Y-128798741D02*
X161201100Y-127798741D01*
X161201100Y-127798741D02*
X160934433Y-128798741D01*
X160934433Y-128798741D02*
X160601100Y-127398741D01*
X159334433Y-128798741D02*
X160134433Y-128798741D01*
X159734433Y-128798741D02*
X159734433Y-127398741D01*
X159734433Y-127398741D02*
X159867766Y-127598741D01*
X159867766Y-127598741D02*
X160001100Y-127732075D01*
X160001100Y-127732075D02*
X160134433Y-127798741D01*
X159818416Y-115199319D02*
X160151749Y-114723128D01*
X160389844Y-115199319D02*
X160389844Y-114199319D01*
X160389844Y-114199319D02*
X160008892Y-114199319D01*
X160008892Y-114199319D02*
X159913654Y-114246938D01*
X159913654Y-114246938D02*
X159866035Y-114294557D01*
X159866035Y-114294557D02*
X159818416Y-114389795D01*
X159818416Y-114389795D02*
X159818416Y-114532652D01*
X159818416Y-114532652D02*
X159866035Y-114627890D01*
X159866035Y-114627890D02*
X159913654Y-114675509D01*
X159913654Y-114675509D02*
X160008892Y-114723128D01*
X160008892Y-114723128D02*
X160389844Y-114723128D01*
X158913654Y-114199319D02*
X159389844Y-114199319D01*
X159389844Y-114199319D02*
X159437463Y-114675509D01*
X159437463Y-114675509D02*
X159389844Y-114627890D01*
X159389844Y-114627890D02*
X159294606Y-114580271D01*
X159294606Y-114580271D02*
X159056511Y-114580271D01*
X159056511Y-114580271D02*
X158961273Y-114627890D01*
X158961273Y-114627890D02*
X158913654Y-114675509D01*
X158913654Y-114675509D02*
X158866035Y-114770747D01*
X158866035Y-114770747D02*
X158866035Y-115008842D01*
X158866035Y-115008842D02*
X158913654Y-115104080D01*
X158913654Y-115104080D02*
X158961273Y-115151700D01*
X158961273Y-115151700D02*
X159056511Y-115199319D01*
X159056511Y-115199319D02*
X159294606Y-115199319D01*
X159294606Y-115199319D02*
X159389844Y-115151700D01*
X159389844Y-115151700D02*
X159437463Y-115104080D01*
X159583991Y-124041669D02*
X159917324Y-123565478D01*
X160155419Y-124041669D02*
X160155419Y-123041669D01*
X160155419Y-123041669D02*
X159774467Y-123041669D01*
X159774467Y-123041669D02*
X159679229Y-123089288D01*
X159679229Y-123089288D02*
X159631610Y-123136907D01*
X159631610Y-123136907D02*
X159583991Y-123232145D01*
X159583991Y-123232145D02*
X159583991Y-123375002D01*
X159583991Y-123375002D02*
X159631610Y-123470240D01*
X159631610Y-123470240D02*
X159679229Y-123517859D01*
X159679229Y-123517859D02*
X159774467Y-123565478D01*
X159774467Y-123565478D02*
X160155419Y-123565478D01*
X158726848Y-123041669D02*
X158917324Y-123041669D01*
X158917324Y-123041669D02*
X159012562Y-123089288D01*
X159012562Y-123089288D02*
X159060181Y-123136907D01*
X159060181Y-123136907D02*
X159155419Y-123279764D01*
X159155419Y-123279764D02*
X159203038Y-123470240D01*
X159203038Y-123470240D02*
X159203038Y-123851192D01*
X159203038Y-123851192D02*
X159155419Y-123946430D01*
X159155419Y-123946430D02*
X159107800Y-123994050D01*
X159107800Y-123994050D02*
X159012562Y-124041669D01*
X159012562Y-124041669D02*
X158822086Y-124041669D01*
X158822086Y-124041669D02*
X158726848Y-123994050D01*
X158726848Y-123994050D02*
X158679229Y-123946430D01*
X158679229Y-123946430D02*
X158631610Y-123851192D01*
X158631610Y-123851192D02*
X158631610Y-123613097D01*
X158631610Y-123613097D02*
X158679229Y-123517859D01*
X158679229Y-123517859D02*
X158726848Y-123470240D01*
X158726848Y-123470240D02*
X158822086Y-123422621D01*
X158822086Y-123422621D02*
X159012562Y-123422621D01*
X159012562Y-123422621D02*
X159107800Y-123470240D01*
X159107800Y-123470240D02*
X159155419Y-123517859D01*
X159155419Y-123517859D02*
X159203038Y-123613097D01*
X159647541Y-106169569D02*
X159980874Y-105693378D01*
X160218969Y-106169569D02*
X160218969Y-105169569D01*
X160218969Y-105169569D02*
X159838017Y-105169569D01*
X159838017Y-105169569D02*
X159742779Y-105217188D01*
X159742779Y-105217188D02*
X159695160Y-105264807D01*
X159695160Y-105264807D02*
X159647541Y-105360045D01*
X159647541Y-105360045D02*
X159647541Y-105502902D01*
X159647541Y-105502902D02*
X159695160Y-105598140D01*
X159695160Y-105598140D02*
X159742779Y-105645759D01*
X159742779Y-105645759D02*
X159838017Y-105693378D01*
X159838017Y-105693378D02*
X160218969Y-105693378D01*
X159266588Y-105264807D02*
X159218969Y-105217188D01*
X159218969Y-105217188D02*
X159123731Y-105169569D01*
X159123731Y-105169569D02*
X158885636Y-105169569D01*
X158885636Y-105169569D02*
X158790398Y-105217188D01*
X158790398Y-105217188D02*
X158742779Y-105264807D01*
X158742779Y-105264807D02*
X158695160Y-105360045D01*
X158695160Y-105360045D02*
X158695160Y-105455283D01*
X158695160Y-105455283D02*
X158742779Y-105598140D01*
X158742779Y-105598140D02*
X159314207Y-106169569D01*
X159314207Y-106169569D02*
X158695160Y-106169569D01*
X163394983Y-103178894D02*
X163394983Y-103893179D01*
X163394983Y-103893179D02*
X163442602Y-104036036D01*
X163442602Y-104036036D02*
X163537840Y-104131275D01*
X163537840Y-104131275D02*
X163680697Y-104178894D01*
X163680697Y-104178894D02*
X163775935Y-104178894D01*
X162490221Y-103512227D02*
X162490221Y-104178894D01*
X162728316Y-103131275D02*
X162966411Y-103845560D01*
X162966411Y-103845560D02*
X162347364Y-103845560D01*
X159685641Y-109338269D02*
X160018974Y-108862078D01*
X160257069Y-109338269D02*
X160257069Y-108338269D01*
X160257069Y-108338269D02*
X159876117Y-108338269D01*
X159876117Y-108338269D02*
X159780879Y-108385888D01*
X159780879Y-108385888D02*
X159733260Y-108433507D01*
X159733260Y-108433507D02*
X159685641Y-108528745D01*
X159685641Y-108528745D02*
X159685641Y-108671602D01*
X159685641Y-108671602D02*
X159733260Y-108766840D01*
X159733260Y-108766840D02*
X159780879Y-108814459D01*
X159780879Y-108814459D02*
X159876117Y-108862078D01*
X159876117Y-108862078D02*
X160257069Y-108862078D01*
X159352307Y-108338269D02*
X158733260Y-108338269D01*
X158733260Y-108338269D02*
X159066593Y-108719221D01*
X159066593Y-108719221D02*
X158923736Y-108719221D01*
X158923736Y-108719221D02*
X158828498Y-108766840D01*
X158828498Y-108766840D02*
X158780879Y-108814459D01*
X158780879Y-108814459D02*
X158733260Y-108909697D01*
X158733260Y-108909697D02*
X158733260Y-109147792D01*
X158733260Y-109147792D02*
X158780879Y-109243030D01*
X158780879Y-109243030D02*
X158828498Y-109290650D01*
X158828498Y-109290650D02*
X158923736Y-109338269D01*
X158923736Y-109338269D02*
X159209450Y-109338269D01*
X159209450Y-109338269D02*
X159304688Y-109290650D01*
X159304688Y-109290650D02*
X159352307Y-109243030D01*
X159730116Y-117996444D02*
X160063449Y-117520253D01*
X160301544Y-117996444D02*
X160301544Y-116996444D01*
X160301544Y-116996444D02*
X159920592Y-116996444D01*
X159920592Y-116996444D02*
X159825354Y-117044063D01*
X159825354Y-117044063D02*
X159777735Y-117091682D01*
X159777735Y-117091682D02*
X159730116Y-117186920D01*
X159730116Y-117186920D02*
X159730116Y-117329777D01*
X159730116Y-117329777D02*
X159777735Y-117425015D01*
X159777735Y-117425015D02*
X159825354Y-117472634D01*
X159825354Y-117472634D02*
X159920592Y-117520253D01*
X159920592Y-117520253D02*
X160301544Y-117520253D01*
X159396782Y-116996444D02*
X158730116Y-116996444D01*
X158730116Y-116996444D02*
X159158687Y-117996444D01*
X163179594Y-111142158D02*
X162703403Y-110808825D01*
X163179594Y-110570730D02*
X162179594Y-110570730D01*
X162179594Y-110570730D02*
X162179594Y-110951682D01*
X162179594Y-110951682D02*
X162227213Y-111046920D01*
X162227213Y-111046920D02*
X162274832Y-111094539D01*
X162274832Y-111094539D02*
X162370070Y-111142158D01*
X162370070Y-111142158D02*
X162512927Y-111142158D01*
X162512927Y-111142158D02*
X162608165Y-111094539D01*
X162608165Y-111094539D02*
X162655784Y-111046920D01*
X162655784Y-111046920D02*
X162703403Y-110951682D01*
X162703403Y-110951682D02*
X162703403Y-110570730D01*
X163179594Y-112094539D02*
X163179594Y-111523111D01*
X163179594Y-111808825D02*
X162179594Y-111808825D01*
X162179594Y-111808825D02*
X162322451Y-111713587D01*
X162322451Y-111713587D02*
X162417689Y-111618349D01*
X162417689Y-111618349D02*
X162465308Y-111523111D01*
X153673133Y-103013794D02*
X153673133Y-103728079D01*
X153673133Y-103728079D02*
X153720752Y-103870936D01*
X153720752Y-103870936D02*
X153815990Y-103966175D01*
X153815990Y-103966175D02*
X153958847Y-104013794D01*
X153958847Y-104013794D02*
X154054085Y-104013794D01*
X153292180Y-103013794D02*
X152673133Y-103013794D01*
X152673133Y-103013794D02*
X153006466Y-103394746D01*
X153006466Y-103394746D02*
X152863609Y-103394746D01*
X152863609Y-103394746D02*
X152768371Y-103442365D01*
X152768371Y-103442365D02*
X152720752Y-103489984D01*
X152720752Y-103489984D02*
X152673133Y-103585222D01*
X152673133Y-103585222D02*
X152673133Y-103823317D01*
X152673133Y-103823317D02*
X152720752Y-103918555D01*
X152720752Y-103918555D02*
X152768371Y-103966175D01*
X152768371Y-103966175D02*
X152863609Y-104013794D01*
X152863609Y-104013794D02*
X153149323Y-104013794D01*
X153149323Y-104013794D02*
X153244561Y-103966175D01*
X153244561Y-103966175D02*
X153292180Y-103918555D01*
X162779880Y-114965183D02*
X162827500Y-114917564D01*
X162827500Y-114917564D02*
X162875119Y-114774707D01*
X162875119Y-114774707D02*
X162875119Y-114679469D01*
X162875119Y-114679469D02*
X162827500Y-114536612D01*
X162827500Y-114536612D02*
X162732261Y-114441374D01*
X162732261Y-114441374D02*
X162637023Y-114393755D01*
X162637023Y-114393755D02*
X162446547Y-114346136D01*
X162446547Y-114346136D02*
X162303690Y-114346136D01*
X162303690Y-114346136D02*
X162113214Y-114393755D01*
X162113214Y-114393755D02*
X162017976Y-114441374D01*
X162017976Y-114441374D02*
X161922738Y-114536612D01*
X161922738Y-114536612D02*
X161875119Y-114679469D01*
X161875119Y-114679469D02*
X161875119Y-114774707D01*
X161875119Y-114774707D02*
X161922738Y-114917564D01*
X161922738Y-114917564D02*
X161970357Y-114965183D01*
X162875119Y-115917564D02*
X162875119Y-115346136D01*
X162875119Y-115631850D02*
X161875119Y-115631850D01*
X161875119Y-115631850D02*
X162017976Y-115536612D01*
X162017976Y-115536612D02*
X162113214Y-115441374D01*
X162113214Y-115441374D02*
X162160833Y-115346136D01*
X159771966Y-121114369D02*
X160105299Y-120638178D01*
X160343394Y-121114369D02*
X160343394Y-120114369D01*
X160343394Y-120114369D02*
X159962442Y-120114369D01*
X159962442Y-120114369D02*
X159867204Y-120161988D01*
X159867204Y-120161988D02*
X159819585Y-120209607D01*
X159819585Y-120209607D02*
X159771966Y-120304845D01*
X159771966Y-120304845D02*
X159771966Y-120447702D01*
X159771966Y-120447702D02*
X159819585Y-120542940D01*
X159819585Y-120542940D02*
X159867204Y-120590559D01*
X159867204Y-120590559D02*
X159962442Y-120638178D01*
X159962442Y-120638178D02*
X160343394Y-120638178D01*
X159200537Y-120542940D02*
X159295775Y-120495321D01*
X159295775Y-120495321D02*
X159343394Y-120447702D01*
X159343394Y-120447702D02*
X159391013Y-120352464D01*
X159391013Y-120352464D02*
X159391013Y-120304845D01*
X159391013Y-120304845D02*
X159343394Y-120209607D01*
X159343394Y-120209607D02*
X159295775Y-120161988D01*
X159295775Y-120161988D02*
X159200537Y-120114369D01*
X159200537Y-120114369D02*
X159010061Y-120114369D01*
X159010061Y-120114369D02*
X158914823Y-120161988D01*
X158914823Y-120161988D02*
X158867204Y-120209607D01*
X158867204Y-120209607D02*
X158819585Y-120304845D01*
X158819585Y-120304845D02*
X158819585Y-120352464D01*
X158819585Y-120352464D02*
X158867204Y-120447702D01*
X158867204Y-120447702D02*
X158914823Y-120495321D01*
X158914823Y-120495321D02*
X159010061Y-120542940D01*
X159010061Y-120542940D02*
X159200537Y-120542940D01*
X159200537Y-120542940D02*
X159295775Y-120590559D01*
X159295775Y-120590559D02*
X159343394Y-120638178D01*
X159343394Y-120638178D02*
X159391013Y-120733416D01*
X159391013Y-120733416D02*
X159391013Y-120923892D01*
X159391013Y-120923892D02*
X159343394Y-121019130D01*
X159343394Y-121019130D02*
X159295775Y-121066750D01*
X159295775Y-121066750D02*
X159200537Y-121114369D01*
X159200537Y-121114369D02*
X159010061Y-121114369D01*
X159010061Y-121114369D02*
X158914823Y-121066750D01*
X158914823Y-121066750D02*
X158867204Y-121019130D01*
X158867204Y-121019130D02*
X158819585Y-120923892D01*
X158819585Y-120923892D02*
X158819585Y-120733416D01*
X158819585Y-120733416D02*
X158867204Y-120638178D01*
X158867204Y-120638178D02*
X158914823Y-120590559D01*
X158914823Y-120590559D02*
X159010061Y-120542940D01*
X159771316Y-112440269D02*
X160104649Y-111964078D01*
X160342744Y-112440269D02*
X160342744Y-111440269D01*
X160342744Y-111440269D02*
X159961792Y-111440269D01*
X159961792Y-111440269D02*
X159866554Y-111487888D01*
X159866554Y-111487888D02*
X159818935Y-111535507D01*
X159818935Y-111535507D02*
X159771316Y-111630745D01*
X159771316Y-111630745D02*
X159771316Y-111773602D01*
X159771316Y-111773602D02*
X159818935Y-111868840D01*
X159818935Y-111868840D02*
X159866554Y-111916459D01*
X159866554Y-111916459D02*
X159961792Y-111964078D01*
X159961792Y-111964078D02*
X160342744Y-111964078D01*
X158914173Y-111773602D02*
X158914173Y-112440269D01*
X159152268Y-111392650D02*
X159390363Y-112106935D01*
X159390363Y-112106935D02*
X158771316Y-112106935D01*
D11*
%TO.C,SW1*%
X162081000Y-131910100D02*
X162081000Y-131310100D01*
X161631000Y-132910100D02*
X155831000Y-132910100D01*
X160331000Y-130310100D02*
X158631000Y-130310100D01*
X155381000Y-131310100D02*
X155381000Y-131910100D01*
D12*
X162031000Y-129110100D02*
G75*
G03*
X162031000Y-129110100I-100000J0D01*
G01*
D13*
%TO.C,R5*%
X156384664Y-115502100D02*
X154930536Y-115502100D01*
X156384664Y-113682100D02*
X154930536Y-113682100D01*
%TO.C,R6*%
X156267164Y-124401600D02*
X154813036Y-124401600D01*
X156267164Y-122581600D02*
X154813036Y-122581600D01*
%TO.C,R2*%
X156305264Y-106631100D02*
X154851136Y-106631100D01*
X156305264Y-104811100D02*
X154851136Y-104811100D01*
D14*
%TO.C,J4*%
X167290200Y-103501400D02*
X164750200Y-103501400D01*
X167290200Y-134185400D02*
X167290200Y-103501400D01*
X164750200Y-134185400D02*
X164750200Y-103501400D01*
X164750200Y-134185400D02*
X167290200Y-134185400D01*
X166120200Y-102851400D02*
G75*
G03*
X166120200Y-102851400I-100000J0D01*
G01*
D13*
%TO.C,R3*%
X156343364Y-109599800D02*
X154889236Y-109599800D01*
X156343364Y-107779800D02*
X154889236Y-107779800D01*
%TO.C,R7*%
X156343364Y-118458000D02*
X154889236Y-118458000D01*
X156343364Y-116638000D02*
X154889236Y-116638000D01*
%TO.C,R1*%
X163577600Y-106711436D02*
X163577600Y-108165564D01*
X161757600Y-106711436D02*
X161757600Y-108165564D01*
D14*
%TO.C,J3*%
X152050200Y-103501400D02*
X149510200Y-103501400D01*
X152050200Y-134185400D02*
X152050200Y-103501400D01*
X149510200Y-134185400D02*
X149510200Y-103501400D01*
X149510200Y-134185400D02*
X152050200Y-134185400D01*
X150880200Y-102851400D02*
G75*
G03*
X150880200Y-102851400I-100000J0D01*
G01*
D13*
%TO.C,C1*%
X163403300Y-118189348D02*
X163403300Y-119611852D01*
X161583300Y-118189348D02*
X161583300Y-119611852D01*
%TO.C,R8*%
X156267164Y-121547300D02*
X154813036Y-121547300D01*
X156267164Y-119727300D02*
X154813036Y-119727300D01*
%TO.C,R4*%
X156343364Y-112571600D02*
X154889236Y-112571600D01*
X156343364Y-110751600D02*
X154889236Y-110751600D01*
%TD*%
M02*
