%TF.GenerationSoftware,KiCad,Pcbnew,7.0.8*%
%TF.CreationDate,2023-11-30T16:34:49+00:00*%
%TF.ProjectId,ZX Interface 1 ROM 39SF010,5a582049-6e74-4657-9266-616365203120,rev?*%
%TF.SameCoordinates,Original*%
%TF.FileFunction,Legend,Top*%
%TF.FilePolarity,Positive*%
%FSLAX46Y46*%
G04 Gerber Fmt 4.6, Leading zero omitted, Abs format (unit mm)*
G04 Created by KiCad (PCBNEW 7.0.8) date 2023-11-30 16:34:49*
%MOMM*%
%LPD*%
G01*
G04 APERTURE LIST*
%ADD10C,0.150000*%
%ADD11C,0.120000*%
G04 APERTURE END LIST*
D10*
X171396066Y-103524969D02*
X171396066Y-104239254D01*
X171396066Y-104239254D02*
X171348447Y-104382111D01*
X171348447Y-104382111D02*
X171253209Y-104477350D01*
X171253209Y-104477350D02*
X171110352Y-104524969D01*
X171110352Y-104524969D02*
X171015114Y-104524969D01*
X172396066Y-104524969D02*
X171824638Y-104524969D01*
X172110352Y-104524969D02*
X172110352Y-103524969D01*
X172110352Y-103524969D02*
X172015114Y-103667826D01*
X172015114Y-103667826D02*
X171919876Y-103763064D01*
X171919876Y-103763064D02*
X171824638Y-103810683D01*
X163029819Y-119736904D02*
X163839342Y-119736904D01*
X163839342Y-119736904D02*
X163934580Y-119689285D01*
X163934580Y-119689285D02*
X163982200Y-119641666D01*
X163982200Y-119641666D02*
X164029819Y-119546428D01*
X164029819Y-119546428D02*
X164029819Y-119355952D01*
X164029819Y-119355952D02*
X163982200Y-119260714D01*
X163982200Y-119260714D02*
X163934580Y-119213095D01*
X163934580Y-119213095D02*
X163839342Y-119165476D01*
X163839342Y-119165476D02*
X163029819Y-119165476D01*
X164029819Y-118165476D02*
X164029819Y-118736904D01*
X164029819Y-118451190D02*
X163029819Y-118451190D01*
X163029819Y-118451190D02*
X163172676Y-118546428D01*
X163172676Y-118546428D02*
X163267914Y-118641666D01*
X163267914Y-118641666D02*
X163315533Y-118736904D01*
D11*
%TO.C,J1*%
X180251000Y-129063400D02*
X171621000Y-129063400D01*
X180251000Y-126463400D02*
X171621000Y-126463400D01*
X180251000Y-123923400D02*
X171621000Y-123923400D01*
X180251000Y-121383400D02*
X171621000Y-121383400D01*
X180251000Y-118843400D02*
X171621000Y-118843400D01*
X180251000Y-116303400D02*
X171621000Y-116303400D01*
X180251000Y-113763400D02*
X171621000Y-113763400D01*
X180251000Y-111223400D02*
X171621000Y-111223400D01*
X180251000Y-108683400D02*
X171621000Y-108683400D01*
X180251000Y-108565300D02*
X171621000Y-108565300D01*
X180251000Y-108447205D02*
X171621000Y-108447205D01*
X180251000Y-108329110D02*
X171621000Y-108329110D01*
X180251000Y-108211015D02*
X171621000Y-108211015D01*
X180251000Y-108092920D02*
X171621000Y-108092920D01*
X180251000Y-107974825D02*
X171621000Y-107974825D01*
X180251000Y-107856730D02*
X171621000Y-107856730D01*
X180251000Y-107738635D02*
X171621000Y-107738635D01*
X180251000Y-107620540D02*
X171621000Y-107620540D01*
X180251000Y-107502445D02*
X171621000Y-107502445D01*
X180251000Y-107384350D02*
X171621000Y-107384350D01*
X180251000Y-107266255D02*
X171621000Y-107266255D01*
X180251000Y-107148160D02*
X171621000Y-107148160D01*
X180251000Y-107030065D02*
X171621000Y-107030065D01*
X180251000Y-106911970D02*
X171621000Y-106911970D01*
X180251000Y-106793875D02*
X171621000Y-106793875D01*
X180251000Y-106675780D02*
X171621000Y-106675780D01*
X180251000Y-106557685D02*
X171621000Y-106557685D01*
X180251000Y-106439590D02*
X171621000Y-106439590D01*
X180251000Y-106321495D02*
X171621000Y-106321495D01*
X180251000Y-106203400D02*
X171621000Y-106203400D01*
X180251000Y-106083400D02*
X180251000Y-129063400D01*
X180251000Y-106083400D02*
X171621000Y-106083400D01*
X171621000Y-128093400D02*
X171211000Y-128093400D01*
X171621000Y-127373400D02*
X171211000Y-127373400D01*
X171621000Y-125553400D02*
X171211000Y-125553400D01*
X171621000Y-124833400D02*
X171211000Y-124833400D01*
X171621000Y-123013400D02*
X171211000Y-123013400D01*
X171621000Y-122293400D02*
X171211000Y-122293400D01*
X171621000Y-120473400D02*
X171211000Y-120473400D01*
X171621000Y-119753400D02*
X171211000Y-119753400D01*
X171621000Y-117933400D02*
X171211000Y-117933400D01*
X171621000Y-117213400D02*
X171211000Y-117213400D01*
X171621000Y-115393400D02*
X171211000Y-115393400D01*
X171621000Y-114673400D02*
X171211000Y-114673400D01*
X171621000Y-112853400D02*
X171211000Y-112853400D01*
X171621000Y-112133400D02*
X171211000Y-112133400D01*
X171621000Y-110313400D02*
X171211000Y-110313400D01*
X171621000Y-109593400D02*
X171211000Y-109593400D01*
X171621000Y-107773400D02*
X171271000Y-107773400D01*
X171621000Y-107053400D02*
X171271000Y-107053400D01*
X171621000Y-106083400D02*
X171621000Y-129063400D01*
X170161000Y-106083400D02*
X169051000Y-106083400D01*
X169051000Y-106083400D02*
X169051000Y-107413400D01*
%TO.C,U1*%
X162785000Y-118975000D02*
X162785000Y-111500000D01*
X162785000Y-118975000D02*
X162785000Y-125175000D01*
X154465000Y-118975000D02*
X154465000Y-112775000D01*
X154465000Y-118975000D02*
X154465000Y-125175000D01*
%TD*%
M02*
