%TF.GenerationSoftware,KiCad,Pcbnew,7.0.8*%
%TF.CreationDate,2023-11-22T10:56:05+00:00*%
%TF.ProjectId,ZX Interface 1 ROM 39SF010,5a582049-6e74-4657-9266-616365203120,rev?*%
%TF.SameCoordinates,Original*%
%TF.FileFunction,Legend,Top*%
%TF.FilePolarity,Positive*%
%FSLAX46Y46*%
G04 Gerber Fmt 4.6, Leading zero omitted, Abs format (unit mm)*
G04 Created by KiCad (PCBNEW 7.0.8) date 2023-11-22 10:56:05*
%MOMM*%
%LPD*%
G01*
G04 APERTURE LIST*
%ADD10C,0.150000*%
%ADD11C,0.120000*%
G04 APERTURE END LIST*
D10*
X163029819Y-119736904D02*
X163839342Y-119736904D01*
X163839342Y-119736904D02*
X163934580Y-119689285D01*
X163934580Y-119689285D02*
X163982200Y-119641666D01*
X163982200Y-119641666D02*
X164029819Y-119546428D01*
X164029819Y-119546428D02*
X164029819Y-119355952D01*
X164029819Y-119355952D02*
X163982200Y-119260714D01*
X163982200Y-119260714D02*
X163934580Y-119213095D01*
X163934580Y-119213095D02*
X163839342Y-119165476D01*
X163839342Y-119165476D02*
X163029819Y-119165476D01*
X164029819Y-118165476D02*
X164029819Y-118736904D01*
X164029819Y-118451190D02*
X163029819Y-118451190D01*
X163029819Y-118451190D02*
X163172676Y-118546428D01*
X163172676Y-118546428D02*
X163267914Y-118641666D01*
X163267914Y-118641666D02*
X163315533Y-118736904D01*
X169827666Y-104098219D02*
X169827666Y-104812504D01*
X169827666Y-104812504D02*
X169780047Y-104955361D01*
X169780047Y-104955361D02*
X169684809Y-105050600D01*
X169684809Y-105050600D02*
X169541952Y-105098219D01*
X169541952Y-105098219D02*
X169446714Y-105098219D01*
X170256238Y-104193457D02*
X170303857Y-104145838D01*
X170303857Y-104145838D02*
X170399095Y-104098219D01*
X170399095Y-104098219D02*
X170637190Y-104098219D01*
X170637190Y-104098219D02*
X170732428Y-104145838D01*
X170732428Y-104145838D02*
X170780047Y-104193457D01*
X170780047Y-104193457D02*
X170827666Y-104288695D01*
X170827666Y-104288695D02*
X170827666Y-104383933D01*
X170827666Y-104383933D02*
X170780047Y-104526790D01*
X170780047Y-104526790D02*
X170208619Y-105098219D01*
X170208619Y-105098219D02*
X170827666Y-105098219D01*
D11*
%TO.C,U1*%
X162785000Y-118975000D02*
X162785000Y-111500000D01*
X162785000Y-118975000D02*
X162785000Y-125175000D01*
X154465000Y-118975000D02*
X154465000Y-112775000D01*
X154465000Y-118975000D02*
X154465000Y-125175000D01*
%TO.C,J2*%
X168831000Y-108683400D02*
X168831000Y-129063400D01*
X168831000Y-108683400D02*
X171491000Y-108683400D01*
X168831000Y-129063400D02*
X171491000Y-129063400D01*
X170161000Y-106083400D02*
X171491000Y-106083400D01*
X171491000Y-106083400D02*
X171491000Y-107413400D01*
X171491000Y-108683400D02*
X171491000Y-129063400D01*
%TD*%
M02*
