M48
METRIC
T1C0.400
T2C0.610
T3C1.000
%
G90
G05
T1
X157.295Y-110.176
X158.375Y-119.504
X158.415Y-106.529
X158.993Y-116.453
X161.389Y-113.682
X162.288Y-124.272
X162.929Y-123.491
T2
X150.78Y-104.873
X150.78Y-107.413
X150.78Y-109.953
X150.78Y-112.493
X150.78Y-115.033
X150.78Y-117.573
X150.78Y-120.113
X150.78Y-122.653
X150.78Y-125.193
X150.78Y-127.733
X150.78Y-130.273
X150.78Y-132.813
X166.02Y-104.873
X166.02Y-107.413
X166.02Y-109.953
X166.02Y-112.493
X166.02Y-115.033
X166.02Y-117.573
X166.02Y-120.113
X166.02Y-122.653
X166.02Y-125.193
X166.02Y-127.733
X166.02Y-130.273
X166.02Y-132.813
T3
X170.161Y-107.413
X170.161Y-109.953
X170.161Y-112.493
X170.161Y-115.033
X170.161Y-117.573
X170.161Y-120.113
X170.161Y-122.653
X170.161Y-125.193
X170.161Y-127.733
M30
