%TF.GenerationSoftware,KiCad,Pcbnew,7.0.8*%
%TF.CreationDate,2023-11-22T10:56:05+00:00*%
%TF.ProjectId,ZX Interface 1 ROM 39SF010,5a582049-6e74-4657-9266-616365203120,rev?*%
%TF.SameCoordinates,Original*%
%TF.FileFunction,Soldermask,Bot*%
%TF.FilePolarity,Negative*%
%FSLAX46Y46*%
G04 Gerber Fmt 4.6, Leading zero omitted, Abs format (unit mm)*
G04 Created by KiCad (PCBNEW 7.0.8) date 2023-11-22 10:56:05*
%MOMM*%
%LPD*%
G01*
G04 APERTURE LIST*
G04 Aperture macros list*
%AMRoundRect*
0 Rectangle with rounded corners*
0 $1 Rounding radius*
0 $2 $3 $4 $5 $6 $7 $8 $9 X,Y pos of 4 corners*
0 Add a 4 corners polygon primitive as box body*
4,1,4,$2,$3,$4,$5,$6,$7,$8,$9,$2,$3,0*
0 Add four circle primitives for the rounded corners*
1,1,$1+$1,$2,$3*
1,1,$1+$1,$4,$5*
1,1,$1+$1,$6,$7*
1,1,$1+$1,$8,$9*
0 Add four rect primitives between the rounded corners*
20,1,$1+$1,$2,$3,$4,$5,0*
20,1,$1+$1,$4,$5,$6,$7,0*
20,1,$1+$1,$6,$7,$8,$9,0*
20,1,$1+$1,$8,$9,$2,$3,0*%
G04 Aperture macros list end*
%ADD10R,1.700000X1.700000*%
%ADD11O,1.700000X1.700000*%
%ADD12C,0.900000*%
%ADD13RoundRect,0.102000X0.350000X0.750000X-0.350000X0.750000X-0.350000X-0.750000X0.350000X-0.750000X0*%
%ADD14RoundRect,0.102000X0.500000X0.400000X-0.500000X0.400000X-0.500000X-0.400000X0.500000X-0.400000X0*%
%ADD15RoundRect,0.250000X0.400000X0.625000X-0.400000X0.625000X-0.400000X-0.625000X0.400000X-0.625000X0*%
%ADD16RoundRect,0.102000X-0.480000X0.480000X-0.480000X-0.480000X0.480000X-0.480000X0.480000X0.480000X0*%
%ADD17C,1.164000*%
%ADD18RoundRect,0.250000X-0.625000X0.400000X-0.625000X-0.400000X0.625000X-0.400000X0.625000X0.400000X0*%
%ADD19RoundRect,0.250000X-0.650000X0.412500X-0.650000X-0.412500X0.650000X-0.412500X0.650000X0.412500X0*%
G04 APERTURE END LIST*
D10*
%TO.C,J2*%
X170161000Y-107413400D03*
D11*
X170161000Y-109953400D03*
X170161000Y-112493400D03*
X170161000Y-115033400D03*
X170161000Y-117573400D03*
X170161000Y-120113400D03*
X170161000Y-122653400D03*
X170161000Y-125193400D03*
X170161000Y-127733400D03*
%TD*%
D12*
%TO.C,SW1*%
X160231000Y-131610100D03*
X157231000Y-131610100D03*
D13*
X160981000Y-129860100D03*
X157981000Y-129860100D03*
X156481000Y-129860100D03*
D14*
X162381000Y-130645100D03*
X162381000Y-132575100D03*
X155081000Y-132575100D03*
X155081000Y-130645100D03*
%TD*%
D15*
%TO.C,R5*%
X157207600Y-114592100D03*
X154107600Y-114592100D03*
%TD*%
%TO.C,R6*%
X157090100Y-123491600D03*
X153990100Y-123491600D03*
%TD*%
%TO.C,R2*%
X157128200Y-105721100D03*
X154028200Y-105721100D03*
%TD*%
D16*
%TO.C,J4*%
X166020200Y-104873400D03*
D17*
X166020200Y-107413400D03*
X166020200Y-109953400D03*
X166020200Y-112493400D03*
X166020200Y-115033400D03*
X166020200Y-117573400D03*
X166020200Y-120113400D03*
X166020200Y-122653400D03*
X166020200Y-125193400D03*
X166020200Y-127733400D03*
X166020200Y-130273400D03*
X166020200Y-132813400D03*
%TD*%
D15*
%TO.C,R3*%
X157166300Y-108689800D03*
X154066300Y-108689800D03*
%TD*%
%TO.C,R7*%
X157166300Y-117548000D03*
X154066300Y-117548000D03*
%TD*%
D18*
%TO.C,R1*%
X162667600Y-105888500D03*
X162667600Y-108988500D03*
%TD*%
D16*
%TO.C,J3*%
X150780200Y-104873400D03*
D17*
X150780200Y-107413400D03*
X150780200Y-109953400D03*
X150780200Y-112493400D03*
X150780200Y-115033400D03*
X150780200Y-117573400D03*
X150780200Y-120113400D03*
X150780200Y-122653400D03*
X150780200Y-125193400D03*
X150780200Y-127733400D03*
X150780200Y-130273400D03*
X150780200Y-132813400D03*
%TD*%
D19*
%TO.C,C1*%
X162493300Y-117338100D03*
X162493300Y-120463100D03*
%TD*%
D15*
%TO.C,R8*%
X157090100Y-120637300D03*
X153990100Y-120637300D03*
%TD*%
%TO.C,R4*%
X157166300Y-111661600D03*
X154066300Y-111661600D03*
%TD*%
M02*
