%TF.GenerationSoftware,KiCad,Pcbnew,7.0.8*%
%TF.CreationDate,2023-11-22T10:56:05+00:00*%
%TF.ProjectId,ZX Interface 1 ROM 39SF010,5a582049-6e74-4657-9266-616365203120,rev?*%
%TF.SameCoordinates,Original*%
%TF.FileFunction,Copper,L2,Bot*%
%TF.FilePolarity,Positive*%
%FSLAX46Y46*%
G04 Gerber Fmt 4.6, Leading zero omitted, Abs format (unit mm)*
G04 Created by KiCad (PCBNEW 7.0.8) date 2023-11-22 10:56:05*
%MOMM*%
%LPD*%
G01*
G04 APERTURE LIST*
G04 Aperture macros list*
%AMRoundRect*
0 Rectangle with rounded corners*
0 $1 Rounding radius*
0 $2 $3 $4 $5 $6 $7 $8 $9 X,Y pos of 4 corners*
0 Add a 4 corners polygon primitive as box body*
4,1,4,$2,$3,$4,$5,$6,$7,$8,$9,$2,$3,0*
0 Add four circle primitives for the rounded corners*
1,1,$1+$1,$2,$3*
1,1,$1+$1,$4,$5*
1,1,$1+$1,$6,$7*
1,1,$1+$1,$8,$9*
0 Add four rect primitives between the rounded corners*
20,1,$1+$1,$2,$3,$4,$5,0*
20,1,$1+$1,$4,$5,$6,$7,0*
20,1,$1+$1,$6,$7,$8,$9,0*
20,1,$1+$1,$8,$9,$2,$3,0*%
G04 Aperture macros list end*
%TA.AperFunction,ComponentPad*%
%ADD10R,1.700000X1.700000*%
%TD*%
%TA.AperFunction,ComponentPad*%
%ADD11O,1.700000X1.700000*%
%TD*%
%TA.AperFunction,SMDPad,CuDef*%
%ADD12R,0.700000X1.500000*%
%TD*%
%TA.AperFunction,SMDPad,CuDef*%
%ADD13R,1.000000X0.800000*%
%TD*%
%TA.AperFunction,SMDPad,CuDef*%
%ADD14RoundRect,0.250000X0.400000X0.625000X-0.400000X0.625000X-0.400000X-0.625000X0.400000X-0.625000X0*%
%TD*%
%TA.AperFunction,ComponentPad*%
%ADD15R,0.960000X0.960000*%
%TD*%
%TA.AperFunction,ComponentPad*%
%ADD16C,0.960000*%
%TD*%
%TA.AperFunction,SMDPad,CuDef*%
%ADD17RoundRect,0.250000X-0.625000X0.400000X-0.625000X-0.400000X0.625000X-0.400000X0.625000X0.400000X0*%
%TD*%
%TA.AperFunction,SMDPad,CuDef*%
%ADD18RoundRect,0.250000X-0.650000X0.412500X-0.650000X-0.412500X0.650000X-0.412500X0.650000X0.412500X0*%
%TD*%
%TA.AperFunction,ViaPad*%
%ADD19C,0.800000*%
%TD*%
%TA.AperFunction,Conductor*%
%ADD20C,0.250000*%
%TD*%
G04 APERTURE END LIST*
D10*
%TO.P,J2,1,Pin_1*%
%TO.N,Net-(J2-Pin_1)*%
X170161000Y-107413400D03*
D11*
%TO.P,J2,2,Pin_2*%
%TO.N,Net-(J2-Pin_2)*%
X170161000Y-109953400D03*
%TO.P,J2,3,Pin_3*%
%TO.N,Net-(J2-Pin_3)*%
X170161000Y-112493400D03*
%TO.P,J2,4,Pin_4*%
%TO.N,Net-(J2-Pin_4)*%
X170161000Y-115033400D03*
%TO.P,J2,5,Pin_5*%
%TO.N,Net-(J2-Pin_5)*%
X170161000Y-117573400D03*
%TO.P,J2,6,Pin_6*%
%TO.N,Net-(J2-Pin_6)*%
X170161000Y-120113400D03*
%TO.P,J2,7,Pin_7*%
%TO.N,Net-(J2-Pin_7)*%
X170161000Y-122653400D03*
%TO.P,J2,8,Pin_8*%
%TO.N,Net-(J2-Pin_8)*%
X170161000Y-125193400D03*
%TO.P,J2,9,Pin_9*%
%TO.N,GND*%
X170161000Y-127733400D03*
%TD*%
D12*
%TO.P,SW1,1,1*%
%TO.N,GND*%
X160981000Y-129860100D03*
%TO.P,SW1,2,2*%
%TO.N,Net-(R2-Pad2)*%
X157981000Y-129860100D03*
%TO.P,SW1,3,3*%
%TO.N,/VCC*%
X156481000Y-129860100D03*
D13*
%TO.P,SW1,S1,S1*%
%TO.N,GND*%
X162381000Y-130645100D03*
%TO.P,SW1,S2,S2*%
X162381000Y-132575100D03*
%TO.P,SW1,S3,S3*%
X155081000Y-132575100D03*
%TO.P,SW1,S4,S4*%
X155081000Y-130645100D03*
%TD*%
D14*
%TO.P,R5,1*%
%TO.N,Net-(J2-Pin_5)*%
X157207600Y-114592100D03*
%TO.P,R5,2*%
%TO.N,/VCC*%
X154107600Y-114592100D03*
%TD*%
%TO.P,R6,1*%
%TO.N,Net-(J2-Pin_8)*%
X157090100Y-123491600D03*
%TO.P,R6,2*%
%TO.N,GND*%
X153990100Y-123491600D03*
%TD*%
%TO.P,R2,1*%
%TO.N,Net-(J2-Pin_4)*%
X157128200Y-105721100D03*
%TO.P,R2,2*%
%TO.N,Net-(R2-Pad2)*%
X154028200Y-105721100D03*
%TD*%
D15*
%TO.P,J4,01,01*%
%TO.N,/VCC*%
X166020200Y-104873400D03*
D16*
%TO.P,J4,02,02*%
%TO.N,/A8*%
X166020200Y-107413400D03*
%TO.P,J4,03,03*%
%TO.N,/A9*%
X166020200Y-109953400D03*
%TO.P,J4,04,04*%
%TO.N,/A12*%
X166020200Y-112493400D03*
%TO.P,J4,05,05*%
%TO.N,/CS1*%
X166020200Y-115033400D03*
%TO.P,J4,06,06*%
%TO.N,/A10*%
X166020200Y-117573400D03*
%TO.P,J4,07,07*%
%TO.N,/A11*%
X166020200Y-120113400D03*
%TO.P,J4,08,08*%
%TO.N,/D7*%
X166020200Y-122653400D03*
%TO.P,J4,09,09*%
%TO.N,/D6*%
X166020200Y-125193400D03*
%TO.P,J4,10,10*%
%TO.N,/D5*%
X166020200Y-127733400D03*
%TO.P,J4,11,11*%
%TO.N,/D4*%
X166020200Y-130273400D03*
%TO.P,J4,12,12*%
%TO.N,/D3*%
X166020200Y-132813400D03*
%TD*%
D14*
%TO.P,R3,1*%
%TO.N,Net-(J2-Pin_7)*%
X157166300Y-108689800D03*
%TO.P,R3,2*%
%TO.N,/VCC*%
X154066300Y-108689800D03*
%TD*%
%TO.P,R7,1*%
%TO.N,Net-(J2-Pin_3)*%
X157166300Y-117548000D03*
%TO.P,R7,2*%
%TO.N,/VCC*%
X154066300Y-117548000D03*
%TD*%
D17*
%TO.P,R1,1*%
%TO.N,/VCC*%
X162667600Y-105888500D03*
%TO.P,R1,2*%
%TO.N,Net-(J2-Pin_1)*%
X162667600Y-108988500D03*
%TD*%
D15*
%TO.P,J3,01,01*%
%TO.N,/A7*%
X150780200Y-104873400D03*
D16*
%TO.P,J3,02,02*%
%TO.N,/A6*%
X150780200Y-107413400D03*
%TO.P,J3,03,03*%
%TO.N,/A5*%
X150780200Y-109953400D03*
%TO.P,J3,04,04*%
%TO.N,/A4*%
X150780200Y-112493400D03*
%TO.P,J3,05,05*%
%TO.N,/A3*%
X150780200Y-115033400D03*
%TO.P,J3,06,06*%
%TO.N,/A2*%
X150780200Y-117573400D03*
%TO.P,J3,07,07*%
%TO.N,/A1*%
X150780200Y-120113400D03*
%TO.P,J3,08,08*%
%TO.N,/A0*%
X150780200Y-122653400D03*
%TO.P,J3,09,09*%
%TO.N,/D0*%
X150780200Y-125193400D03*
%TO.P,J3,10,10*%
%TO.N,/D1*%
X150780200Y-127733400D03*
%TO.P,J3,11,11*%
%TO.N,/D2*%
X150780200Y-130273400D03*
%TO.P,J3,12,12*%
%TO.N,GND*%
X150780200Y-132813400D03*
%TD*%
D18*
%TO.P,C1,1*%
%TO.N,/VCC*%
X162493300Y-117338100D03*
%TO.P,C1,2*%
%TO.N,GND*%
X162493300Y-120463100D03*
%TD*%
D14*
%TO.P,R8,1*%
%TO.N,Net-(J2-Pin_2)*%
X157090100Y-120637300D03*
%TO.P,R8,2*%
%TO.N,/VCC*%
X153990100Y-120637300D03*
%TD*%
%TO.P,R4,1*%
%TO.N,Net-(J2-Pin_6)*%
X157166300Y-111661600D03*
%TO.P,R4,2*%
%TO.N,/VCC*%
X154066300Y-111661600D03*
%TD*%
D19*
%TO.N,Net-(J2-Pin_8)*%
X162929200Y-123491100D03*
%TO.N,Net-(J2-Pin_7)*%
X161388700Y-113681600D03*
%TO.N,Net-(J2-Pin_5)*%
X157295200Y-110175700D03*
%TO.N,Net-(J2-Pin_4)*%
X158414900Y-106529000D03*
%TO.N,Net-(J2-Pin_3)*%
X158992900Y-116453000D03*
%TO.N,Net-(J2-Pin_2)*%
X158375000Y-119503600D03*
%TO.N,/A10*%
X162288300Y-124272500D03*
%TD*%
D20*
%TO.N,Net-(R2-Pad2)*%
X157433700Y-128783200D02*
X157981000Y-128783200D01*
X152989600Y-124339100D02*
X157433700Y-128783200D01*
X152989600Y-106759700D02*
X152989600Y-124339100D01*
X154028200Y-105721100D02*
X152989600Y-106759700D01*
X157981000Y-129860100D02*
X157981000Y-128783200D01*
%TO.N,Net-(J2-Pin_8)*%
X170161000Y-125193400D02*
X168984100Y-125193400D01*
X168984100Y-125193400D02*
X166836600Y-123045900D01*
X161127700Y-119454000D02*
X157090100Y-123491600D01*
X163994100Y-119454000D02*
X161127700Y-119454000D01*
X166836600Y-122296500D02*
X163994100Y-119454000D01*
X166836600Y-123045900D02*
X166836600Y-122296500D01*
X166391400Y-123491100D02*
X162929200Y-123491100D01*
X166836600Y-123045900D02*
X166391400Y-123491100D01*
%TO.N,Net-(J2-Pin_7)*%
X170161000Y-122653400D02*
X170161000Y-121476500D01*
X161388700Y-112912200D02*
X161388700Y-113681600D01*
X157166300Y-108689800D02*
X161388700Y-112912200D01*
X170526800Y-121476500D02*
X170161000Y-121476500D01*
X171363200Y-120640100D02*
X170526800Y-121476500D01*
X171363200Y-117007300D02*
X171363200Y-120640100D01*
X170659300Y-116303400D02*
X171363200Y-117007300D01*
X169530800Y-116303400D02*
X170659300Y-116303400D01*
X166909000Y-113681600D02*
X169530800Y-116303400D01*
X161388700Y-113681600D02*
X166909000Y-113681600D01*
%TO.N,Net-(J2-Pin_6)*%
X170161000Y-120113400D02*
X168984100Y-120113400D01*
X156219900Y-112608000D02*
X157166300Y-111661600D01*
X156219900Y-115461600D02*
X156219900Y-112608000D01*
X156570400Y-115812100D02*
X156219900Y-115461600D01*
X158605900Y-115812100D02*
X156570400Y-115812100D01*
X158691900Y-115726100D02*
X158605900Y-115812100D01*
X164691100Y-115726100D02*
X158691900Y-115726100D01*
X165626300Y-116661300D02*
X164691100Y-115726100D01*
X166267600Y-116661300D02*
X165626300Y-116661300D01*
X168984100Y-119377800D02*
X166267600Y-116661300D01*
X168984100Y-120113400D02*
X168984100Y-119377800D01*
%TO.N,Net-(J2-Pin_5)*%
X170161000Y-117573400D02*
X168984100Y-117573400D01*
X157207600Y-114592100D02*
X158156900Y-114592100D01*
X167276200Y-115865500D02*
X168984100Y-117573400D01*
X165469600Y-115865500D02*
X167276200Y-115865500D01*
X164196200Y-114592100D02*
X165469600Y-115865500D01*
X158156900Y-114592100D02*
X164196200Y-114592100D01*
X157522500Y-110175700D02*
X157295200Y-110175700D01*
X158156900Y-110810100D02*
X157522500Y-110175700D01*
X158156900Y-114592100D02*
X158156900Y-110810100D01*
%TO.N,Net-(J2-Pin_4)*%
X157936100Y-106529000D02*
X158414900Y-106529000D01*
X157128200Y-105721100D02*
X157936100Y-106529000D01*
X170526800Y-113856500D02*
X170161000Y-113856500D01*
X171355000Y-113028300D02*
X170526800Y-113856500D01*
X171355000Y-106402100D02*
X171355000Y-113028300D01*
X169019400Y-104066500D02*
X171355000Y-106402100D01*
X160877400Y-104066500D02*
X169019400Y-104066500D01*
X158414900Y-106529000D02*
X160877400Y-104066500D01*
X170161000Y-115033400D02*
X170161000Y-113856500D01*
%TO.N,Net-(J2-Pin_3)*%
X157897900Y-117548000D02*
X158992900Y-116453000D01*
X157166300Y-117548000D02*
X157897900Y-117548000D01*
%TO.N,Net-(J2-Pin_2)*%
X158223800Y-119503600D02*
X158375000Y-119503600D01*
X157090100Y-120637300D02*
X158223800Y-119503600D01*
%TO.N,Net-(J2-Pin_1)*%
X167409000Y-108988500D02*
X168984100Y-107413400D01*
X162667600Y-108988500D02*
X167409000Y-108988500D01*
X170161000Y-107413400D02*
X168984100Y-107413400D01*
%TO.N,/A10*%
X164479200Y-126463400D02*
X162288300Y-124272500D01*
X170582200Y-126463400D02*
X164479200Y-126463400D01*
X171373200Y-125672400D02*
X170582200Y-126463400D01*
X171373200Y-124723400D02*
X171373200Y-125672400D01*
X170480100Y-123830300D02*
X171373200Y-124723400D01*
X169623000Y-123830300D02*
X170480100Y-123830300D01*
X168984100Y-123191400D02*
X169623000Y-123830300D01*
X168984100Y-121287300D02*
X168984100Y-123191400D01*
X166020200Y-118323400D02*
X168984100Y-121287300D01*
X166020200Y-117573400D02*
X166020200Y-118323400D01*
%TO.N,GND*%
X154015800Y-132813400D02*
X154254100Y-132575100D01*
X150780200Y-132813400D02*
X154015800Y-132813400D01*
X155081000Y-132575100D02*
X154254100Y-132575100D01*
X170161000Y-127733400D02*
X168984100Y-127733400D01*
X161039100Y-129918200D02*
X160981000Y-129860100D01*
X162381000Y-129918200D02*
X161039100Y-129918200D01*
X160981000Y-129860100D02*
X160981000Y-128783200D01*
X155195700Y-124697200D02*
X153990100Y-123491600D01*
X158733800Y-124697200D02*
X155195700Y-124697200D01*
X158733800Y-124222600D02*
X158733800Y-124697200D01*
X162493300Y-120463100D02*
X158733800Y-124222600D01*
X158733800Y-126536000D02*
X160981000Y-128783200D01*
X158733800Y-124697200D02*
X158733800Y-126536000D01*
X162381000Y-130645100D02*
X162381000Y-132575100D01*
X155081000Y-130645100D02*
X155081000Y-132575100D01*
X161480300Y-132648900D02*
X161554100Y-132575100D01*
X155981700Y-132648900D02*
X161480300Y-132648900D01*
X155907900Y-132575100D02*
X155981700Y-132648900D01*
X155081000Y-132575100D02*
X155907900Y-132575100D01*
X162381000Y-132575100D02*
X161554100Y-132575100D01*
X162381000Y-130645100D02*
X162381000Y-129918200D01*
X163281700Y-129017500D02*
X162381000Y-129918200D01*
X167700000Y-129017500D02*
X163281700Y-129017500D01*
X168984100Y-127733400D02*
X167700000Y-129017500D01*
%TO.N,/VCC*%
X154066300Y-108689800D02*
X154066300Y-111661600D01*
X156481000Y-129860100D02*
X156481000Y-128783200D01*
X154066300Y-108689800D02*
X155500200Y-107255900D01*
X154107600Y-111702900D02*
X154107600Y-114592100D01*
X154066300Y-111661600D02*
X154107600Y-111702900D01*
X154066300Y-114633400D02*
X154066300Y-117548000D01*
X154107600Y-114592100D02*
X154066300Y-114633400D01*
X152515100Y-124817300D02*
X156481000Y-128783200D01*
X152515100Y-105370000D02*
X152515100Y-124817300D01*
X153372400Y-104512700D02*
X152515100Y-105370000D01*
X154668300Y-104512700D02*
X153372400Y-104512700D01*
X155500200Y-105344600D02*
X154668300Y-104512700D01*
X155500200Y-107255900D02*
X155500200Y-105344600D01*
X166020200Y-104873400D02*
X165213300Y-104873400D01*
X161300200Y-107255900D02*
X162667600Y-105888500D01*
X155500200Y-107255900D02*
X161300200Y-107255900D01*
X164198200Y-105888500D02*
X165213300Y-104873400D01*
X162667600Y-105888500D02*
X164198200Y-105888500D01*
X155290300Y-119337100D02*
X153990100Y-120637300D01*
X155290300Y-118772000D02*
X155290300Y-119337100D01*
X161059400Y-118772000D02*
X155290300Y-118772000D01*
X162493300Y-117338100D02*
X161059400Y-118772000D01*
X155290300Y-118772000D02*
X154066300Y-117548000D01*
%TD*%
%TA.AperFunction,NonConductor*%
G36*
X173421864Y-102520185D02*
G01*
X173467619Y-102572989D01*
X173478825Y-102624500D01*
X173478825Y-134375500D01*
X173459140Y-134442539D01*
X173406336Y-134488294D01*
X173354825Y-134499500D01*
X149183900Y-134499500D01*
X149116861Y-134479815D01*
X149071106Y-134427011D01*
X149059900Y-134375500D01*
X149059900Y-132813400D01*
X149794956Y-132813400D01*
X149813886Y-133005610D01*
X149819153Y-133022973D01*
X149869953Y-133190437D01*
X149961000Y-133360772D01*
X149961002Y-133360774D01*
X150083526Y-133510073D01*
X150173707Y-133584081D01*
X150232828Y-133632600D01*
X150403163Y-133723647D01*
X150587988Y-133779713D01*
X150780200Y-133798644D01*
X150972412Y-133779713D01*
X151157237Y-133723647D01*
X151327572Y-133632600D01*
X151476873Y-133510073D01*
X151498077Y-133484236D01*
X151555823Y-133444901D01*
X151593931Y-133438900D01*
X153933057Y-133438900D01*
X153948677Y-133440624D01*
X153948704Y-133440339D01*
X153956460Y-133441071D01*
X153956467Y-133441073D01*
X154025614Y-133438900D01*
X154055150Y-133438900D01*
X154062028Y-133438030D01*
X154067841Y-133437572D01*
X154114427Y-133436109D01*
X154133669Y-133430517D01*
X154152712Y-133426574D01*
X154172592Y-133424064D01*
X154199470Y-133413421D01*
X154215915Y-133406911D01*
X154221442Y-133405018D01*
X154233142Y-133401619D01*
X154303010Y-133401816D01*
X154330382Y-133415567D01*
X154330886Y-133414646D01*
X154338671Y-133418897D01*
X154473517Y-133469191D01*
X154473516Y-133469191D01*
X154480444Y-133469935D01*
X154533127Y-133475600D01*
X155628872Y-133475599D01*
X155688483Y-133469191D01*
X155823331Y-133418896D01*
X155938546Y-133332646D01*
X155944952Y-133324087D01*
X156000885Y-133282218D01*
X156044218Y-133274400D01*
X161397557Y-133274400D01*
X161413177Y-133276124D01*
X161413204Y-133275839D01*
X161428738Y-133277308D01*
X161428474Y-133280094D01*
X161483184Y-133294290D01*
X161518752Y-133326366D01*
X161523454Y-133332646D01*
X161523455Y-133332646D01*
X161523456Y-133332648D01*
X161638664Y-133418893D01*
X161638671Y-133418897D01*
X161773517Y-133469191D01*
X161773516Y-133469191D01*
X161780444Y-133469935D01*
X161833127Y-133475600D01*
X162928872Y-133475599D01*
X162988483Y-133469191D01*
X163123331Y-133418896D01*
X163238546Y-133332646D01*
X163324796Y-133217431D01*
X163375091Y-133082583D01*
X163381500Y-133022973D01*
X163381500Y-132813400D01*
X165034956Y-132813400D01*
X165053886Y-133005610D01*
X165059153Y-133022973D01*
X165109953Y-133190437D01*
X165201000Y-133360772D01*
X165201002Y-133360774D01*
X165323526Y-133510073D01*
X165413707Y-133584081D01*
X165472828Y-133632600D01*
X165643163Y-133723647D01*
X165827988Y-133779713D01*
X166020200Y-133798644D01*
X166212412Y-133779713D01*
X166397237Y-133723647D01*
X166567572Y-133632600D01*
X166716873Y-133510073D01*
X166839400Y-133360772D01*
X166930447Y-133190437D01*
X166986513Y-133005612D01*
X167005444Y-132813400D01*
X166986513Y-132621188D01*
X166930447Y-132436363D01*
X166839400Y-132266028D01*
X166747184Y-132153661D01*
X166716873Y-132116726D01*
X166603153Y-132023400D01*
X166567572Y-131994200D01*
X166397237Y-131903153D01*
X166304824Y-131875120D01*
X166212410Y-131847086D01*
X166020200Y-131828156D01*
X165827989Y-131847086D01*
X165643160Y-131903154D01*
X165587752Y-131932771D01*
X165472828Y-131994200D01*
X165472826Y-131994201D01*
X165472825Y-131994202D01*
X165323526Y-132116726D01*
X165201002Y-132266025D01*
X165109954Y-132436360D01*
X165053886Y-132621189D01*
X165034956Y-132813400D01*
X163381500Y-132813400D01*
X163381499Y-132127228D01*
X163375091Y-132067617D01*
X163369717Y-132053209D01*
X163324797Y-131932771D01*
X163324793Y-131932764D01*
X163238547Y-131817555D01*
X163238544Y-131817552D01*
X163123334Y-131731305D01*
X163123332Y-131731304D01*
X163109864Y-131726281D01*
X163053931Y-131684409D01*
X163029515Y-131618944D01*
X163044368Y-131550672D01*
X163093774Y-131501267D01*
X163109869Y-131493917D01*
X163111413Y-131493340D01*
X163123331Y-131488896D01*
X163238546Y-131402646D01*
X163324796Y-131287431D01*
X163375091Y-131152583D01*
X163381500Y-131092973D01*
X163381499Y-130197228D01*
X163375091Y-130137617D01*
X163354044Y-130081188D01*
X163324797Y-130002771D01*
X163320546Y-129994986D01*
X163322850Y-129993727D01*
X163303218Y-129941112D01*
X163318061Y-129872837D01*
X163339213Y-129844577D01*
X163504473Y-129679316D01*
X163565796Y-129645834D01*
X163592153Y-129643000D01*
X165038497Y-129643000D01*
X165105536Y-129662685D01*
X165151291Y-129715489D01*
X165161235Y-129784647D01*
X165147855Y-129825454D01*
X165109954Y-129896360D01*
X165053886Y-130081189D01*
X165034956Y-130273400D01*
X165053886Y-130465610D01*
X165109954Y-130650439D01*
X165113981Y-130657972D01*
X165201000Y-130820772D01*
X165201002Y-130820774D01*
X165323526Y-130970073D01*
X165342059Y-130985282D01*
X165472828Y-131092600D01*
X165643163Y-131183647D01*
X165827988Y-131239713D01*
X166020200Y-131258644D01*
X166212412Y-131239713D01*
X166397237Y-131183647D01*
X166567572Y-131092600D01*
X166716873Y-130970073D01*
X166839400Y-130820772D01*
X166930447Y-130650437D01*
X166986513Y-130465612D01*
X167005444Y-130273400D01*
X166986513Y-130081188D01*
X166930447Y-129896363D01*
X166892545Y-129825454D01*
X166878303Y-129757051D01*
X166903303Y-129691807D01*
X166959608Y-129650436D01*
X167001903Y-129643000D01*
X167617257Y-129643000D01*
X167632877Y-129644724D01*
X167632904Y-129644439D01*
X167640660Y-129645171D01*
X167640667Y-129645173D01*
X167709814Y-129643000D01*
X167739350Y-129643000D01*
X167746228Y-129642130D01*
X167752041Y-129641672D01*
X167798627Y-129640209D01*
X167817869Y-129634617D01*
X167836912Y-129630674D01*
X167856792Y-129628164D01*
X167900122Y-129611007D01*
X167905646Y-129609117D01*
X167909396Y-129608027D01*
X167950390Y-129596118D01*
X167967629Y-129585922D01*
X167985103Y-129577362D01*
X168003727Y-129569988D01*
X168003727Y-129569987D01*
X168003732Y-129569986D01*
X168041449Y-129542582D01*
X168046305Y-129539392D01*
X168086420Y-129515670D01*
X168100589Y-129501499D01*
X168115379Y-129488868D01*
X168131587Y-129477094D01*
X168161299Y-129441176D01*
X168165212Y-129436876D01*
X168972217Y-128629871D01*
X169033538Y-128596388D01*
X169103230Y-128601372D01*
X169147577Y-128629873D01*
X169289599Y-128771895D01*
X169386384Y-128839665D01*
X169483165Y-128907432D01*
X169483167Y-128907433D01*
X169483170Y-128907435D01*
X169697337Y-129007303D01*
X169925592Y-129068463D01*
X170113918Y-129084939D01*
X170160999Y-129089059D01*
X170161000Y-129089059D01*
X170161001Y-129089059D01*
X170200234Y-129085626D01*
X170396408Y-129068463D01*
X170624663Y-129007303D01*
X170838830Y-128907435D01*
X171032401Y-128771895D01*
X171199495Y-128604801D01*
X171335035Y-128411230D01*
X171434903Y-128197063D01*
X171496063Y-127968808D01*
X171516659Y-127733400D01*
X171496063Y-127497992D01*
X171434903Y-127269737D01*
X171335035Y-127055571D01*
X171321840Y-127036727D01*
X171205098Y-126870001D01*
X171182771Y-126803795D01*
X171199781Y-126736028D01*
X171218988Y-126711201D01*
X171756988Y-126173201D01*
X171769242Y-126163386D01*
X171769059Y-126163164D01*
X171775066Y-126158192D01*
X171775077Y-126158186D01*
X171805975Y-126125282D01*
X171822427Y-126107764D01*
X171832871Y-126097318D01*
X171843320Y-126086871D01*
X171847579Y-126081378D01*
X171851352Y-126076961D01*
X171883262Y-126042982D01*
X171892915Y-126025420D01*
X171903589Y-126009170D01*
X171915873Y-125993336D01*
X171934380Y-125950567D01*
X171936949Y-125945324D01*
X171959396Y-125904493D01*
X171959397Y-125904492D01*
X171964377Y-125885091D01*
X171970678Y-125866688D01*
X171978638Y-125848296D01*
X171985930Y-125802249D01*
X171987111Y-125796552D01*
X171998700Y-125751419D01*
X171998700Y-125731383D01*
X172000227Y-125711982D01*
X172003360Y-125692204D01*
X171998975Y-125645815D01*
X171998700Y-125639977D01*
X171998700Y-124806138D01*
X172000424Y-124790524D01*
X172000138Y-124790497D01*
X172000872Y-124782734D01*
X171998700Y-124713603D01*
X171998700Y-124684051D01*
X171998700Y-124684050D01*
X171997829Y-124677159D01*
X171997372Y-124671345D01*
X171995909Y-124624772D01*
X171990322Y-124605544D01*
X171986374Y-124586484D01*
X171983864Y-124566608D01*
X171966707Y-124523275D01*
X171964819Y-124517759D01*
X171951819Y-124473012D01*
X171941618Y-124455763D01*
X171933060Y-124438294D01*
X171925686Y-124419668D01*
X171925683Y-124419664D01*
X171925683Y-124419663D01*
X171898298Y-124381971D01*
X171895090Y-124377087D01*
X171871372Y-124336982D01*
X171871363Y-124336971D01*
X171857205Y-124322813D01*
X171844570Y-124308020D01*
X171832793Y-124291812D01*
X171796893Y-124262113D01*
X171792581Y-124258190D01*
X171215286Y-123680895D01*
X171181801Y-123619572D01*
X171186785Y-123549880D01*
X171201388Y-123522097D01*
X171335035Y-123331230D01*
X171434903Y-123117063D01*
X171496063Y-122888808D01*
X171516659Y-122653400D01*
X171496063Y-122417992D01*
X171434903Y-122189737D01*
X171335035Y-121975571D01*
X171220623Y-121812173D01*
X171198297Y-121745969D01*
X171215307Y-121678202D01*
X171234514Y-121653375D01*
X171746988Y-121140901D01*
X171759242Y-121131086D01*
X171759059Y-121130864D01*
X171765066Y-121125892D01*
X171765077Y-121125886D01*
X171795975Y-121092982D01*
X171812427Y-121075464D01*
X171822871Y-121065018D01*
X171833320Y-121054571D01*
X171837579Y-121049078D01*
X171841352Y-121044661D01*
X171873262Y-121010682D01*
X171882913Y-120993124D01*
X171893596Y-120976861D01*
X171905873Y-120961036D01*
X171924385Y-120918253D01*
X171926938Y-120913041D01*
X171949397Y-120872192D01*
X171954380Y-120852780D01*
X171960681Y-120834380D01*
X171968637Y-120815996D01*
X171975929Y-120769952D01*
X171977106Y-120764271D01*
X171988700Y-120719119D01*
X171988700Y-120699083D01*
X171990227Y-120679682D01*
X171991309Y-120672850D01*
X171993360Y-120659904D01*
X171988975Y-120613515D01*
X171988700Y-120607677D01*
X171988700Y-117090042D01*
X171990424Y-117074422D01*
X171990139Y-117074396D01*
X171990871Y-117066640D01*
X171990873Y-117066633D01*
X171988700Y-116997485D01*
X171988700Y-116967950D01*
X171987831Y-116961072D01*
X171987372Y-116955243D01*
X171985909Y-116908672D01*
X171980322Y-116889444D01*
X171976374Y-116870384D01*
X171973863Y-116850504D01*
X171956712Y-116807187D01*
X171954819Y-116801658D01*
X171941818Y-116756909D01*
X171941816Y-116756906D01*
X171931623Y-116739671D01*
X171923061Y-116722194D01*
X171915687Y-116703570D01*
X171915686Y-116703568D01*
X171888279Y-116665845D01*
X171885088Y-116660986D01*
X171861372Y-116620883D01*
X171861365Y-116620874D01*
X171847206Y-116606715D01*
X171834568Y-116591919D01*
X171831834Y-116588156D01*
X171822794Y-116575713D01*
X171786888Y-116546009D01*
X171782576Y-116542086D01*
X171250745Y-116010254D01*
X171217260Y-115948931D01*
X171222244Y-115879239D01*
X171236850Y-115851451D01*
X171335035Y-115711230D01*
X171434903Y-115497063D01*
X171496063Y-115268808D01*
X171516659Y-115033400D01*
X171496063Y-114797992D01*
X171434903Y-114569737D01*
X171335035Y-114355571D01*
X171220623Y-114192173D01*
X171198297Y-114125969D01*
X171215307Y-114058202D01*
X171234515Y-114033374D01*
X171738786Y-113529102D01*
X171751048Y-113519280D01*
X171750865Y-113519059D01*
X171756867Y-113514092D01*
X171756877Y-113514086D01*
X171804241Y-113463648D01*
X171825120Y-113442770D01*
X171829373Y-113437286D01*
X171833150Y-113432863D01*
X171865062Y-113398882D01*
X171874714Y-113381323D01*
X171885389Y-113365072D01*
X171897674Y-113349236D01*
X171916186Y-113306452D01*
X171918742Y-113301235D01*
X171941197Y-113260392D01*
X171946180Y-113240980D01*
X171952477Y-113222591D01*
X171960438Y-113204195D01*
X171967729Y-113158153D01*
X171968908Y-113152462D01*
X171980500Y-113107319D01*
X171980500Y-113087283D01*
X171982027Y-113067882D01*
X171983280Y-113059971D01*
X171985160Y-113048104D01*
X171980775Y-113001715D01*
X171980500Y-112995877D01*
X171980500Y-106484837D01*
X171982224Y-106469223D01*
X171981938Y-106469196D01*
X171982672Y-106461433D01*
X171981533Y-106425197D01*
X171980500Y-106392303D01*
X171980500Y-106362750D01*
X171979629Y-106355859D01*
X171979172Y-106350045D01*
X171977709Y-106303472D01*
X171972122Y-106284244D01*
X171968174Y-106265184D01*
X171965664Y-106245308D01*
X171948507Y-106201975D01*
X171946619Y-106196459D01*
X171933619Y-106151712D01*
X171923418Y-106134463D01*
X171914860Y-106116994D01*
X171907486Y-106098368D01*
X171907483Y-106098364D01*
X171907483Y-106098363D01*
X171880098Y-106060671D01*
X171876890Y-106055787D01*
X171853172Y-106015682D01*
X171853163Y-106015671D01*
X171839005Y-106001513D01*
X171826370Y-105986720D01*
X171814593Y-105970512D01*
X171778693Y-105940813D01*
X171774381Y-105936890D01*
X169520203Y-103682712D01*
X169510380Y-103670450D01*
X169510159Y-103670634D01*
X169505186Y-103664623D01*
X169486559Y-103647131D01*
X169454764Y-103617273D01*
X169444319Y-103606828D01*
X169433875Y-103596383D01*
X169428386Y-103592125D01*
X169423961Y-103588347D01*
X169389982Y-103556438D01*
X169389980Y-103556436D01*
X169389977Y-103556435D01*
X169372429Y-103546788D01*
X169356163Y-103536104D01*
X169340333Y-103523825D01*
X169297568Y-103505318D01*
X169292322Y-103502748D01*
X169251493Y-103480303D01*
X169251492Y-103480302D01*
X169232093Y-103475322D01*
X169213681Y-103469018D01*
X169195298Y-103461062D01*
X169195292Y-103461060D01*
X169149274Y-103453772D01*
X169143552Y-103452587D01*
X169098421Y-103441000D01*
X169098419Y-103441000D01*
X169078384Y-103441000D01*
X169058986Y-103439473D01*
X169051562Y-103438297D01*
X169039205Y-103436340D01*
X169039204Y-103436340D01*
X168992816Y-103440725D01*
X168986978Y-103441000D01*
X160960143Y-103441000D01*
X160944522Y-103439275D01*
X160944496Y-103439561D01*
X160936734Y-103438827D01*
X160936733Y-103438827D01*
X160867586Y-103441000D01*
X160838049Y-103441000D01*
X160831166Y-103441869D01*
X160825349Y-103442326D01*
X160778773Y-103443790D01*
X160759529Y-103449381D01*
X160740479Y-103453325D01*
X160720611Y-103455834D01*
X160677284Y-103472988D01*
X160671758Y-103474879D01*
X160627014Y-103487879D01*
X160627010Y-103487881D01*
X160609766Y-103498079D01*
X160592305Y-103506633D01*
X160573674Y-103514010D01*
X160573662Y-103514017D01*
X160535970Y-103541402D01*
X160531087Y-103544609D01*
X160490980Y-103568329D01*
X160476814Y-103582495D01*
X160462024Y-103595127D01*
X160445814Y-103606904D01*
X160445811Y-103606907D01*
X160416110Y-103642809D01*
X160412177Y-103647131D01*
X158490380Y-105568929D01*
X158429057Y-105602414D01*
X158359365Y-105597430D01*
X158303432Y-105555558D01*
X158279015Y-105490094D01*
X158278699Y-105481248D01*
X158278699Y-105046098D01*
X158278698Y-105046081D01*
X158268199Y-104943303D01*
X158268198Y-104943300D01*
X158258162Y-104913013D01*
X158213014Y-104776766D01*
X158120912Y-104627444D01*
X157996856Y-104503388D01*
X157847534Y-104411286D01*
X157680997Y-104356101D01*
X157680995Y-104356100D01*
X157578210Y-104345600D01*
X156678198Y-104345600D01*
X156678180Y-104345601D01*
X156575403Y-104356100D01*
X156575400Y-104356101D01*
X156408868Y-104411285D01*
X156408863Y-104411287D01*
X156259542Y-104503389D01*
X156135489Y-104627442D01*
X156135488Y-104627444D01*
X156050959Y-104764489D01*
X156039595Y-104782913D01*
X156036936Y-104781273D01*
X155999905Y-104823217D01*
X155932686Y-104842279D01*
X155865832Y-104821973D01*
X155846156Y-104805965D01*
X155169103Y-104128912D01*
X155159280Y-104116650D01*
X155159059Y-104116834D01*
X155154086Y-104110823D01*
X155135459Y-104093331D01*
X155103664Y-104063473D01*
X155093219Y-104053028D01*
X155082775Y-104042583D01*
X155077286Y-104038325D01*
X155072861Y-104034547D01*
X155038882Y-104002638D01*
X155038880Y-104002636D01*
X155038877Y-104002635D01*
X155021329Y-103992988D01*
X155005063Y-103982304D01*
X154989233Y-103970025D01*
X154946468Y-103951518D01*
X154941222Y-103948948D01*
X154900393Y-103926503D01*
X154900392Y-103926502D01*
X154880993Y-103921522D01*
X154862581Y-103915218D01*
X154844198Y-103907262D01*
X154844192Y-103907260D01*
X154798174Y-103899972D01*
X154792452Y-103898787D01*
X154747321Y-103887200D01*
X154747319Y-103887200D01*
X154727284Y-103887200D01*
X154707886Y-103885673D01*
X154700462Y-103884497D01*
X154688105Y-103882540D01*
X154688104Y-103882540D01*
X154641716Y-103886925D01*
X154635878Y-103887200D01*
X153455137Y-103887200D01*
X153439520Y-103885476D01*
X153439493Y-103885762D01*
X153431731Y-103885027D01*
X153362603Y-103887200D01*
X153333050Y-103887200D01*
X153332329Y-103887290D01*
X153326157Y-103888069D01*
X153320345Y-103888526D01*
X153273778Y-103889990D01*
X153273767Y-103889992D01*
X153254534Y-103895579D01*
X153235494Y-103899522D01*
X153215617Y-103902034D01*
X153215610Y-103902035D01*
X153215608Y-103902036D01*
X153215606Y-103902036D01*
X153215605Y-103902037D01*
X153172268Y-103919194D01*
X153166742Y-103921086D01*
X153122011Y-103934082D01*
X153122008Y-103934083D01*
X153104763Y-103944281D01*
X153087301Y-103952835D01*
X153068672Y-103960211D01*
X153068667Y-103960213D01*
X153030964Y-103987606D01*
X153026082Y-103990812D01*
X152985980Y-104014528D01*
X152971808Y-104028700D01*
X152957023Y-104041328D01*
X152940812Y-104053107D01*
X152911109Y-104089010D01*
X152907177Y-104093331D01*
X152131308Y-104869199D01*
X152119051Y-104879020D01*
X152119234Y-104879241D01*
X152113223Y-104884213D01*
X152065872Y-104934636D01*
X152044989Y-104955519D01*
X152044977Y-104955532D01*
X152040721Y-104961017D01*
X152036937Y-104965447D01*
X152005037Y-104999418D01*
X152005036Y-104999420D01*
X151995384Y-105016976D01*
X151984720Y-105033214D01*
X151982694Y-105035827D01*
X151926059Y-105076745D01*
X151856293Y-105080549D01*
X151795546Y-105046030D01*
X151763104Y-104984149D01*
X151760699Y-104959851D01*
X151760699Y-104345528D01*
X151754291Y-104285917D01*
X151703996Y-104151069D01*
X151703995Y-104151068D01*
X151703993Y-104151064D01*
X151617747Y-104035855D01*
X151617744Y-104035852D01*
X151502535Y-103949606D01*
X151502528Y-103949602D01*
X151367682Y-103899308D01*
X151367683Y-103899308D01*
X151308083Y-103892901D01*
X151308081Y-103892900D01*
X151308073Y-103892900D01*
X151308064Y-103892900D01*
X150252329Y-103892900D01*
X150252323Y-103892901D01*
X150192716Y-103899308D01*
X150057871Y-103949602D01*
X150057864Y-103949606D01*
X149942655Y-104035852D01*
X149942652Y-104035855D01*
X149856406Y-104151064D01*
X149856402Y-104151071D01*
X149806108Y-104285917D01*
X149799701Y-104345516D01*
X149799701Y-104345523D01*
X149799700Y-104345535D01*
X149799700Y-105401270D01*
X149799701Y-105401276D01*
X149806108Y-105460883D01*
X149856402Y-105595728D01*
X149856406Y-105595735D01*
X149942652Y-105710944D01*
X149942655Y-105710947D01*
X150057864Y-105797193D01*
X150057871Y-105797197D01*
X150192717Y-105847491D01*
X150192716Y-105847491D01*
X150199644Y-105848235D01*
X150252327Y-105853900D01*
X151308072Y-105853899D01*
X151367683Y-105847491D01*
X151502531Y-105797196D01*
X151617746Y-105710946D01*
X151666335Y-105646039D01*
X151722267Y-105604170D01*
X151791959Y-105599186D01*
X151853282Y-105632671D01*
X151886766Y-105693994D01*
X151889600Y-105720352D01*
X151889600Y-106913917D01*
X151869915Y-106980956D01*
X151817111Y-107026711D01*
X151747953Y-107036655D01*
X151684397Y-107007630D01*
X151656242Y-106972371D01*
X151646319Y-106953807D01*
X151599400Y-106866028D01*
X151510052Y-106757156D01*
X151476873Y-106716726D01*
X151327574Y-106594202D01*
X151327575Y-106594202D01*
X151327572Y-106594200D01*
X151157237Y-106503153D01*
X151045296Y-106469196D01*
X150972410Y-106447086D01*
X150780200Y-106428156D01*
X150587989Y-106447086D01*
X150403160Y-106503154D01*
X150354807Y-106529000D01*
X150232828Y-106594200D01*
X150232826Y-106594201D01*
X150232825Y-106594202D01*
X150083526Y-106716726D01*
X149961002Y-106866025D01*
X149869954Y-107036360D01*
X149869953Y-107036362D01*
X149869953Y-107036363D01*
X149869154Y-107038998D01*
X149813886Y-107221189D01*
X149794956Y-107413400D01*
X149813886Y-107605610D01*
X149841920Y-107698024D01*
X149869953Y-107790437D01*
X149961000Y-107960772D01*
X149989737Y-107995788D01*
X150083526Y-108110073D01*
X150141679Y-108157797D01*
X150232828Y-108232600D01*
X150403163Y-108323647D01*
X150587988Y-108379713D01*
X150780200Y-108398644D01*
X150972412Y-108379713D01*
X151157237Y-108323647D01*
X151327572Y-108232600D01*
X151476873Y-108110073D01*
X151599400Y-107960772D01*
X151656243Y-107854426D01*
X151705205Y-107804584D01*
X151773342Y-107789124D01*
X151839022Y-107812956D01*
X151881391Y-107868514D01*
X151889600Y-107912882D01*
X151889600Y-109453917D01*
X151869915Y-109520956D01*
X151817111Y-109566711D01*
X151747953Y-109576655D01*
X151684397Y-109547630D01*
X151656242Y-109512371D01*
X151655182Y-109510388D01*
X151599400Y-109406028D01*
X151492338Y-109275571D01*
X151476873Y-109256726D01*
X151327574Y-109134202D01*
X151327575Y-109134202D01*
X151327572Y-109134200D01*
X151157237Y-109043153D01*
X151064824Y-109015120D01*
X150972410Y-108987086D01*
X150780200Y-108968156D01*
X150587989Y-108987086D01*
X150403160Y-109043154D01*
X150330488Y-109081999D01*
X150232828Y-109134200D01*
X150232826Y-109134201D01*
X150232825Y-109134202D01*
X150083526Y-109256726D01*
X149961002Y-109406025D01*
X149961000Y-109406028D01*
X149935403Y-109453917D01*
X149869954Y-109576360D01*
X149869953Y-109576362D01*
X149869953Y-109576363D01*
X149868814Y-109580117D01*
X149813886Y-109761189D01*
X149794956Y-109953400D01*
X149813886Y-110145610D01*
X149813887Y-110145612D01*
X149869953Y-110330437D01*
X149961000Y-110500772D01*
X149993345Y-110540185D01*
X150083526Y-110650073D01*
X150165399Y-110717263D01*
X150232828Y-110772600D01*
X150403163Y-110863647D01*
X150587988Y-110919713D01*
X150780200Y-110938644D01*
X150972412Y-110919713D01*
X151157237Y-110863647D01*
X151327572Y-110772600D01*
X151476873Y-110650073D01*
X151599400Y-110500772D01*
X151656243Y-110394426D01*
X151705205Y-110344584D01*
X151773342Y-110329124D01*
X151839022Y-110352956D01*
X151881391Y-110408514D01*
X151889600Y-110452882D01*
X151889600Y-111993917D01*
X151869915Y-112060956D01*
X151817111Y-112106711D01*
X151747953Y-112116655D01*
X151684397Y-112087630D01*
X151656242Y-112052371D01*
X151599400Y-111946028D01*
X151492338Y-111815571D01*
X151476873Y-111796726D01*
X151327574Y-111674202D01*
X151327575Y-111674202D01*
X151327572Y-111674200D01*
X151157237Y-111583153D01*
X151064824Y-111555120D01*
X150972410Y-111527086D01*
X150780200Y-111508156D01*
X150587989Y-111527086D01*
X150403160Y-111583154D01*
X150330488Y-111621999D01*
X150232828Y-111674200D01*
X150232826Y-111674201D01*
X150232825Y-111674202D01*
X150083526Y-111796726D01*
X149961002Y-111946025D01*
X149869954Y-112116360D01*
X149869953Y-112116362D01*
X149869953Y-112116363D01*
X149869797Y-112116878D01*
X149813886Y-112301189D01*
X149794956Y-112493400D01*
X149813886Y-112685610D01*
X149835059Y-112755406D01*
X149869953Y-112870437D01*
X149961000Y-113040772D01*
X149983685Y-113068414D01*
X150083526Y-113190073D01*
X150134054Y-113231539D01*
X150232828Y-113312600D01*
X150403163Y-113403647D01*
X150587988Y-113459713D01*
X150780200Y-113478644D01*
X150972412Y-113459713D01*
X151157237Y-113403647D01*
X151327572Y-113312600D01*
X151476873Y-113190073D01*
X151599400Y-113040772D01*
X151656243Y-112934426D01*
X151705205Y-112884584D01*
X151773342Y-112869124D01*
X151839022Y-112892956D01*
X151881391Y-112948514D01*
X151889600Y-112992882D01*
X151889600Y-114533917D01*
X151869915Y-114600956D01*
X151817111Y-114646711D01*
X151747953Y-114656655D01*
X151684397Y-114627630D01*
X151656242Y-114592371D01*
X151599400Y-114486028D01*
X151550881Y-114426907D01*
X151476873Y-114336726D01*
X151327574Y-114214202D01*
X151327575Y-114214202D01*
X151327572Y-114214200D01*
X151157237Y-114123153D01*
X151064824Y-114095120D01*
X150972410Y-114067086D01*
X150780200Y-114048156D01*
X150587989Y-114067086D01*
X150403160Y-114123154D01*
X150330488Y-114161999D01*
X150232828Y-114214200D01*
X150232826Y-114214201D01*
X150232825Y-114214202D01*
X150083526Y-114336726D01*
X149961002Y-114486025D01*
X149869954Y-114656360D01*
X149869953Y-114656362D01*
X149869953Y-114656363D01*
X149863541Y-114677497D01*
X149813886Y-114841189D01*
X149794956Y-115033400D01*
X149813886Y-115225610D01*
X149821987Y-115252314D01*
X149869953Y-115410437D01*
X149961000Y-115580772D01*
X149975564Y-115598518D01*
X150083526Y-115730073D01*
X150172418Y-115803023D01*
X150232828Y-115852600D01*
X150403163Y-115943647D01*
X150587988Y-115999713D01*
X150780200Y-116018644D01*
X150972412Y-115999713D01*
X151157237Y-115943647D01*
X151327572Y-115852600D01*
X151476873Y-115730073D01*
X151599400Y-115580772D01*
X151656243Y-115474426D01*
X151705205Y-115424584D01*
X151773342Y-115409124D01*
X151839022Y-115432956D01*
X151881391Y-115488514D01*
X151889600Y-115532882D01*
X151889600Y-117073917D01*
X151869915Y-117140956D01*
X151817111Y-117186711D01*
X151747953Y-117196655D01*
X151684397Y-117167630D01*
X151656242Y-117132371D01*
X151652777Y-117125888D01*
X151599400Y-117026028D01*
X151550881Y-116966907D01*
X151476873Y-116876726D01*
X151327574Y-116754202D01*
X151327575Y-116754202D01*
X151327572Y-116754200D01*
X151157237Y-116663153D01*
X151064824Y-116635120D01*
X150972410Y-116607086D01*
X150780200Y-116588156D01*
X150587989Y-116607086D01*
X150403160Y-116663154D01*
X150327549Y-116703570D01*
X150232828Y-116754200D01*
X150232826Y-116754201D01*
X150232825Y-116754202D01*
X150083526Y-116876726D01*
X149984424Y-116997485D01*
X149961000Y-117026028D01*
X149935133Y-117074422D01*
X149869954Y-117196360D01*
X149869953Y-117196362D01*
X149869953Y-117196363D01*
X149863541Y-117217497D01*
X149813886Y-117381189D01*
X149794956Y-117573400D01*
X149813886Y-117765610D01*
X149824503Y-117800608D01*
X149869953Y-117950437D01*
X149961000Y-118120772D01*
X149982114Y-118146500D01*
X150083526Y-118270073D01*
X150154547Y-118328357D01*
X150232828Y-118392600D01*
X150403163Y-118483647D01*
X150587988Y-118539713D01*
X150780200Y-118558644D01*
X150972412Y-118539713D01*
X151157237Y-118483647D01*
X151327572Y-118392600D01*
X151476873Y-118270073D01*
X151599400Y-118120772D01*
X151656243Y-118014426D01*
X151705205Y-117964584D01*
X151773342Y-117949124D01*
X151839022Y-117972956D01*
X151881391Y-118028514D01*
X151889600Y-118072882D01*
X151889600Y-119613917D01*
X151869915Y-119680956D01*
X151817111Y-119726711D01*
X151747953Y-119736655D01*
X151684397Y-119707630D01*
X151656242Y-119672371D01*
X151648580Y-119658036D01*
X151599400Y-119566028D01*
X151499193Y-119443924D01*
X151476873Y-119416726D01*
X151327574Y-119294202D01*
X151327575Y-119294202D01*
X151327572Y-119294200D01*
X151157237Y-119203153D01*
X151064824Y-119175120D01*
X150972410Y-119147086D01*
X150780200Y-119128156D01*
X150587989Y-119147086D01*
X150448794Y-119189311D01*
X150403167Y-119203152D01*
X150403160Y-119203154D01*
X150330271Y-119242115D01*
X150232828Y-119294200D01*
X150232826Y-119294201D01*
X150232825Y-119294202D01*
X150083526Y-119416726D01*
X149961002Y-119566025D01*
X149961000Y-119566028D01*
X149941397Y-119602703D01*
X149869954Y-119736360D01*
X149869953Y-119736362D01*
X149869953Y-119736363D01*
X149868201Y-119742139D01*
X149813886Y-119921189D01*
X149794956Y-120113400D01*
X149813886Y-120305610D01*
X149820224Y-120326502D01*
X149869953Y-120490437D01*
X149961000Y-120660772D01*
X149970912Y-120672850D01*
X150083526Y-120810073D01*
X150173707Y-120884081D01*
X150232828Y-120932600D01*
X150403163Y-121023647D01*
X150587988Y-121079713D01*
X150780200Y-121098644D01*
X150972412Y-121079713D01*
X151157237Y-121023647D01*
X151327572Y-120932600D01*
X151476873Y-120810073D01*
X151599400Y-120660772D01*
X151656243Y-120554426D01*
X151705205Y-120504584D01*
X151773342Y-120489124D01*
X151839022Y-120512956D01*
X151881391Y-120568514D01*
X151889600Y-120612882D01*
X151889600Y-122153917D01*
X151869915Y-122220956D01*
X151817111Y-122266711D01*
X151747953Y-122276655D01*
X151684397Y-122247630D01*
X151656242Y-122212371D01*
X151599400Y-122106028D01*
X151550224Y-122046106D01*
X151476873Y-121956726D01*
X151327574Y-121834202D01*
X151327575Y-121834202D01*
X151327572Y-121834200D01*
X151157237Y-121743153D01*
X151064824Y-121715120D01*
X150972410Y-121687086D01*
X150780200Y-121668156D01*
X150587989Y-121687086D01*
X150403160Y-121743154D01*
X150330488Y-121781999D01*
X150232828Y-121834200D01*
X150232826Y-121834201D01*
X150232825Y-121834202D01*
X150083526Y-121956726D01*
X149971148Y-122093662D01*
X149961000Y-122106028D01*
X149941567Y-122142384D01*
X149869954Y-122276360D01*
X149869953Y-122276362D01*
X149869953Y-122276363D01*
X149866816Y-122286703D01*
X149813886Y-122461189D01*
X149794956Y-122653400D01*
X149813886Y-122845610D01*
X149819950Y-122865600D01*
X149869953Y-123030437D01*
X149961000Y-123200772D01*
X149985596Y-123230743D01*
X150083526Y-123350073D01*
X150151942Y-123406219D01*
X150232828Y-123472600D01*
X150403163Y-123563647D01*
X150587988Y-123619713D01*
X150780200Y-123638644D01*
X150972412Y-123619713D01*
X151157237Y-123563647D01*
X151327572Y-123472600D01*
X151476873Y-123350073D01*
X151599400Y-123200772D01*
X151656243Y-123094426D01*
X151705205Y-123044584D01*
X151773342Y-123029124D01*
X151839022Y-123052956D01*
X151881391Y-123108514D01*
X151889600Y-123152882D01*
X151889600Y-124693917D01*
X151869915Y-124760956D01*
X151817111Y-124806711D01*
X151747953Y-124816655D01*
X151684397Y-124787630D01*
X151656242Y-124752371D01*
X151654037Y-124748245D01*
X151599400Y-124646028D01*
X151496434Y-124520562D01*
X151476873Y-124496726D01*
X151334159Y-124379606D01*
X151327572Y-124374200D01*
X151157237Y-124283153D01*
X151064824Y-124255120D01*
X150972410Y-124227086D01*
X150780200Y-124208156D01*
X150587989Y-124227086D01*
X150403160Y-124283154D01*
X150302478Y-124336971D01*
X150232828Y-124374200D01*
X150232826Y-124374201D01*
X150232825Y-124374202D01*
X150083526Y-124496726D01*
X149961002Y-124646025D01*
X149961000Y-124646028D01*
X149945192Y-124675603D01*
X149869954Y-124816360D01*
X149869953Y-124816362D01*
X149869953Y-124816363D01*
X149866692Y-124827114D01*
X149813886Y-125001189D01*
X149794956Y-125193400D01*
X149813886Y-125385610D01*
X149813887Y-125385612D01*
X149869953Y-125570437D01*
X149961000Y-125740772D01*
X149973286Y-125755743D01*
X150083526Y-125890073D01*
X150150851Y-125945324D01*
X150232828Y-126012600D01*
X150403163Y-126103647D01*
X150587988Y-126159713D01*
X150780200Y-126178644D01*
X150972412Y-126159713D01*
X151157237Y-126103647D01*
X151327572Y-126012600D01*
X151476873Y-125890073D01*
X151599400Y-125740772D01*
X151690447Y-125570437D01*
X151746513Y-125385612D01*
X151763283Y-125215332D01*
X151789443Y-125150547D01*
X151846478Y-125110188D01*
X151916278Y-125107071D01*
X151976683Y-125142185D01*
X151986999Y-125154595D01*
X151989994Y-125158717D01*
X151993205Y-125163604D01*
X152016928Y-125203717D01*
X152016933Y-125203724D01*
X152031090Y-125217880D01*
X152043728Y-125232676D01*
X152055505Y-125248886D01*
X152055506Y-125248887D01*
X152091409Y-125278588D01*
X152095720Y-125282510D01*
X153862804Y-127049594D01*
X155629163Y-128815953D01*
X155662648Y-128877276D01*
X155657664Y-128946966D01*
X155636909Y-129002614D01*
X155636908Y-129002616D01*
X155630501Y-129062216D01*
X155630501Y-129062223D01*
X155630500Y-129062235D01*
X155630500Y-129620600D01*
X155610815Y-129687639D01*
X155558011Y-129733394D01*
X155506500Y-129744600D01*
X154533129Y-129744600D01*
X154533123Y-129744601D01*
X154473516Y-129751008D01*
X154338671Y-129801302D01*
X154338664Y-129801306D01*
X154223455Y-129887552D01*
X154223452Y-129887555D01*
X154137206Y-130002764D01*
X154137202Y-130002771D01*
X154086908Y-130137617D01*
X154080501Y-130197216D01*
X154080501Y-130197223D01*
X154080500Y-130197235D01*
X154080500Y-131092970D01*
X154080501Y-131092976D01*
X154086908Y-131152583D01*
X154137202Y-131287428D01*
X154137206Y-131287435D01*
X154223452Y-131402644D01*
X154223455Y-131402647D01*
X154338664Y-131488893D01*
X154338673Y-131488898D01*
X154352132Y-131493918D01*
X154408066Y-131535788D01*
X154432484Y-131601253D01*
X154417633Y-131669526D01*
X154368228Y-131718932D01*
X154352141Y-131726279D01*
X154338669Y-131731304D01*
X154338664Y-131731306D01*
X154223455Y-131817552D01*
X154141332Y-131927254D01*
X154087711Y-131968235D01*
X154053985Y-131981587D01*
X154048459Y-131983480D01*
X154003709Y-131996482D01*
X153986466Y-132006679D01*
X153969005Y-132015233D01*
X153950374Y-132022610D01*
X153950362Y-132022617D01*
X153912670Y-132050002D01*
X153907787Y-132053209D01*
X153867680Y-132076929D01*
X153853514Y-132091095D01*
X153838724Y-132103727D01*
X153822514Y-132115504D01*
X153822513Y-132115506D01*
X153799815Y-132142941D01*
X153741917Y-132182048D01*
X153704273Y-132187900D01*
X151593931Y-132187900D01*
X151526892Y-132168215D01*
X151498077Y-132142564D01*
X151476874Y-132116728D01*
X151454046Y-132097994D01*
X151417031Y-132067616D01*
X151327575Y-131994202D01*
X151327573Y-131994201D01*
X151327572Y-131994200D01*
X151157237Y-131903153D01*
X151064824Y-131875120D01*
X150972410Y-131847086D01*
X150780200Y-131828156D01*
X150587989Y-131847086D01*
X150403160Y-131903154D01*
X150347752Y-131932771D01*
X150232828Y-131994200D01*
X150232826Y-131994201D01*
X150232825Y-131994202D01*
X150083526Y-132116726D01*
X149961002Y-132266025D01*
X149869954Y-132436360D01*
X149813886Y-132621189D01*
X149794956Y-132813400D01*
X149059900Y-132813400D01*
X149059900Y-130273400D01*
X149794956Y-130273400D01*
X149813886Y-130465610D01*
X149869954Y-130650439D01*
X149873981Y-130657972D01*
X149961000Y-130820772D01*
X149961002Y-130820774D01*
X150083526Y-130970073D01*
X150102059Y-130985282D01*
X150232828Y-131092600D01*
X150403163Y-131183647D01*
X150587988Y-131239713D01*
X150780200Y-131258644D01*
X150972412Y-131239713D01*
X151157237Y-131183647D01*
X151327572Y-131092600D01*
X151476873Y-130970073D01*
X151599400Y-130820772D01*
X151690447Y-130650437D01*
X151746513Y-130465612D01*
X151765444Y-130273400D01*
X151746513Y-130081188D01*
X151690447Y-129896363D01*
X151599400Y-129726028D01*
X151532442Y-129644439D01*
X151476873Y-129576726D01*
X151327574Y-129454202D01*
X151327575Y-129454202D01*
X151327572Y-129454200D01*
X151157237Y-129363153D01*
X151064824Y-129335120D01*
X150972410Y-129307086D01*
X150780200Y-129288156D01*
X150587989Y-129307086D01*
X150403160Y-129363154D01*
X150300354Y-129418106D01*
X150232828Y-129454200D01*
X150232826Y-129454201D01*
X150232825Y-129454202D01*
X150083526Y-129576726D01*
X149961002Y-129726025D01*
X149961000Y-129726028D01*
X149950980Y-129744774D01*
X149869954Y-129896360D01*
X149813886Y-130081189D01*
X149794956Y-130273400D01*
X149059900Y-130273400D01*
X149059900Y-127733400D01*
X149794956Y-127733400D01*
X149813886Y-127925610D01*
X149813887Y-127925612D01*
X149869953Y-128110437D01*
X149961000Y-128280772D01*
X149988085Y-128313775D01*
X150083526Y-128430073D01*
X150143718Y-128479470D01*
X150232828Y-128552600D01*
X150403163Y-128643647D01*
X150587988Y-128699713D01*
X150780200Y-128718644D01*
X150972412Y-128699713D01*
X151157237Y-128643647D01*
X151327572Y-128552600D01*
X151476873Y-128430073D01*
X151599400Y-128280772D01*
X151690447Y-128110437D01*
X151746513Y-127925612D01*
X151765444Y-127733400D01*
X151746513Y-127541188D01*
X151690447Y-127356363D01*
X151599400Y-127186028D01*
X151535283Y-127107900D01*
X151476873Y-127036726D01*
X151351114Y-126933520D01*
X151327572Y-126914200D01*
X151157237Y-126823153D01*
X151036039Y-126786388D01*
X150972410Y-126767086D01*
X150780200Y-126748156D01*
X150587989Y-126767086D01*
X150403160Y-126823154D01*
X150301632Y-126877423D01*
X150232828Y-126914200D01*
X150232826Y-126914201D01*
X150232825Y-126914202D01*
X150083526Y-127036726D01*
X149961002Y-127186025D01*
X149961000Y-127186028D01*
X149948175Y-127210022D01*
X149869954Y-127356360D01*
X149813886Y-127541189D01*
X149794956Y-127733400D01*
X149059900Y-127733400D01*
X149059900Y-102624500D01*
X149079585Y-102557461D01*
X149132389Y-102511706D01*
X149183900Y-102500500D01*
X173354825Y-102500500D01*
X173421864Y-102520185D01*
G37*
%TD.AperFunction*%
%TA.AperFunction,NonConductor*%
G36*
X164277786Y-104711685D02*
G01*
X164323541Y-104764489D01*
X164333485Y-104833647D01*
X164304460Y-104897203D01*
X164298433Y-104903675D01*
X164202690Y-104999418D01*
X164109489Y-105092619D01*
X164048166Y-105126104D01*
X163978474Y-105121120D01*
X163922541Y-105079248D01*
X163916269Y-105070034D01*
X163901505Y-105046098D01*
X163885312Y-105019844D01*
X163769149Y-104903681D01*
X163735664Y-104842358D01*
X163740648Y-104772666D01*
X163782520Y-104716733D01*
X163847984Y-104692316D01*
X163856830Y-104692000D01*
X164210747Y-104692000D01*
X164277786Y-104711685D01*
G37*
%TD.AperFunction*%
%TA.AperFunction,NonConductor*%
G36*
X161545409Y-104711685D02*
G01*
X161591164Y-104764489D01*
X161601108Y-104833647D01*
X161572083Y-104897203D01*
X161566051Y-104903681D01*
X161449889Y-105019842D01*
X161357787Y-105169163D01*
X161357786Y-105169166D01*
X161302601Y-105335703D01*
X161302601Y-105335704D01*
X161302600Y-105335704D01*
X161292100Y-105438483D01*
X161292100Y-106328045D01*
X161272415Y-106395084D01*
X161255781Y-106415726D01*
X161077426Y-106594082D01*
X161016106Y-106627566D01*
X160989747Y-106630400D01*
X159497452Y-106630400D01*
X159430413Y-106610715D01*
X159384658Y-106557911D01*
X159374714Y-106488753D01*
X159403739Y-106425197D01*
X159409771Y-106418719D01*
X160229305Y-105599186D01*
X161100172Y-104728319D01*
X161161495Y-104694834D01*
X161187853Y-104692000D01*
X161478370Y-104692000D01*
X161545409Y-104711685D01*
G37*
%TD.AperFunction*%
%TA.AperFunction,NonConductor*%
G36*
X168775987Y-104711685D02*
G01*
X168796629Y-104728319D01*
X169919528Y-105851219D01*
X169953013Y-105912542D01*
X169948029Y-105982234D01*
X169906157Y-106038167D01*
X169840693Y-106062584D01*
X169831847Y-106062900D01*
X169263129Y-106062900D01*
X169263123Y-106062901D01*
X169203516Y-106069308D01*
X169068671Y-106119602D01*
X169068664Y-106119606D01*
X168953455Y-106205852D01*
X168953452Y-106205855D01*
X168867206Y-106321064D01*
X168867202Y-106321071D01*
X168816908Y-106455917D01*
X168810501Y-106515516D01*
X168810500Y-106515535D01*
X168810500Y-106720099D01*
X168790815Y-106787138D01*
X168740418Y-106830806D01*
X168740422Y-106830813D01*
X168740388Y-106830832D01*
X168738011Y-106832893D01*
X168735751Y-106833899D01*
X168733708Y-106834783D01*
X168716466Y-106844979D01*
X168699005Y-106853533D01*
X168680374Y-106860910D01*
X168680362Y-106860917D01*
X168642670Y-106888302D01*
X168637787Y-106891509D01*
X168597680Y-106915229D01*
X168583514Y-106929395D01*
X168568724Y-106942027D01*
X168552514Y-106953804D01*
X168552511Y-106953807D01*
X168522810Y-106989709D01*
X168518877Y-106994031D01*
X167186228Y-108326681D01*
X167124905Y-108360166D01*
X167098547Y-108363000D01*
X166755237Y-108363000D01*
X166688198Y-108343315D01*
X166642443Y-108290511D01*
X166632499Y-108221353D01*
X166661524Y-108157797D01*
X166676573Y-108143146D01*
X166716873Y-108110073D01*
X166839400Y-107960772D01*
X166930447Y-107790437D01*
X166986513Y-107605612D01*
X167005444Y-107413400D01*
X166986513Y-107221188D01*
X166930447Y-107036363D01*
X166839400Y-106866028D01*
X166750052Y-106757156D01*
X166716873Y-106716726D01*
X166567574Y-106594202D01*
X166567575Y-106594202D01*
X166567572Y-106594200D01*
X166397237Y-106503153D01*
X166285296Y-106469196D01*
X166212410Y-106447086D01*
X166020200Y-106428156D01*
X165827989Y-106447086D01*
X165643160Y-106503154D01*
X165594807Y-106529000D01*
X165472828Y-106594200D01*
X165472826Y-106594201D01*
X165472825Y-106594202D01*
X165323526Y-106716726D01*
X165201002Y-106866025D01*
X165109954Y-107036360D01*
X165109953Y-107036362D01*
X165109953Y-107036363D01*
X165109154Y-107038998D01*
X165053886Y-107221189D01*
X165034956Y-107413400D01*
X165053886Y-107605610D01*
X165081920Y-107698024D01*
X165109953Y-107790437D01*
X165201000Y-107960772D01*
X165229737Y-107995788D01*
X165323526Y-108110073D01*
X165363827Y-108143146D01*
X165403162Y-108200891D01*
X165405033Y-108270736D01*
X165368846Y-108330505D01*
X165306091Y-108361221D01*
X165285163Y-108363000D01*
X164098049Y-108363000D01*
X164031010Y-108343315D01*
X163985255Y-108290511D01*
X163980344Y-108278007D01*
X163977934Y-108270736D01*
X163977414Y-108269166D01*
X163885312Y-108119844D01*
X163761256Y-107995788D01*
X163611934Y-107903686D01*
X163445397Y-107848501D01*
X163445395Y-107848500D01*
X163342610Y-107838000D01*
X161992598Y-107838000D01*
X161992580Y-107838001D01*
X161905068Y-107846941D01*
X161836375Y-107834171D01*
X161785491Y-107786290D01*
X161768571Y-107718500D01*
X161790988Y-107652323D01*
X161804780Y-107635908D01*
X162365371Y-107075318D01*
X162426694Y-107041833D01*
X162453052Y-107038999D01*
X163342602Y-107038999D01*
X163342608Y-107038999D01*
X163445397Y-107028499D01*
X163611934Y-106973314D01*
X163761256Y-106881212D01*
X163885312Y-106757156D01*
X163977414Y-106607834D01*
X163980344Y-106598993D01*
X164020118Y-106541549D01*
X164084635Y-106514728D01*
X164098049Y-106514000D01*
X164115457Y-106514000D01*
X164131077Y-106515724D01*
X164131104Y-106515439D01*
X164138860Y-106516171D01*
X164138867Y-106516173D01*
X164208014Y-106514000D01*
X164237550Y-106514000D01*
X164244428Y-106513130D01*
X164250241Y-106512672D01*
X164296827Y-106511209D01*
X164316069Y-106505617D01*
X164335112Y-106501674D01*
X164354992Y-106499164D01*
X164398322Y-106482007D01*
X164403846Y-106480117D01*
X164407596Y-106479027D01*
X164448590Y-106467118D01*
X164465829Y-106456922D01*
X164483303Y-106448362D01*
X164501927Y-106440988D01*
X164501927Y-106440987D01*
X164501932Y-106440986D01*
X164539649Y-106413582D01*
X164544505Y-106410392D01*
X164584620Y-106386670D01*
X164598789Y-106372499D01*
X164613579Y-106359868D01*
X164629787Y-106348094D01*
X164659499Y-106312176D01*
X164663412Y-106307876D01*
X165152175Y-105819114D01*
X165213494Y-105785632D01*
X165283186Y-105790616D01*
X165296361Y-105796634D01*
X165432717Y-105847491D01*
X165432716Y-105847491D01*
X165439644Y-105848235D01*
X165492327Y-105853900D01*
X166548072Y-105853899D01*
X166607683Y-105847491D01*
X166742531Y-105797196D01*
X166857746Y-105710946D01*
X166943996Y-105595731D01*
X166994291Y-105460883D01*
X167000700Y-105401273D01*
X167000699Y-104815999D01*
X167020383Y-104748961D01*
X167073187Y-104703206D01*
X167124699Y-104692000D01*
X168708948Y-104692000D01*
X168775987Y-104711685D01*
G37*
%TD.AperFunction*%
%TA.AperFunction,NonConductor*%
G36*
X158987603Y-111396139D02*
G01*
X158994079Y-111402169D01*
X160620046Y-113028137D01*
X160653530Y-113089458D01*
X160648546Y-113159150D01*
X160639752Y-113177815D01*
X160620316Y-113211480D01*
X160561935Y-113312600D01*
X160561520Y-113313318D01*
X160561518Y-113313322D01*
X160507802Y-113478644D01*
X160503026Y-113493344D01*
X160483240Y-113681600D01*
X160498799Y-113829641D01*
X160486231Y-113898368D01*
X160438499Y-113949392D01*
X160375479Y-113966600D01*
X158906400Y-113966600D01*
X158839361Y-113946915D01*
X158793606Y-113894111D01*
X158782400Y-113842600D01*
X158782400Y-111489852D01*
X158802085Y-111422813D01*
X158854889Y-111377058D01*
X158924047Y-111367114D01*
X158987603Y-111396139D01*
G37*
%TD.AperFunction*%
%TA.AperFunction,NonConductor*%
G36*
X161455199Y-107896532D02*
G01*
X161502589Y-107947873D01*
X161514699Y-108016685D01*
X161487685Y-108081121D01*
X161479151Y-108090581D01*
X161449887Y-108119844D01*
X161357787Y-108269163D01*
X161357785Y-108269168D01*
X161354856Y-108278007D01*
X161302601Y-108435703D01*
X161302601Y-108435704D01*
X161302600Y-108435704D01*
X161292100Y-108538483D01*
X161292100Y-109438501D01*
X161292101Y-109438519D01*
X161302600Y-109541296D01*
X161302601Y-109541299D01*
X161335821Y-109641549D01*
X161357786Y-109707834D01*
X161449888Y-109857156D01*
X161573944Y-109981212D01*
X161723266Y-110073314D01*
X161889803Y-110128499D01*
X161992591Y-110139000D01*
X163342608Y-110138999D01*
X163445397Y-110128499D01*
X163611934Y-110073314D01*
X163761256Y-109981212D01*
X163885312Y-109857156D01*
X163977414Y-109707834D01*
X163980344Y-109698993D01*
X164020118Y-109641549D01*
X164084635Y-109614728D01*
X164098049Y-109614000D01*
X164932070Y-109614000D01*
X164999109Y-109633685D01*
X165044864Y-109686489D01*
X165054808Y-109755647D01*
X165053925Y-109760801D01*
X165034956Y-109953400D01*
X165053886Y-110145610D01*
X165053887Y-110145612D01*
X165109953Y-110330437D01*
X165201000Y-110500772D01*
X165233345Y-110540185D01*
X165323526Y-110650073D01*
X165405399Y-110717263D01*
X165472828Y-110772600D01*
X165643163Y-110863647D01*
X165827988Y-110919713D01*
X166020200Y-110938644D01*
X166212412Y-110919713D01*
X166397237Y-110863647D01*
X166567572Y-110772600D01*
X166716873Y-110650073D01*
X166839400Y-110500772D01*
X166930447Y-110330437D01*
X166986513Y-110145612D01*
X167005444Y-109953400D01*
X166986513Y-109761188D01*
X166985916Y-109755126D01*
X166987357Y-109754983D01*
X166992940Y-109692600D01*
X167035803Y-109637422D01*
X167101693Y-109614178D01*
X167108330Y-109614000D01*
X167326257Y-109614000D01*
X167341877Y-109615724D01*
X167341904Y-109615439D01*
X167349660Y-109616171D01*
X167349667Y-109616173D01*
X167418814Y-109614000D01*
X167448350Y-109614000D01*
X167455228Y-109613130D01*
X167461041Y-109612672D01*
X167507627Y-109611209D01*
X167526869Y-109605617D01*
X167545912Y-109601674D01*
X167565792Y-109599164D01*
X167609122Y-109582007D01*
X167614646Y-109580117D01*
X167626562Y-109576655D01*
X167659390Y-109567118D01*
X167676629Y-109556922D01*
X167694103Y-109548362D01*
X167712727Y-109540988D01*
X167712727Y-109540987D01*
X167712732Y-109540986D01*
X167750449Y-109513582D01*
X167755305Y-109510392D01*
X167795420Y-109486670D01*
X167809589Y-109472499D01*
X167824379Y-109459868D01*
X167840587Y-109448094D01*
X167870299Y-109412176D01*
X167874212Y-109407876D01*
X168727124Y-108554964D01*
X168788445Y-108521481D01*
X168858137Y-108526465D01*
X168914069Y-108568335D01*
X168953455Y-108620947D01*
X169068664Y-108707193D01*
X169068671Y-108707197D01*
X169200081Y-108756210D01*
X169256015Y-108798081D01*
X169280432Y-108863545D01*
X169265580Y-108931818D01*
X169244430Y-108960073D01*
X169122503Y-109082000D01*
X168986965Y-109275569D01*
X168986964Y-109275571D01*
X168887098Y-109489735D01*
X168887094Y-109489744D01*
X168825938Y-109717986D01*
X168825936Y-109717996D01*
X168805341Y-109953399D01*
X168805341Y-109953400D01*
X168825936Y-110188803D01*
X168825938Y-110188813D01*
X168887094Y-110417055D01*
X168887096Y-110417059D01*
X168887097Y-110417063D01*
X168926133Y-110500775D01*
X168986965Y-110631230D01*
X168986967Y-110631234D01*
X169122501Y-110824795D01*
X169122506Y-110824802D01*
X169289597Y-110991893D01*
X169289603Y-110991898D01*
X169475158Y-111121825D01*
X169518783Y-111176402D01*
X169525977Y-111245900D01*
X169494454Y-111308255D01*
X169475158Y-111324975D01*
X169289597Y-111454905D01*
X169122505Y-111621997D01*
X168986965Y-111815569D01*
X168986964Y-111815571D01*
X168887098Y-112029735D01*
X168887094Y-112029744D01*
X168825938Y-112257986D01*
X168825936Y-112257996D01*
X168805341Y-112493399D01*
X168805341Y-112493400D01*
X168825936Y-112728803D01*
X168825938Y-112728813D01*
X168887094Y-112957055D01*
X168887096Y-112957059D01*
X168887097Y-112957063D01*
X168962730Y-113119258D01*
X168986965Y-113171230D01*
X168986967Y-113171234D01*
X169122501Y-113364795D01*
X169122506Y-113364802D01*
X169289597Y-113531893D01*
X169289603Y-113531898D01*
X169475158Y-113661825D01*
X169518783Y-113716402D01*
X169525977Y-113785900D01*
X169494454Y-113848255D01*
X169475158Y-113864975D01*
X169289597Y-113994905D01*
X169122505Y-114161997D01*
X168986965Y-114355569D01*
X168986964Y-114355571D01*
X168896628Y-114549298D01*
X168850456Y-114601737D01*
X168783262Y-114620889D01*
X168716381Y-114600673D01*
X168696565Y-114584574D01*
X167409803Y-113297812D01*
X167399980Y-113285550D01*
X167399759Y-113285734D01*
X167394786Y-113279723D01*
X167374203Y-113260394D01*
X167344364Y-113232373D01*
X167333919Y-113221928D01*
X167323475Y-113211483D01*
X167317986Y-113207225D01*
X167313561Y-113203447D01*
X167279582Y-113171538D01*
X167279580Y-113171536D01*
X167279577Y-113171535D01*
X167262029Y-113161888D01*
X167245763Y-113151204D01*
X167229933Y-113138925D01*
X167187168Y-113120418D01*
X167181922Y-113117848D01*
X167141093Y-113095403D01*
X167141092Y-113095402D01*
X167121693Y-113090422D01*
X167103281Y-113084118D01*
X167084898Y-113076162D01*
X167084892Y-113076160D01*
X167038874Y-113068872D01*
X167033151Y-113067687D01*
X167003100Y-113059971D01*
X166943062Y-113024234D01*
X166911876Y-112961710D01*
X166919444Y-112892251D01*
X166924571Y-112881429D01*
X166930447Y-112870437D01*
X166986513Y-112685612D01*
X167005444Y-112493400D01*
X166986513Y-112301188D01*
X166930447Y-112116363D01*
X166839400Y-111946028D01*
X166732338Y-111815571D01*
X166716873Y-111796726D01*
X166567574Y-111674202D01*
X166567575Y-111674202D01*
X166567572Y-111674200D01*
X166397237Y-111583153D01*
X166304824Y-111555120D01*
X166212410Y-111527086D01*
X166020200Y-111508156D01*
X165827989Y-111527086D01*
X165643160Y-111583154D01*
X165570488Y-111621999D01*
X165472828Y-111674200D01*
X165472826Y-111674201D01*
X165472825Y-111674202D01*
X165323526Y-111796726D01*
X165201002Y-111946025D01*
X165109954Y-112116360D01*
X165109953Y-112116362D01*
X165109953Y-112116363D01*
X165109797Y-112116878D01*
X165053886Y-112301189D01*
X165034956Y-112493400D01*
X165053886Y-112685610D01*
X165075059Y-112755406D01*
X165108600Y-112865978D01*
X165109955Y-112870442D01*
X165111669Y-112873649D01*
X165112059Y-112875524D01*
X165112285Y-112876069D01*
X165112181Y-112876111D01*
X165125910Y-112942052D01*
X165100909Y-113007295D01*
X165044603Y-113048665D01*
X165002310Y-113056100D01*
X162139194Y-113056100D01*
X162072155Y-113036415D01*
X162026400Y-112983611D01*
X162015255Y-112935993D01*
X162014200Y-112902402D01*
X162014200Y-112872851D01*
X162014200Y-112872850D01*
X162013329Y-112865959D01*
X162012872Y-112860145D01*
X162011409Y-112813573D01*
X162005821Y-112794339D01*
X162001874Y-112775281D01*
X161999364Y-112755408D01*
X161982207Y-112712075D01*
X161980314Y-112706546D01*
X161967318Y-112661814D01*
X161967317Y-112661810D01*
X161957120Y-112644568D01*
X161948563Y-112627102D01*
X161941186Y-112608468D01*
X161913783Y-112570750D01*
X161910600Y-112565905D01*
X161886870Y-112525779D01*
X161886865Y-112525773D01*
X161872705Y-112511613D01*
X161860070Y-112496820D01*
X161848293Y-112480612D01*
X161812393Y-112450913D01*
X161808081Y-112446990D01*
X158353118Y-108992027D01*
X158319633Y-108930704D01*
X158316799Y-108904346D01*
X158316799Y-108014783D01*
X158316642Y-108011695D01*
X158332898Y-107943743D01*
X158383311Y-107895366D01*
X158440482Y-107881400D01*
X161217457Y-107881400D01*
X161233077Y-107883124D01*
X161233104Y-107882839D01*
X161240860Y-107883571D01*
X161240867Y-107883573D01*
X161310014Y-107881400D01*
X161339550Y-107881400D01*
X161346428Y-107880530D01*
X161352239Y-107880072D01*
X161387575Y-107878962D01*
X161455199Y-107896532D01*
G37*
%TD.AperFunction*%
%TA.AperFunction,NonConductor*%
G36*
X167193934Y-114853639D02*
G01*
X167209989Y-114867179D01*
X167367450Y-115024640D01*
X167400935Y-115085963D01*
X167395951Y-115155655D01*
X167354079Y-115211588D01*
X167291440Y-115235770D01*
X167254156Y-115239295D01*
X167249614Y-115239725D01*
X167243779Y-115240000D01*
X167121909Y-115240000D01*
X167054870Y-115220315D01*
X167009115Y-115167511D01*
X166998506Y-115103846D01*
X167000267Y-115085963D01*
X167005444Y-115033400D01*
X166998905Y-114967012D01*
X167011923Y-114898369D01*
X167059988Y-114847658D01*
X167127839Y-114830983D01*
X167193934Y-114853639D01*
G37*
%TD.AperFunction*%
%TA.AperFunction,NonConductor*%
G36*
X161160430Y-116371285D02*
G01*
X161206185Y-116424089D01*
X161216129Y-116493247D01*
X161198931Y-116540693D01*
X161195653Y-116546009D01*
X161158487Y-116606263D01*
X161158485Y-116606268D01*
X161138734Y-116665873D01*
X161103301Y-116772803D01*
X161103301Y-116772804D01*
X161103300Y-116772804D01*
X161092800Y-116875583D01*
X161092800Y-117802646D01*
X161073115Y-117869685D01*
X161056481Y-117890327D01*
X160836628Y-118110181D01*
X160775305Y-118143666D01*
X160748947Y-118146500D01*
X158483351Y-118146500D01*
X158416312Y-118126815D01*
X158370557Y-118074011D01*
X158360613Y-118004853D01*
X158389638Y-117941297D01*
X158395670Y-117934819D01*
X158516582Y-117813908D01*
X158940672Y-117389819D01*
X159001995Y-117356334D01*
X159028353Y-117353500D01*
X159087544Y-117353500D01*
X159087546Y-117353500D01*
X159272703Y-117314144D01*
X159445630Y-117237151D01*
X159598771Y-117125888D01*
X159725433Y-116985216D01*
X159820079Y-116821284D01*
X159878574Y-116641256D01*
X159897347Y-116462637D01*
X159923932Y-116398024D01*
X159981229Y-116358039D01*
X160020668Y-116351600D01*
X161093391Y-116351600D01*
X161160430Y-116371285D01*
G37*
%TD.AperFunction*%
%TA.AperFunction,NonConductor*%
G36*
X155959156Y-107901085D02*
G01*
X156004911Y-107953889D01*
X156015957Y-108011697D01*
X156015800Y-108014784D01*
X156015800Y-109364801D01*
X156015801Y-109364818D01*
X156026300Y-109467596D01*
X156026301Y-109467599D01*
X156081485Y-109634131D01*
X156081487Y-109634136D01*
X156113779Y-109686489D01*
X156173588Y-109783456D01*
X156297644Y-109907512D01*
X156344229Y-109936246D01*
X156390952Y-109988192D01*
X156402452Y-110054743D01*
X156389740Y-110175699D01*
X156402452Y-110296654D01*
X156389882Y-110365384D01*
X156344230Y-110415153D01*
X156297642Y-110443889D01*
X156173589Y-110567942D01*
X156081487Y-110717263D01*
X156081486Y-110717266D01*
X156026301Y-110883803D01*
X156026301Y-110883804D01*
X156026300Y-110883804D01*
X156015800Y-110986583D01*
X156015800Y-111876146D01*
X155996115Y-111943185D01*
X155979485Y-111963822D01*
X155890937Y-112052371D01*
X155836108Y-112107200D01*
X155823851Y-112117020D01*
X155824034Y-112117241D01*
X155818023Y-112122213D01*
X155770672Y-112172636D01*
X155749789Y-112193519D01*
X155749777Y-112193532D01*
X155745521Y-112199017D01*
X155741737Y-112203447D01*
X155709837Y-112237418D01*
X155709836Y-112237420D01*
X155700184Y-112254976D01*
X155689510Y-112271226D01*
X155677229Y-112287061D01*
X155677224Y-112287068D01*
X155658715Y-112329838D01*
X155656145Y-112335084D01*
X155633703Y-112375906D01*
X155628722Y-112395307D01*
X155622421Y-112413710D01*
X155614462Y-112432102D01*
X155614461Y-112432105D01*
X155607171Y-112478127D01*
X155605987Y-112483846D01*
X155594401Y-112528972D01*
X155594400Y-112528982D01*
X155594400Y-112549016D01*
X155592873Y-112568415D01*
X155589740Y-112588194D01*
X155589740Y-112588195D01*
X155594125Y-112634583D01*
X155594400Y-112640421D01*
X155594400Y-115378855D01*
X155592675Y-115394472D01*
X155592961Y-115394499D01*
X155592226Y-115402265D01*
X155594400Y-115471414D01*
X155594400Y-115500943D01*
X155594401Y-115500960D01*
X155595268Y-115507831D01*
X155595726Y-115513650D01*
X155597190Y-115560224D01*
X155597191Y-115560227D01*
X155602780Y-115579467D01*
X155606724Y-115598511D01*
X155609236Y-115618391D01*
X155626390Y-115661719D01*
X155628282Y-115667247D01*
X155641281Y-115711988D01*
X155651480Y-115729234D01*
X155660038Y-115746703D01*
X155667414Y-115765332D01*
X155694798Y-115803023D01*
X155698006Y-115807907D01*
X155721727Y-115848016D01*
X155721733Y-115848024D01*
X155735890Y-115862180D01*
X155748527Y-115876975D01*
X155760306Y-115893187D01*
X155796208Y-115922888D01*
X155800530Y-115926821D01*
X156069594Y-116195884D01*
X156079421Y-116208149D01*
X156079642Y-116207967D01*
X156084615Y-116213979D01*
X156135035Y-116261325D01*
X156155928Y-116282219D01*
X156158371Y-116284373D01*
X156195636Y-116343475D01*
X156195033Y-116413342D01*
X156176954Y-116447935D01*
X156177380Y-116448198D01*
X156173698Y-116454166D01*
X156173644Y-116454271D01*
X156173599Y-116454327D01*
X156173589Y-116454342D01*
X156173588Y-116454344D01*
X156161893Y-116473305D01*
X156081487Y-116603663D01*
X156081485Y-116603668D01*
X156061658Y-116663503D01*
X156026301Y-116770203D01*
X156026301Y-116770204D01*
X156026300Y-116770204D01*
X156015800Y-116872983D01*
X156015800Y-116872996D01*
X156015801Y-118022500D01*
X155996116Y-118089539D01*
X155943313Y-118135294D01*
X155891801Y-118146500D01*
X155600753Y-118146500D01*
X155533714Y-118126815D01*
X155513072Y-118110181D01*
X155253118Y-117850227D01*
X155219633Y-117788904D01*
X155216799Y-117762546D01*
X155216799Y-116872998D01*
X155216798Y-116872981D01*
X155206299Y-116770203D01*
X155206298Y-116770200D01*
X155190390Y-116722194D01*
X155151114Y-116603666D01*
X155059012Y-116454344D01*
X154934956Y-116330288D01*
X154785634Y-116238186D01*
X154785633Y-116238185D01*
X154785632Y-116238185D01*
X154776793Y-116235256D01*
X154719349Y-116195482D01*
X154692528Y-116130965D01*
X154691800Y-116117551D01*
X154691800Y-116036233D01*
X154711485Y-115969194D01*
X154764289Y-115923439D01*
X154776784Y-115918531D01*
X154826934Y-115901914D01*
X154976256Y-115809812D01*
X155100312Y-115685756D01*
X155192414Y-115536434D01*
X155247599Y-115369897D01*
X155258100Y-115267109D01*
X155258099Y-113917092D01*
X155255751Y-113894111D01*
X155247599Y-113814303D01*
X155247598Y-113814300D01*
X155235397Y-113777481D01*
X155192414Y-113647766D01*
X155100312Y-113498444D01*
X154976256Y-113374388D01*
X154826934Y-113282286D01*
X154826933Y-113282285D01*
X154826932Y-113282285D01*
X154818093Y-113279356D01*
X154760649Y-113239582D01*
X154733828Y-113175065D01*
X154733100Y-113161651D01*
X154733100Y-113073024D01*
X154752785Y-113005985D01*
X154792004Y-112967485D01*
X154822761Y-112948514D01*
X154934956Y-112879312D01*
X155059012Y-112755256D01*
X155151114Y-112605934D01*
X155206299Y-112439397D01*
X155216800Y-112336609D01*
X155216799Y-110986592D01*
X155206299Y-110883803D01*
X155151114Y-110717266D01*
X155059012Y-110567944D01*
X154934956Y-110443888D01*
X154785634Y-110351786D01*
X154785633Y-110351785D01*
X154785632Y-110351785D01*
X154776793Y-110348856D01*
X154719349Y-110309082D01*
X154692528Y-110244565D01*
X154691800Y-110231151D01*
X154691800Y-110120248D01*
X154711485Y-110053209D01*
X154764289Y-110007454D01*
X154776788Y-110002544D01*
X154785634Y-109999614D01*
X154934956Y-109907512D01*
X155059012Y-109783456D01*
X155151114Y-109634134D01*
X155206299Y-109467597D01*
X155216800Y-109364809D01*
X155216799Y-108475252D01*
X155236483Y-108408214D01*
X155253118Y-108387572D01*
X155722972Y-107917719D01*
X155784295Y-107884234D01*
X155810653Y-107881400D01*
X155892117Y-107881400D01*
X155959156Y-107901085D01*
G37*
%TD.AperFunction*%
%TA.AperFunction,NonConductor*%
G36*
X154572884Y-118943184D02*
G01*
X154593526Y-118959818D01*
X154600577Y-118966869D01*
X154634062Y-119028192D01*
X154629078Y-119097884D01*
X154600577Y-119142231D01*
X154517327Y-119225481D01*
X154456004Y-119258966D01*
X154429646Y-119261800D01*
X153739100Y-119261800D01*
X153672061Y-119242115D01*
X153626306Y-119189311D01*
X153615100Y-119137800D01*
X153615100Y-119047499D01*
X153634785Y-118980460D01*
X153687589Y-118934705D01*
X153739096Y-118923499D01*
X154505845Y-118923499D01*
X154572884Y-118943184D01*
G37*
%TD.AperFunction*%
%TA.AperFunction,NonConductor*%
G36*
X164447687Y-116371285D02*
G01*
X164468329Y-116387919D01*
X165103031Y-117022621D01*
X165136516Y-117083944D01*
X165131532Y-117153636D01*
X165124711Y-117168751D01*
X165109953Y-117196363D01*
X165053886Y-117381189D01*
X165034956Y-117573400D01*
X165053886Y-117765610D01*
X165064503Y-117800608D01*
X165109953Y-117950437D01*
X165201000Y-118120772D01*
X165268909Y-118203520D01*
X165323527Y-118270073D01*
X165351040Y-118292653D01*
X165390374Y-118350399D01*
X165396314Y-118384608D01*
X165397490Y-118422024D01*
X165397491Y-118422027D01*
X165403080Y-118441267D01*
X165407024Y-118460311D01*
X165409536Y-118480192D01*
X165426690Y-118523519D01*
X165428582Y-118529047D01*
X165441581Y-118573788D01*
X165451780Y-118591034D01*
X165460336Y-118608500D01*
X165466196Y-118623297D01*
X165467714Y-118627132D01*
X165495098Y-118664823D01*
X165498306Y-118669707D01*
X165522027Y-118709816D01*
X165522033Y-118709824D01*
X165536190Y-118723980D01*
X165548828Y-118738776D01*
X165560605Y-118754986D01*
X165560606Y-118754987D01*
X165596509Y-118784688D01*
X165600820Y-118788610D01*
X165702458Y-118890248D01*
X165782448Y-118970238D01*
X165815933Y-119031561D01*
X165810949Y-119101253D01*
X165769077Y-119157186D01*
X165730763Y-119176579D01*
X165643163Y-119203152D01*
X165538745Y-119258966D01*
X165472828Y-119294200D01*
X165472826Y-119294201D01*
X165472825Y-119294202D01*
X165323526Y-119416726D01*
X165200995Y-119566032D01*
X165200713Y-119566456D01*
X165200507Y-119566627D01*
X165197136Y-119570736D01*
X165196356Y-119570096D01*
X165147099Y-119611259D01*
X165077773Y-119619963D01*
X165014747Y-119589806D01*
X165009933Y-119585242D01*
X164494903Y-119070212D01*
X164485080Y-119057950D01*
X164484859Y-119058134D01*
X164479886Y-119052123D01*
X164454402Y-119028192D01*
X164429464Y-119004773D01*
X164419019Y-118994328D01*
X164408575Y-118983883D01*
X164403086Y-118979625D01*
X164398661Y-118975847D01*
X164364682Y-118943938D01*
X164364680Y-118943936D01*
X164364677Y-118943935D01*
X164347129Y-118934288D01*
X164330863Y-118923604D01*
X164330572Y-118923378D01*
X164315036Y-118911327D01*
X164315035Y-118911326D01*
X164315033Y-118911325D01*
X164272268Y-118892818D01*
X164267022Y-118890248D01*
X164226193Y-118867803D01*
X164226192Y-118867802D01*
X164206793Y-118862822D01*
X164188381Y-118856518D01*
X164169998Y-118848562D01*
X164169992Y-118848560D01*
X164123974Y-118841272D01*
X164118252Y-118840087D01*
X164073121Y-118828500D01*
X164073119Y-118828500D01*
X164053084Y-118828500D01*
X164033686Y-118826973D01*
X164026262Y-118825797D01*
X164013905Y-118823840D01*
X164013904Y-118823840D01*
X163967516Y-118828225D01*
X163961678Y-118828500D01*
X162186851Y-118828500D01*
X162119812Y-118808815D01*
X162074057Y-118756011D01*
X162064113Y-118686853D01*
X162093138Y-118623297D01*
X162099170Y-118616819D01*
X162178571Y-118537418D01*
X162239894Y-118503933D01*
X162266252Y-118501099D01*
X163193302Y-118501099D01*
X163193308Y-118501099D01*
X163296097Y-118490599D01*
X163462634Y-118435414D01*
X163611956Y-118343312D01*
X163736012Y-118219256D01*
X163828114Y-118069934D01*
X163883299Y-117903397D01*
X163893800Y-117800609D01*
X163893799Y-116875592D01*
X163893533Y-116872992D01*
X163883299Y-116772803D01*
X163883298Y-116772800D01*
X163877135Y-116754202D01*
X163828114Y-116606266D01*
X163787669Y-116540694D01*
X163769230Y-116473305D01*
X163790152Y-116406641D01*
X163843794Y-116361871D01*
X163893209Y-116351600D01*
X164380648Y-116351600D01*
X164447687Y-116371285D01*
G37*
%TD.AperFunction*%
%TA.AperFunction,NonConductor*%
G36*
X160067287Y-119417185D02*
G01*
X160113042Y-119469989D01*
X160122986Y-119539147D01*
X160093961Y-119602703D01*
X160087929Y-119609181D01*
X158452280Y-121244828D01*
X158390957Y-121278313D01*
X158321265Y-121273329D01*
X158265332Y-121231457D01*
X158240915Y-121165993D01*
X158240599Y-121157170D01*
X158240599Y-120528099D01*
X158260284Y-120461061D01*
X158313088Y-120415306D01*
X158364599Y-120404100D01*
X158469644Y-120404100D01*
X158469646Y-120404100D01*
X158654803Y-120364744D01*
X158827730Y-120287751D01*
X158980871Y-120176488D01*
X159107533Y-120035816D01*
X159202179Y-119871884D01*
X159260674Y-119691856D01*
X159279941Y-119508537D01*
X159306526Y-119443924D01*
X159363823Y-119403939D01*
X159403262Y-119397500D01*
X160000248Y-119397500D01*
X160067287Y-119417185D01*
G37*
%TD.AperFunction*%
%TA.AperFunction,NonConductor*%
G36*
X167128195Y-120326502D02*
G01*
X167163361Y-120351151D01*
X168322281Y-121510071D01*
X168355766Y-121571394D01*
X168358600Y-121597752D01*
X168358600Y-123108655D01*
X168356875Y-123124272D01*
X168357161Y-123124299D01*
X168356426Y-123132065D01*
X168358600Y-123201214D01*
X168358600Y-123230743D01*
X168358601Y-123230760D01*
X168359468Y-123237631D01*
X168359926Y-123243450D01*
X168361390Y-123290024D01*
X168361391Y-123290027D01*
X168366980Y-123309267D01*
X168370924Y-123328311D01*
X168373436Y-123348192D01*
X168382384Y-123370793D01*
X168388759Y-123440371D01*
X168356506Y-123502351D01*
X168295864Y-123537054D01*
X168226086Y-123533462D01*
X168179410Y-123504119D01*
X167498419Y-122823128D01*
X167464934Y-122761805D01*
X167462100Y-122735447D01*
X167462100Y-122379238D01*
X167463824Y-122363624D01*
X167463538Y-122363597D01*
X167464272Y-122355834D01*
X167462100Y-122286703D01*
X167462100Y-122257151D01*
X167462100Y-122257150D01*
X167461229Y-122250259D01*
X167460772Y-122244445D01*
X167459764Y-122212371D01*
X167459309Y-122197873D01*
X167456944Y-122189735D01*
X167453722Y-122178644D01*
X167449774Y-122159584D01*
X167447264Y-122139708D01*
X167447263Y-122139706D01*
X167447263Y-122139704D01*
X167430112Y-122096387D01*
X167428219Y-122090858D01*
X167415218Y-122046109D01*
X167415216Y-122046106D01*
X167405023Y-122028871D01*
X167396461Y-122011394D01*
X167389087Y-121992770D01*
X167389086Y-121992768D01*
X167361679Y-121955045D01*
X167358488Y-121950186D01*
X167356671Y-121947114D01*
X167334770Y-121910080D01*
X167334768Y-121910078D01*
X167334765Y-121910074D01*
X167320606Y-121895915D01*
X167307968Y-121881119D01*
X167296194Y-121864913D01*
X167291298Y-121860863D01*
X167260288Y-121835209D01*
X167255976Y-121831286D01*
X166548357Y-121123667D01*
X166514872Y-121062344D01*
X166519856Y-120992652D01*
X166561728Y-120936719D01*
X166567143Y-120932887D01*
X166567566Y-120932603D01*
X166567565Y-120932603D01*
X166567572Y-120932600D01*
X166716873Y-120810073D01*
X166839400Y-120660772D01*
X166930447Y-120490437D01*
X166957021Y-120402833D01*
X166995316Y-120344399D01*
X167059128Y-120315942D01*
X167128195Y-120326502D01*
G37*
%TD.AperFunction*%
%TA.AperFunction,NonConductor*%
G36*
X161012134Y-120556668D02*
G01*
X161068067Y-120598540D01*
X161092484Y-120664004D01*
X161092800Y-120672850D01*
X161092800Y-120927645D01*
X161073115Y-120994684D01*
X161056481Y-121015326D01*
X158452280Y-123619528D01*
X158390957Y-123653013D01*
X158321265Y-123648029D01*
X158265332Y-123606157D01*
X158240915Y-123540693D01*
X158240599Y-123531847D01*
X158240599Y-123277052D01*
X158260284Y-123210013D01*
X158276918Y-123189371D01*
X159577274Y-121889015D01*
X160881121Y-120585167D01*
X160942442Y-120551684D01*
X161012134Y-120556668D01*
G37*
%TD.AperFunction*%
%TA.AperFunction,NonConductor*%
G36*
X155864819Y-119744931D02*
G01*
X155922040Y-119785024D01*
X155948502Y-119849689D01*
X155948515Y-119875019D01*
X155939600Y-119962281D01*
X155939600Y-121312301D01*
X155939601Y-121312318D01*
X155950100Y-121415096D01*
X155950101Y-121415099D01*
X156005285Y-121581631D01*
X156005287Y-121581636D01*
X156026235Y-121615598D01*
X156097388Y-121730956D01*
X156221444Y-121855012D01*
X156370766Y-121947114D01*
X156370770Y-121947115D01*
X156377309Y-121950164D01*
X156376644Y-121951589D01*
X156427086Y-121986505D01*
X156453916Y-122051018D01*
X156441609Y-122119795D01*
X156394072Y-122171000D01*
X156377279Y-122178672D01*
X156377309Y-122178736D01*
X156370763Y-122181787D01*
X156221442Y-122273889D01*
X156097389Y-122397942D01*
X156005287Y-122547263D01*
X156005285Y-122547268D01*
X155977886Y-122629955D01*
X155950101Y-122713803D01*
X155950101Y-122713804D01*
X155950100Y-122713804D01*
X155939600Y-122816583D01*
X155939600Y-122816591D01*
X155939600Y-123441790D01*
X155939601Y-123947700D01*
X155919916Y-124014739D01*
X155867113Y-124060494D01*
X155815601Y-124071700D01*
X155506152Y-124071700D01*
X155439113Y-124052015D01*
X155418471Y-124035381D01*
X155176918Y-123793828D01*
X155143433Y-123732505D01*
X155140599Y-123706147D01*
X155140599Y-122816598D01*
X155140598Y-122816581D01*
X155130099Y-122713803D01*
X155130098Y-122713800D01*
X155102315Y-122629957D01*
X155074914Y-122547266D01*
X154982812Y-122397944D01*
X154858756Y-122273888D01*
X154765988Y-122216669D01*
X154709436Y-122181787D01*
X154702891Y-122178736D01*
X154703554Y-122177312D01*
X154653105Y-122142384D01*
X154626281Y-122077869D01*
X154638596Y-122009093D01*
X154686138Y-121957892D01*
X154702920Y-121950227D01*
X154702891Y-121950164D01*
X154709426Y-121947116D01*
X154709434Y-121947114D01*
X154858756Y-121855012D01*
X154982812Y-121730956D01*
X155074914Y-121581634D01*
X155130099Y-121415097D01*
X155140600Y-121312309D01*
X155140599Y-120422751D01*
X155160283Y-120355713D01*
X155176913Y-120335076D01*
X155674088Y-119837901D01*
X155686342Y-119828086D01*
X155686159Y-119827864D01*
X155692167Y-119822892D01*
X155692177Y-119822886D01*
X155734766Y-119777532D01*
X155795005Y-119742139D01*
X155864819Y-119744931D01*
G37*
%TD.AperFunction*%
%TA.AperFunction,NonConductor*%
G36*
X166902889Y-123999521D02*
G01*
X166919704Y-124013594D01*
X168483294Y-125577184D01*
X168493119Y-125589448D01*
X168493340Y-125589266D01*
X168498310Y-125595273D01*
X168528376Y-125623507D01*
X168563771Y-125683748D01*
X168560979Y-125753562D01*
X168520886Y-125810783D01*
X168456221Y-125837245D01*
X168443493Y-125837900D01*
X166994366Y-125837900D01*
X166927327Y-125818215D01*
X166881572Y-125765411D01*
X166871628Y-125696253D01*
X166885008Y-125655446D01*
X166890156Y-125645815D01*
X166930447Y-125570437D01*
X166986513Y-125385612D01*
X167005444Y-125193400D01*
X166986513Y-125001188D01*
X166930447Y-124816363D01*
X166839400Y-124646028D01*
X166736434Y-124520562D01*
X166716873Y-124496726D01*
X166574159Y-124379606D01*
X166567572Y-124374200D01*
X166495049Y-124335435D01*
X166445206Y-124286473D01*
X166429746Y-124218335D01*
X166453578Y-124152656D01*
X166509136Y-124110287D01*
X166537964Y-124103055D01*
X166548192Y-124101764D01*
X166591522Y-124084607D01*
X166597046Y-124082717D01*
X166600796Y-124081627D01*
X166641790Y-124069718D01*
X166659029Y-124059522D01*
X166676503Y-124050962D01*
X166695128Y-124043588D01*
X166695129Y-124043587D01*
X166695132Y-124043586D01*
X166732834Y-124016192D01*
X166737700Y-124012995D01*
X166768906Y-123994540D01*
X166836627Y-123977360D01*
X166902889Y-123999521D01*
G37*
%TD.AperFunction*%
%TA.AperFunction,NonConductor*%
G36*
X165526767Y-124136285D02*
G01*
X165572522Y-124189089D01*
X165582466Y-124258247D01*
X165553441Y-124321803D01*
X165518183Y-124349956D01*
X165472828Y-124374200D01*
X165472826Y-124374201D01*
X165472825Y-124374202D01*
X165323526Y-124496726D01*
X165201002Y-124646025D01*
X165201000Y-124646028D01*
X165185192Y-124675603D01*
X165109954Y-124816360D01*
X165109953Y-124816362D01*
X165109953Y-124816363D01*
X165106692Y-124827114D01*
X165053886Y-125001189D01*
X165034956Y-125193400D01*
X165053886Y-125385610D01*
X165053887Y-125385612D01*
X165109953Y-125570437D01*
X165148689Y-125642907D01*
X165155392Y-125655446D01*
X165169634Y-125723849D01*
X165144634Y-125789093D01*
X165088330Y-125830464D01*
X165046034Y-125837900D01*
X164789653Y-125837900D01*
X164722614Y-125818215D01*
X164701972Y-125801581D01*
X163365111Y-124464720D01*
X163331626Y-124403397D01*
X163336610Y-124333705D01*
X163378482Y-124277772D01*
X163379907Y-124276721D01*
X163405426Y-124258180D01*
X163535071Y-124163988D01*
X163537988Y-124160747D01*
X163540800Y-124157626D01*
X163600287Y-124120979D01*
X163632948Y-124116600D01*
X165459728Y-124116600D01*
X165526767Y-124136285D01*
G37*
%TD.AperFunction*%
%TA.AperFunction,NonConductor*%
G36*
X168509006Y-127108585D02*
G01*
X168554761Y-127161389D01*
X168564705Y-127230547D01*
X168537507Y-127291944D01*
X168522808Y-127309711D01*
X168518877Y-127314032D01*
X167477228Y-128355681D01*
X167415905Y-128389166D01*
X167389547Y-128392000D01*
X166986829Y-128392000D01*
X166919790Y-128372315D01*
X166874035Y-128319511D01*
X166864091Y-128250353D01*
X166877470Y-128209548D01*
X166930447Y-128110437D01*
X166986513Y-127925612D01*
X167005444Y-127733400D01*
X166986513Y-127541188D01*
X166930447Y-127356363D01*
X166885007Y-127271353D01*
X166870766Y-127202951D01*
X166895766Y-127137707D01*
X166952070Y-127096336D01*
X166994366Y-127088900D01*
X168441967Y-127088900D01*
X168509006Y-127108585D01*
G37*
%TD.AperFunction*%
%TA.AperFunction,NonConductor*%
G36*
X164099001Y-120443938D02*
G01*
X164105480Y-120449970D01*
X165385358Y-121729848D01*
X165418843Y-121791171D01*
X165413859Y-121860863D01*
X165376342Y-121913382D01*
X165323527Y-121956726D01*
X165211148Y-122093662D01*
X165201000Y-122106028D01*
X165181567Y-122142384D01*
X165109954Y-122276360D01*
X165109953Y-122276362D01*
X165109953Y-122276363D01*
X165106816Y-122286703D01*
X165053886Y-122461189D01*
X165034956Y-122653399D01*
X165042446Y-122729446D01*
X165029427Y-122798092D01*
X164981362Y-122848802D01*
X164919043Y-122865600D01*
X163632948Y-122865600D01*
X163565909Y-122845915D01*
X163540800Y-122824574D01*
X163535073Y-122818214D01*
X163535069Y-122818210D01*
X163381934Y-122706951D01*
X163381929Y-122706948D01*
X163209007Y-122629957D01*
X163209002Y-122629955D01*
X163063201Y-122598965D01*
X163023846Y-122590600D01*
X162834554Y-122590600D01*
X162802097Y-122597498D01*
X162649397Y-122629955D01*
X162649392Y-122629957D01*
X162476470Y-122706948D01*
X162476465Y-122706951D01*
X162323329Y-122818211D01*
X162196666Y-122958885D01*
X162102021Y-123122815D01*
X162102018Y-123122822D01*
X162043526Y-123302842D01*
X162043525Y-123302846D01*
X162040763Y-123329125D01*
X162014178Y-123393739D01*
X161967879Y-123429440D01*
X161835570Y-123488348D01*
X161835565Y-123488351D01*
X161682429Y-123599611D01*
X161555766Y-123740285D01*
X161461121Y-123904215D01*
X161461118Y-123904222D01*
X161403122Y-124082717D01*
X161402626Y-124084244D01*
X161382840Y-124272500D01*
X161402626Y-124460756D01*
X161402627Y-124460759D01*
X161461118Y-124640777D01*
X161461121Y-124640784D01*
X161555767Y-124804716D01*
X161655902Y-124915927D01*
X161682429Y-124945388D01*
X161835565Y-125056648D01*
X161835570Y-125056651D01*
X162008492Y-125133642D01*
X162008497Y-125133644D01*
X162193654Y-125173000D01*
X162252848Y-125173000D01*
X162319887Y-125192685D01*
X162340528Y-125209318D01*
X163174191Y-126042982D01*
X163978397Y-126847188D01*
X163988222Y-126859451D01*
X163988443Y-126859269D01*
X163993414Y-126865278D01*
X164008875Y-126879796D01*
X164043835Y-126912626D01*
X164064729Y-126933520D01*
X164070211Y-126937773D01*
X164074643Y-126941557D01*
X164108618Y-126973462D01*
X164126176Y-126983114D01*
X164142435Y-126993795D01*
X164158264Y-127006073D01*
X164201038Y-127024582D01*
X164206256Y-127027138D01*
X164247108Y-127049597D01*
X164266516Y-127054580D01*
X164284917Y-127060880D01*
X164303304Y-127068837D01*
X164346688Y-127075708D01*
X164349319Y-127076125D01*
X164355039Y-127077309D01*
X164400181Y-127088900D01*
X164420216Y-127088900D01*
X164439615Y-127090427D01*
X164459396Y-127093560D01*
X164499634Y-127089756D01*
X164505782Y-127089175D01*
X164511620Y-127088900D01*
X165046034Y-127088900D01*
X165113073Y-127108585D01*
X165158828Y-127161389D01*
X165168772Y-127230547D01*
X165155392Y-127271354D01*
X165109954Y-127356360D01*
X165053886Y-127541189D01*
X165034956Y-127733400D01*
X165053886Y-127925610D01*
X165053887Y-127925612D01*
X165109953Y-128110437D01*
X165162929Y-128209547D01*
X165177171Y-128277948D01*
X165152172Y-128343193D01*
X165095867Y-128384564D01*
X165053571Y-128392000D01*
X163364438Y-128392000D01*
X163348821Y-128390276D01*
X163348794Y-128390562D01*
X163341032Y-128389827D01*
X163271904Y-128392000D01*
X163242350Y-128392000D01*
X163241629Y-128392090D01*
X163235457Y-128392869D01*
X163229645Y-128393326D01*
X163183073Y-128394790D01*
X163183072Y-128394790D01*
X163163829Y-128400381D01*
X163144779Y-128404325D01*
X163124911Y-128406834D01*
X163124909Y-128406835D01*
X163081584Y-128423988D01*
X163076057Y-128425880D01*
X163031310Y-128438881D01*
X163031309Y-128438882D01*
X163014067Y-128449079D01*
X162996599Y-128457637D01*
X162977969Y-128465013D01*
X162977967Y-128465014D01*
X162940276Y-128492398D01*
X162935394Y-128495605D01*
X162895279Y-128519330D01*
X162881108Y-128533500D01*
X162866323Y-128546128D01*
X162850112Y-128557907D01*
X162820409Y-128593810D01*
X162816477Y-128598131D01*
X162158228Y-129256381D01*
X162096905Y-129289866D01*
X162070547Y-129292700D01*
X161955499Y-129292700D01*
X161888460Y-129273015D01*
X161842705Y-129220211D01*
X161831499Y-129168700D01*
X161831499Y-129062229D01*
X161831498Y-129062223D01*
X161831497Y-129062216D01*
X161825091Y-129002617D01*
X161789590Y-128907435D01*
X161774797Y-128867771D01*
X161774793Y-128867764D01*
X161688547Y-128752555D01*
X161641261Y-128717156D01*
X161599391Y-128661222D01*
X161592550Y-128633424D01*
X161591664Y-128626408D01*
X161574504Y-128583067D01*
X161572624Y-128577579D01*
X161559618Y-128532810D01*
X161549422Y-128515570D01*
X161540861Y-128498094D01*
X161533487Y-128479470D01*
X161533482Y-128479463D01*
X161506079Y-128441745D01*
X161502888Y-128436886D01*
X161499664Y-128431435D01*
X161485117Y-128406836D01*
X161479172Y-128396783D01*
X161479165Y-128396774D01*
X161465006Y-128382615D01*
X161452368Y-128367819D01*
X161440594Y-128351613D01*
X161440590Y-128351610D01*
X161404688Y-128321909D01*
X161400376Y-128317986D01*
X159395619Y-126313228D01*
X159362134Y-126251905D01*
X159359300Y-126225547D01*
X159359300Y-124768044D01*
X159361497Y-124744806D01*
X159363027Y-124736788D01*
X159359421Y-124679475D01*
X159359300Y-124675603D01*
X159359300Y-124533052D01*
X159378985Y-124466013D01*
X159395619Y-124445371D01*
X162178572Y-121662418D01*
X162239895Y-121628933D01*
X162266253Y-121626099D01*
X163193302Y-121626099D01*
X163193308Y-121626099D01*
X163296097Y-121615599D01*
X163462634Y-121560414D01*
X163611956Y-121468312D01*
X163736012Y-121344256D01*
X163828114Y-121194934D01*
X163883299Y-121028397D01*
X163893800Y-120925609D01*
X163893799Y-120537649D01*
X163913483Y-120470612D01*
X163966287Y-120424857D01*
X164035446Y-120414913D01*
X164099001Y-120443938D01*
G37*
%TD.AperFunction*%
%TA.AperFunction,NonConductor*%
G36*
X161352194Y-131130284D02*
G01*
X161397949Y-131183088D01*
X161401337Y-131191267D01*
X161437201Y-131287426D01*
X161437206Y-131287435D01*
X161523452Y-131402644D01*
X161523455Y-131402647D01*
X161638664Y-131488893D01*
X161638673Y-131488898D01*
X161652132Y-131493918D01*
X161708066Y-131535788D01*
X161732484Y-131601253D01*
X161717633Y-131669526D01*
X161668228Y-131718932D01*
X161652141Y-131726279D01*
X161638669Y-131731304D01*
X161638664Y-131731306D01*
X161523455Y-131817552D01*
X161441332Y-131927254D01*
X161387711Y-131968235D01*
X161353985Y-131981587D01*
X161348459Y-131983480D01*
X161303711Y-131996481D01*
X161296888Y-132000515D01*
X161287387Y-132006134D01*
X161224271Y-132023400D01*
X161008589Y-132023400D01*
X160941550Y-132003715D01*
X160895795Y-131950911D01*
X160885851Y-131881753D01*
X160889472Y-131867725D01*
X160888995Y-131867608D01*
X160931500Y-131695155D01*
X160931500Y-131525044D01*
X160890790Y-131359876D01*
X160890790Y-131359875D01*
X160855283Y-131292224D01*
X160841559Y-131223716D01*
X160867052Y-131158663D01*
X160923667Y-131117719D01*
X160965081Y-131110599D01*
X161285155Y-131110599D01*
X161352194Y-131130284D01*
G37*
%TD.AperFunction*%
%TA.AperFunction,NonConductor*%
G36*
X158051339Y-125342385D02*
G01*
X158097094Y-125395189D01*
X158108300Y-125446700D01*
X158108300Y-126453255D01*
X158106575Y-126468872D01*
X158106861Y-126468899D01*
X158106126Y-126476665D01*
X158108300Y-126545814D01*
X158108300Y-126575343D01*
X158108301Y-126575360D01*
X158109168Y-126582231D01*
X158109626Y-126588050D01*
X158111090Y-126634624D01*
X158111091Y-126634627D01*
X158116680Y-126653867D01*
X158120624Y-126672911D01*
X158123136Y-126692791D01*
X158140290Y-126736119D01*
X158142182Y-126741647D01*
X158149573Y-126767087D01*
X158155182Y-126786390D01*
X158161070Y-126796347D01*
X158165380Y-126803634D01*
X158173936Y-126821100D01*
X158174750Y-126823154D01*
X158181314Y-126839732D01*
X158208698Y-126877423D01*
X158211906Y-126882307D01*
X158235627Y-126922416D01*
X158235633Y-126922424D01*
X158249790Y-126936580D01*
X158262428Y-126951376D01*
X158274205Y-126967586D01*
X158274206Y-126967587D01*
X158310109Y-126997288D01*
X158314420Y-127001210D01*
X159238820Y-127925610D01*
X160129163Y-128815953D01*
X160162648Y-128877276D01*
X160157664Y-128946966D01*
X160136909Y-129002614D01*
X160136908Y-129002616D01*
X160130501Y-129062216D01*
X160130501Y-129062223D01*
X160130500Y-129062235D01*
X160130500Y-130657970D01*
X160130501Y-130657976D01*
X160136909Y-130717585D01*
X160152804Y-130760203D01*
X160157788Y-130829895D01*
X160124302Y-130891218D01*
X160066303Y-130923930D01*
X160062133Y-130924957D01*
X159903068Y-130985282D01*
X159763072Y-131081916D01*
X159650263Y-131209250D01*
X159571210Y-131359873D01*
X159530500Y-131525044D01*
X159530500Y-131695155D01*
X159573005Y-131867608D01*
X159570341Y-131868264D01*
X159574722Y-131925086D01*
X159541577Y-131986594D01*
X159480441Y-132020418D01*
X159453411Y-132023400D01*
X158008589Y-132023400D01*
X157941550Y-132003715D01*
X157895795Y-131950911D01*
X157885851Y-131881753D01*
X157889472Y-131867725D01*
X157888995Y-131867608D01*
X157931500Y-131695155D01*
X157931500Y-131525044D01*
X157890790Y-131359876D01*
X157890790Y-131359875D01*
X157855283Y-131292224D01*
X157841559Y-131223716D01*
X157867052Y-131158663D01*
X157923667Y-131117719D01*
X157965081Y-131110599D01*
X158378871Y-131110599D01*
X158378872Y-131110599D01*
X158438483Y-131104191D01*
X158573331Y-131053896D01*
X158688546Y-130967646D01*
X158774796Y-130852431D01*
X158825091Y-130717583D01*
X158831500Y-130657973D01*
X158831499Y-129062228D01*
X158825091Y-129002617D01*
X158789590Y-128907435D01*
X158774797Y-128867771D01*
X158774793Y-128867764D01*
X158688548Y-128752557D01*
X158688546Y-128752554D01*
X158641261Y-128717156D01*
X158599391Y-128661223D01*
X158592550Y-128633424D01*
X158591664Y-128626408D01*
X158570520Y-128573006D01*
X158569211Y-128569370D01*
X158551467Y-128514759D01*
X158547089Y-128507861D01*
X158536495Y-128487068D01*
X158533486Y-128479468D01*
X158499736Y-128433015D01*
X158497545Y-128429792D01*
X158466786Y-128381323D01*
X158460833Y-128375733D01*
X158445398Y-128358225D01*
X158440594Y-128351613D01*
X158440591Y-128351611D01*
X158440591Y-128351610D01*
X158396361Y-128315020D01*
X158393438Y-128312443D01*
X158351585Y-128273140D01*
X158351577Y-128273134D01*
X158344415Y-128269197D01*
X158325114Y-128256080D01*
X158318824Y-128250876D01*
X158266878Y-128226432D01*
X158263417Y-128224669D01*
X158213092Y-128197003D01*
X158213089Y-128197002D01*
X158213085Y-128197000D01*
X158205174Y-128194969D01*
X158183222Y-128187066D01*
X158175825Y-128183585D01*
X158175821Y-128183584D01*
X158119444Y-128172830D01*
X158115644Y-128171980D01*
X158060023Y-128157700D01*
X158060019Y-128157700D01*
X158051847Y-128157700D01*
X158028615Y-128155504D01*
X158020588Y-128153973D01*
X158020586Y-128153973D01*
X158011633Y-128154536D01*
X157963275Y-128157578D01*
X157959403Y-128157700D01*
X157744153Y-128157700D01*
X157677114Y-128138015D01*
X157656472Y-128121381D01*
X155073318Y-125538227D01*
X155039833Y-125476904D01*
X155044817Y-125407212D01*
X155086689Y-125351279D01*
X155152153Y-125326862D01*
X155168084Y-125327545D01*
X155168098Y-125327115D01*
X155175888Y-125327358D01*
X155175896Y-125327360D01*
X155222284Y-125322975D01*
X155228122Y-125322700D01*
X157984300Y-125322700D01*
X158051339Y-125342385D01*
G37*
%TD.AperFunction*%
%TA.AperFunction,NonConductor*%
G36*
X156563958Y-131130284D02*
G01*
X156609713Y-131183088D01*
X156619657Y-131252246D01*
X156606716Y-131292225D01*
X156571209Y-131359876D01*
X156530500Y-131525044D01*
X156530500Y-131695155D01*
X156573005Y-131867608D01*
X156570341Y-131868264D01*
X156574722Y-131925086D01*
X156541577Y-131986594D01*
X156480441Y-132020418D01*
X156453411Y-132023400D01*
X156234581Y-132023400D01*
X156174845Y-132008063D01*
X156139991Y-131988902D01*
X156120593Y-131983922D01*
X156102181Y-131977618D01*
X156083798Y-131969662D01*
X156083514Y-131969580D01*
X156083317Y-131969454D01*
X156076634Y-131966562D01*
X156077100Y-131965484D01*
X156024628Y-131931975D01*
X156018851Y-131924828D01*
X155938546Y-131817554D01*
X155919557Y-131803339D01*
X155823334Y-131731305D01*
X155823332Y-131731304D01*
X155809864Y-131726281D01*
X155753931Y-131684409D01*
X155729515Y-131618944D01*
X155744368Y-131550672D01*
X155793774Y-131501267D01*
X155809869Y-131493917D01*
X155811413Y-131493340D01*
X155823331Y-131488896D01*
X155938546Y-131402646D01*
X156024796Y-131287431D01*
X156053956Y-131209250D01*
X156060663Y-131191267D01*
X156102534Y-131135333D01*
X156167998Y-131110915D01*
X156176821Y-131110599D01*
X156496920Y-131110599D01*
X156563958Y-131130284D01*
G37*
%TD.AperFunction*%
M02*
